<svg width="1898" height="1066" viewBox="0 0 1898 1066" fill="none" xmlns="http://www.w3.org/2000/svg">
<g opacity="0.5" clip-path="url(#clip0_35_244)">
<path d="M1329.37 19.7177L1350.99 39.9683H1366.16L1344.73 19.8953L1329.37 19.7177Z" fill="white"/>
<path d="M1360.09 19.7177L1381.71 39.9683H1396.88L1375.45 19.8953L1360.09 19.7177Z" fill="white"/>
<path d="M1390.81 19.7177L1412.43 39.9683H1427.6L1406.17 19.8953L1390.81 19.7177Z" fill="white"/>
<g opacity="0.06">
<path d="M1651.3 27.1785H1826.87C1828.6 27.1785 1830.31 27.4973 1831.9 28.1166C1833.5 28.736 1834.95 29.6437 1836.17 30.7881L1855.2 48.6157C1856.42 49.7595 1857.39 51.1176 1858.05 52.6123C1858.71 54.107 1859.05 55.7091 1859.05 57.327V236.534C1859.05 247.512 1844.89 253.008 1836.6 245.246L1642.05 63.015C1639.59 60.7121 1638.2 57.5919 1638.19 54.3356L1638.15 39.5313C1638.15 37.9107 1638.48 36.305 1639.14 34.8062C1639.8 33.3075 1640.77 31.9453 1641.99 30.7976C1643.21 29.65 1644.66 28.7396 1646.26 28.1185C1647.86 27.4974 1649.57 27.178 1651.3 27.1785Z" fill="white"/>
</g>
<path d="M1859.05 60.727V307.845L1855.55 311.131V111.023L1845.64 101.743V60.5742L1859.05 60.727Z" fill="white"/>
<path d="M1858.86 311.042L1855.45 314.24V316.727L1858.86 313.529V311.042Z" fill="white"/>
<path d="M1858.86 317.082L1855.45 320.28V322.766L1858.86 319.569V317.082Z" fill="white"/>
<g opacity="0.14">
<path d="M1845.59 433.168H1634.75L1480.47 288.66H1242.84L964.081 27.5551L964.885 26.8019L1243.31 287.594H1480.94L1635.22 432.102H1845.59V433.168Z" fill="white"/>
</g>
<g opacity="0.14">
<path d="M1377.7 288.149L1281.83 198.463V160.207L1144.19 31.2854L1145 30.5322L1282.97 159.767V198.023L1378.51 287.395L1377.7 288.149Z" fill="white"/>
</g>
<g opacity="0.14">
<path d="M1715.74 433.012L1488.33 220.011L1576.24 137.669L1477.65 45.3187L1478.45 44.5656L1577.85 137.669L1489.94 220.011L1716.54 432.258L1715.74 433.012Z" fill="white"/>
</g>
<g opacity="0.14">
<path d="M1541.95 170.546L1459.42 93.2452H1210.58V92.1794H1459.89L1542.75 169.793L1541.95 170.546Z" fill="white"/>
</g>
<g opacity="0.14">
<path d="M1838.55 410.718L1697.47 278.578V15.2767H1698.61V278.137L1839.35 409.965L1838.55 410.718Z" fill="white"/>
</g>
<g opacity="0.03">
<path d="M1574.58 87.0421L1454.8 199.241C1453.9 200.08 1452.68 200.552 1451.42 200.552H1240.13C1238.86 200.552 1237.64 200.08 1236.75 199.241L1117.06 87.1381C1116.39 86.5113 1115.94 85.7131 1115.76 84.8444C1115.57 83.9757 1115.67 83.0753 1116.03 82.2571C1116.39 81.4389 1117 80.7396 1117.79 80.2476C1118.58 79.7555 1119.5 79.4928 1120.45 79.4926H1571.1C1572.03 79.4929 1572.95 79.749 1573.73 80.2294C1574.51 80.7097 1575.12 81.3933 1575.49 82.1959C1575.86 82.9985 1575.97 83.8849 1575.81 84.7461C1575.65 85.6072 1575.22 86.4053 1574.58 87.0421Z" fill="white"/>
</g>
<path d="M1814.82 48.4949H1813.2V65.3704H1814.82V48.4949Z" fill="white"/>
<path d="M1823.02 57.6893V56.1723H1805V57.6893H1823.02Z" fill="white"/>
<path d="M1329.37 1046.1L1350.99 1025.85H1366.16L1344.73 1045.93L1329.37 1046.1Z" fill="white"/>
<path d="M1360.09 1046.1L1381.71 1025.85H1396.88L1375.45 1045.93L1360.09 1046.1Z" fill="white"/>
<path d="M1390.81 1046.1L1412.43 1025.85H1427.6L1406.17 1045.93L1390.81 1046.1Z" fill="white"/>
<g opacity="0.06">
<path d="M1651.3 1038.64H1826.87C1828.6 1038.64 1830.31 1038.33 1831.9 1037.71C1833.5 1037.09 1834.95 1036.18 1836.17 1035.03L1855.2 1017.21C1856.42 1016.06 1857.39 1014.7 1858.05 1013.21C1858.71 1011.72 1859.05 1010.11 1859.05 1008.5V829.288C1859.05 818.31 1844.89 812.814 1836.6 820.577L1642.05 1002.81C1639.59 1005.11 1638.2 1008.23 1638.19 1011.49L1638.15 1026.29C1638.15 1027.91 1638.48 1029.52 1639.14 1031.02C1639.8 1032.51 1640.77 1033.88 1641.99 1035.02C1643.21 1036.17 1644.66 1037.08 1646.26 1037.7C1647.86 1038.32 1649.57 1038.64 1651.3 1038.64Z" fill="white"/>
</g>
<path d="M1859.05 1005.1V757.977L1855.55 754.691V954.799L1845.64 964.082V1005.25L1859.05 1005.1Z" fill="white"/>
<path d="M1858.86 754.78L1855.45 751.582V749.096L1858.86 752.293V754.78Z" fill="white"/>
<path d="M1858.86 748.74L1855.45 745.543V743.056L1858.86 746.253V748.74Z" fill="white"/>
<g opacity="0.14">
<path d="M964.885 1039.02L964.081 1038.27L1242.84 777.162H1480.47L1634.75 632.654H1845.59V633.72H1635.22L1480.94 778.228H1243.31L964.885 1039.02Z" fill="white"/>
</g>
<g opacity="0.14">
<path d="M1145 1035.29L1144.19 1034.54L1281.83 905.615V867.359L1282 867.203L1377.7 777.674L1378.51 778.427L1282.97 867.8V906.056L1145 1035.29Z" fill="white"/>
</g>
<g opacity="0.14">
<path d="M1478.45 1021.26L1477.65 1020.5L1576.24 928.154L1488.33 845.812L1715.74 632.811L1716.54 633.564L1489.94 845.812L1577.85 928.154L1478.45 1021.26Z" fill="white"/>
</g>
<g opacity="0.14">
<path d="M1459.89 973.643H1210.58V972.577H1459.42L1541.95 895.277L1542.75 896.03L1459.89 973.643Z" fill="white"/>
</g>
<g opacity="0.14">
<path d="M1698.61 1050.55H1697.47V787.245L1838.55 655.104L1839.35 655.857L1698.61 787.685V1050.55Z" fill="white"/>
</g>
<g opacity="0.03">
<path d="M1574.58 978.78L1454.8 866.581C1453.9 865.742 1452.68 865.27 1451.42 865.27H1240.13C1238.86 865.27 1237.64 865.742 1236.75 866.581L1117.06 978.684C1116.39 979.311 1115.94 980.109 1115.76 980.978C1115.57 981.847 1115.67 982.747 1116.03 983.565C1116.39 984.383 1117 985.083 1117.79 985.575C1118.58 986.067 1119.5 986.33 1120.45 986.33H1571.1C1572.03 986.329 1572.95 986.073 1573.73 985.593C1574.51 985.113 1575.12 984.429 1575.49 983.626C1575.86 982.824 1575.97 981.937 1575.81 981.076C1575.65 980.215 1575.22 979.417 1574.58 978.78Z" fill="white"/>
</g>
<path d="M1814.82 1000.45H1813.2V1017.33H1814.82V1000.45Z" fill="white"/>
<path d="M1805 1008.13V1009.65H1823.02V1008.13H1805Z" fill="white"/>
<path d="M568.497 1046.1L546.877 1025.85H531.705L553.135 1045.93L568.497 1046.1Z" fill="white"/>
<path d="M537.774 1046.1L516.154 1025.85H500.982L522.413 1045.93L537.774 1046.1Z" fill="white"/>
<path d="M507.051 1046.1L485.431 1025.85H470.259L491.69 1045.93L507.051 1046.1Z" fill="white"/>
<g opacity="0.06">
<path d="M246.561 1038.64H70.9962C69.2689 1038.64 67.5584 1038.33 65.9627 1037.71C64.3669 1037.09 62.917 1036.18 61.6959 1035.03L42.6627 1017.21C41.4411 1016.06 40.4719 1014.7 39.8107 1013.21C39.1495 1011.72 38.8091 1010.11 38.8091 1008.5V829.288C38.8091 818.31 52.9758 812.814 61.2635 820.577L255.816 1002.81C258.274 1005.11 259.659 1008.23 259.67 1011.49L259.712 1026.29C259.717 1027.91 259.381 1029.52 258.722 1031.02C258.064 1032.51 257.096 1033.88 255.874 1035.02C254.653 1036.17 253.201 1037.08 251.603 1037.7C250.005 1038.32 248.292 1038.64 246.561 1038.64Z" fill="white"/>
</g>
<path d="M38.8091 1005.1V757.977L42.3176 754.691V954.799L52.2286 964.082V1005.25L38.8091 1005.1Z" fill="white"/>
<path d="M38.9985 754.78L42.4122 751.582V749.096L38.9985 752.293V754.78Z" fill="white"/>
<path d="M38.9985 748.74L42.4122 745.543V743.056L38.9985 746.253V748.74Z" fill="white"/>
<g opacity="0.14">
<path d="M932.978 1039.02L654.552 778.228H416.922L262.643 633.72H52.2739V632.654H263.114L417.393 777.162H655.022L933.783 1038.27L932.978 1039.02Z" fill="white"/>
</g>
<g opacity="0.14">
<path d="M752.866 1035.29L614.893 906.056V867.8L519.355 778.427L520.16 777.674L616.031 867.359V905.615L753.67 1034.54L752.866 1035.29Z" fill="white"/>
</g>
<g opacity="0.14">
<path d="M419.411 1021.26L320.012 928.154L407.922 845.812L181.322 633.564L182.126 632.811L409.53 845.812L409.128 846.188L321.62 928.154L420.215 1020.5L419.411 1021.26Z" fill="white"/>
</g>
<g opacity="0.14">
<path d="M687.285 973.643H437.974L437.807 973.487L355.112 896.03L355.916 895.277L438.444 972.577H687.285V973.643Z" fill="white"/>
</g>
<g opacity="0.14">
<path d="M200.39 1050.55H199.252V787.685L58.5098 655.857L59.3139 655.104L200.39 787.245V1050.55Z" fill="white"/>
</g>
<g opacity="0.03">
<path d="M323.282 978.78L443.067 866.581C443.964 865.742 445.179 865.27 446.447 865.27H657.738C659.005 865.27 660.221 865.742 661.117 866.581L780.801 978.684C781.469 979.311 781.924 980.109 782.108 980.978C782.292 981.847 782.197 982.747 781.835 983.565C781.473 984.383 780.86 985.083 780.073 985.575C779.287 986.067 778.363 986.33 777.417 986.33H326.763C325.83 986.329 324.917 986.073 324.137 985.593C323.358 985.113 322.745 984.429 322.375 983.626C322.004 982.824 321.893 981.937 322.054 981.076C322.215 980.215 322.642 979.417 323.282 978.78Z" fill="white"/>
</g>
<path d="M83.0436 1017.33H84.6621V1000.45H83.0436V1017.33Z" fill="white"/>
<path d="M74.8423 1008.13V1009.65H92.8589V1008.13H74.8423Z" fill="white"/>
<path d="M568.497 19.7177L546.877 39.9683H531.705L553.135 19.8953L568.497 19.7177Z" fill="white"/>
<path d="M537.774 19.7177L516.154 39.9683H500.982L522.413 19.8953L537.774 19.7177Z" fill="white"/>
<path d="M507.051 19.7177L485.431 39.9683H470.259L491.69 19.8953L507.051 19.7177Z" fill="white"/>
<g opacity="0.06">
<path d="M246.561 27.1785H70.9962C69.2689 27.1785 67.5584 27.4973 65.9627 28.1166C64.3669 28.736 62.917 29.6437 61.6959 30.7881L42.6627 48.6157C41.4411 49.7595 40.4719 51.1176 39.8107 52.6123C39.1495 54.107 38.8091 55.7091 38.8091 57.327V236.534C38.8091 247.512 52.9758 253.008 61.2635 245.246L255.816 63.015C258.274 60.7121 259.659 57.5919 259.67 54.3356L259.712 39.5313C259.717 37.9107 259.381 36.305 258.722 34.8062C258.064 33.3075 257.096 31.9453 255.874 30.7976C254.653 29.65 253.201 28.7396 251.603 28.1185C250.005 27.4974 248.292 27.178 246.561 27.1785Z" fill="white"/>
</g>
<path d="M38.8091 60.727V307.845L42.3176 311.131V111.023L52.2286 101.743V60.5742L38.8091 60.727Z" fill="white"/>
<path d="M38.9985 311.042L42.4122 314.24V316.727L38.9985 313.529V311.042Z" fill="white"/>
<path d="M38.9985 317.082L42.4122 320.28V322.766L38.9985 319.569V317.082Z" fill="white"/>
<g opacity="0.14">
<path d="M263.114 433.168H52.2739V432.102H262.643L416.922 287.594H654.552L932.978 26.8019L933.783 27.5551L655.022 288.66H417.393L263.114 433.168Z" fill="white"/>
</g>
<g opacity="0.14">
<path d="M520.16 288.149L519.355 287.395L614.893 198.023V159.767L752.866 30.5322L753.67 31.2854L616.031 160.207V198.463L520.16 288.149Z" fill="white"/>
</g>
<g opacity="0.14">
<path d="M182.126 433.012L181.322 432.258L407.922 220.011L320.012 137.669L419.411 44.5656L420.215 45.3187L321.62 137.669L409.53 220.011L409.128 220.387L182.126 433.012Z" fill="white"/>
</g>
<g opacity="0.14">
<path d="M355.916 170.546L355.112 169.793L437.974 92.1794H687.285V93.2452H438.444L355.916 170.546Z" fill="white"/>
</g>
<g opacity="0.14">
<path d="M59.3139 410.718L58.5098 409.965L199.252 278.137V15.2767H200.39V278.578L59.3139 410.718Z" fill="white"/>
</g>
<g opacity="0.03">
<path d="M323.282 87.0421L443.067 199.241C443.964 200.08 445.179 200.552 446.447 200.552H657.738C659.005 200.552 660.221 200.08 661.117 199.241L780.801 87.1381C781.469 86.5113 781.924 85.7131 782.108 84.8444C782.292 83.9757 782.197 83.0753 781.835 82.2571C781.473 81.4389 780.86 80.7396 780.073 80.2476C779.287 79.7555 778.363 79.4928 777.417 79.4926H326.763C325.83 79.4929 324.917 79.749 324.137 80.2294C323.358 80.7097 322.745 81.3933 322.375 82.1959C322.004 82.9985 321.893 83.8849 322.054 84.7461C322.215 85.6072 322.642 86.4053 323.282 87.0421Z" fill="white"/>
</g>
<path d="M83.0436 65.3704H84.6621V48.4949H83.0436V65.3704Z" fill="white"/>
<path d="M92.8589 57.6894V56.1724H74.8423V57.6894H92.8589Z" fill="white"/>
<g opacity="0.51">
<path d="M905.639 0.202481L890.494 14.3886H871.935L887.106 0.177612L905.639 0.202481Z" fill="#48A537"/>
<path d="M875.295 0.202481L860.15 14.3886H841.591L856.763 0.177612L875.295 0.202481Z" fill="#48A537"/>
<path d="M844.951 0.202481L829.806 14.3886H811.247L826.419 0.177612L844.951 0.202481Z" fill="#48A537"/>
<path d="M814.608 0.202481L799.462 14.3886H780.903L796.075 0.177612L814.608 0.202481Z" fill="#48A537"/>
<path d="M784.264 0.202481L769.119 14.3886H750.56L765.731 0.177612L784.264 0.202481Z" fill="#48A537"/>
<path d="M753.92 0.202481L738.775 14.3886H720.216L735.388 0.177612L753.92 0.202481Z" fill="#48A537"/>
<path d="M723.576 0.202481L708.431 14.3886H689.872L705.044 0.177612L723.576 0.202481Z" fill="#48A537"/>
<path d="M693.233 0.202481L678.087 14.3886H659.528L674.7 0.177612L693.233 0.202481Z" fill="#48A537"/>
<path d="M662.889 0.202481L647.744 14.3886H629.185L644.356 0.177612L662.889 0.202481Z" fill="#48A537"/>
</g>
<g opacity="0.51">
<path d="M905.639 1065.98L890.494 1051.79H871.935L887.106 1066L905.639 1065.98Z" fill="#48A537"/>
<path d="M875.295 1065.98L860.15 1051.79H841.591L856.763 1066L875.295 1065.98Z" fill="#48A537"/>
<path d="M844.951 1065.98L829.806 1051.79H811.247L826.419 1066L844.951 1065.98Z" fill="#48A537"/>
<path d="M814.608 1065.98L799.462 1051.79H780.903L796.075 1066L814.608 1065.98Z" fill="#48A537"/>
<path d="M784.264 1065.98L769.119 1051.79H750.56L765.731 1066L784.264 1065.98Z" fill="#48A537"/>
<path d="M753.92 1065.98L738.775 1051.79H720.216L735.388 1066L753.92 1065.98Z" fill="#48A537"/>
<path d="M723.576 1065.98L708.431 1051.79H689.872L705.044 1066L723.576 1065.98Z" fill="#48A537"/>
<path d="M693.233 1065.98L678.087 1051.79H659.528L674.7 1066L693.233 1065.98Z" fill="#48A537"/>
<path d="M662.889 1065.98L647.744 1051.79H629.185L644.356 1066L662.889 1065.98Z" fill="#48A537"/>
</g>
<g opacity="0.51">
<path d="M992.551 1065.98L1007.7 1051.79H1026.26L1011.08 1066L992.551 1065.98Z" fill="#48A537"/>
<path d="M1022.89 1065.98L1038.04 1051.79H1056.6L1041.43 1066L1022.89 1065.98Z" fill="#48A537"/>
<path d="M1053.24 1065.98L1068.38 1051.79H1086.94L1071.77 1066L1053.24 1065.98Z" fill="#48A537"/>
<path d="M1083.58 1065.98L1098.73 1051.79H1117.29L1102.11 1066L1083.58 1065.98Z" fill="#48A537"/>
<path d="M1113.93 1065.98L1129.07 1051.79H1147.63L1132.46 1066L1113.93 1065.98Z" fill="#48A537"/>
<path d="M1144.27 1065.98L1159.41 1051.79H1177.97L1162.8 1066L1144.27 1065.98Z" fill="#48A537"/>
<path d="M1174.61 1065.98L1189.76 1051.79H1208.32L1193.15 1066L1174.61 1065.98Z" fill="#48A537"/>
<path d="M1204.96 1065.98L1220.1 1051.79H1238.66L1223.49 1066L1204.96 1065.98Z" fill="#48A537"/>
<path d="M1235.3 1065.98L1250.45 1051.79H1269.01L1253.83 1066L1235.3 1065.98Z" fill="#48A537"/>
</g>
<g opacity="0.51">
<path d="M992.551 0.202481L1007.7 14.3886H1026.26L1011.08 0.177612L992.551 0.202481Z" fill="#48A537"/>
<path d="M1022.89 0.202481L1038.04 14.3886H1056.6L1041.43 0.177612L1022.89 0.202481Z" fill="#48A537"/>
<path d="M1053.24 0.202481L1068.38 14.3886H1086.94L1071.77 0.177612L1053.24 0.202481Z" fill="#48A537"/>
<path d="M1083.58 0.202481L1098.73 14.3886H1117.29L1102.11 0.177612L1083.58 0.202481Z" fill="#48A537"/>
<path d="M1113.93 0.202481L1129.07 14.3886H1147.63L1132.46 0.177612L1113.93 0.202481Z" fill="#48A537"/>
<path d="M1144.27 0.202481L1159.41 14.3886H1177.97L1162.8 0.177612L1144.27 0.202481Z" fill="#48A537"/>
<path d="M1174.61 0.202481L1189.76 14.3886H1208.32L1193.15 0.177612L1174.61 0.202481Z" fill="#48A537"/>
<path d="M1204.96 0.202481L1220.1 14.3886H1238.66L1223.49 0.177612L1204.96 0.202481Z" fill="#48A537"/>
<path d="M1235.3 0.202481L1250.45 14.3886H1269.01L1253.83 0.177612L1235.3 0.202481Z" fill="#48A537"/>
</g>
</g>
<defs>
<clipPath id="clip0_35_244">
<rect width="1897" height="1066" fill="white" transform="translate(0.5)"/>
</clipPath>
</defs>
</svg>
