<svg width="657" height="398" viewBox="0 0 657 398" fill="none" xmlns="http://www.w3.org/2000/svg">
<path d="M650.401 35.0572V343.297L582.416 394.549H38.7882V394.678H1.90137V265.004L38.1403 237.684L38.7882 237.191V7.67285H216.312L252.637 35.0572H650.401Z" fill="#121212" stroke="white" stroke-width="2.57926" stroke-miterlimit="10"/>
<mask id="mask0_35_2462" style="mask-type:alpha" maskUnits="userSpaceOnUse" x="5" y="8" width="652" height="390">
<path d="M655.098 36.73V344.97L587.112 396.222H43.4845V396.351H6.59766V266.677L42.8366 239.357L43.4845 238.864V9.3457H221.008L257.333 36.73H655.098Z" fill="#121212" stroke="white" stroke-width="2.57926" stroke-miterlimit="10"/>
</mask>
<g mask="url(#mask0_35_2462)">
<path d="M392.474 284.903C388.132 292.424 380.108 297.057 371.424 297.057L290.838 297.057C282.154 297.057 274.13 292.424 269.788 284.903L229.495 215.114C225.153 207.593 225.153 198.328 229.495 190.807L269.788 121.017C274.13 113.497 282.154 108.864 290.838 108.864L371.424 108.864C380.108 108.864 388.132 113.497 392.474 121.017L432.767 190.807C437.109 198.328 437.109 207.593 432.767 215.114L392.474 284.903Z" stroke="#949494" stroke-width="2"/>
<path d="M379.179 267.569C375.719 273.561 369.326 277.252 362.407 277.252L298.201 277.252C291.282 277.252 284.889 273.561 281.43 267.569L249.326 211.964C245.867 205.973 245.867 198.59 249.326 192.599L281.43 136.994C284.889 131.002 291.282 127.311 298.201 127.311L362.407 127.311C369.326 127.311 375.719 131.002 379.179 136.994L411.282 192.599C414.741 198.59 414.741 205.973 411.282 211.964L379.179 267.569Z" stroke="#949494" stroke-width="1.59348"/>
<g filter="url(#filter0_f_35_2462)">
<circle cx="566.222" cy="-90.0662" r="277.296" fill="white" fill-opacity="0.07"/>
</g>
<g filter="url(#filter1_f_35_2462)">
<circle cx="109.308" cy="281.408" r="277.296" fill="white" fill-opacity="0.07"/>
</g>
<g opacity="0.3">
<line x1="-50.0098" y1="134.923" x2="724.032" y2="134.923" stroke="#535353" stroke-width="0.403357"/>
<line x1="-50.0098" y1="140.57" x2="724.032" y2="140.57" stroke="#535353" stroke-width="0.403357"/>
<line x1="-50.0098" y1="277.577" x2="724.032" y2="277.577" stroke="#535353" stroke-width="0.403357"/>
<line x1="-50.0098" y1="283.224" x2="724.032" y2="283.224" stroke="#535353" stroke-width="0.403357"/>
<line x1="55.5249" y1="-6.67554" x2="55.5249" y2="426.437" stroke="#535353" stroke-width="0.403357"/>
<line x1="166.103" y1="-6.67554" x2="166.103" y2="426.437" stroke="#535353" stroke-width="0.403357"/>
<line x1="276.68" y1="-6.67554" x2="276.68" y2="426.437" stroke="#535353" stroke-width="0.403357"/>
<line x1="387.257" y1="-6.67554" x2="387.257" y2="426.437" stroke="#535353" stroke-width="0.403357"/>
<line x1="497.834" y1="-6.67554" x2="497.834" y2="426.437" stroke="#535353" stroke-width="0.403357"/>
<line x1="608.413" y1="-6.67554" x2="608.413" y2="426.437" stroke="#535353" stroke-width="0.403357"/>
<line x1="60.5669" y1="-5.10815" x2="60.5669" y2="428.005" stroke="#535353" stroke-width="0.403357"/>
<line x1="171.144" y1="-5.10815" x2="171.144" y2="428.005" stroke="#535353" stroke-width="0.403357"/>
<line x1="281.722" y1="-5.10815" x2="281.722" y2="428.005" stroke="#535353" stroke-width="0.403357"/>
<line x1="392.299" y1="-5.10815" x2="392.299" y2="428.005" stroke="#535353" stroke-width="0.403357"/>
<line x1="502.877" y1="-5.10815" x2="502.877" y2="428.005" stroke="#535353" stroke-width="0.403357"/>
<line x1="613.455" y1="-5.10815" x2="613.455" y2="428.005" stroke="#535353" stroke-width="0.403357"/>
<line x1="60.565" y1="130.913" x2="60.565" y2="135.066" stroke="#535353" stroke-width="0.403357"/>
<line x1="60.4453" y1="134.854" x2="63.9708" y2="134.854" stroke="#535353" stroke-width="0.403357"/>
<line y1="-0.201678" x2="4.15306" y2="-0.201678" transform="matrix(-4.37114e-08 1 1 4.37114e-08 55.6465 130.822)" stroke="#535353" stroke-width="0.403357"/>
<line y1="-0.201678" x2="3.52546" y2="-0.201678" transform="matrix(-1 -8.74228e-08 -8.74228e-08 1 55.5645 134.966)" stroke="#535353" stroke-width="0.403357"/>
<line y1="-0.201678" x2="4.15458" y2="-0.201678" transform="matrix(4.37114e-08 -1 -1 -4.37114e-08 55.1973 144.682)" stroke="#535353" stroke-width="0.403357"/>
<line y1="-0.201678" x2="3.52534" y2="-0.201678" transform="matrix(1 0 0 -1 52.0391 140.504)" stroke="#535353" stroke-width="0.403357"/>
<line x1="60.6753" y1="144.682" x2="60.6753" y2="140.527" stroke="#535353" stroke-width="0.403357"/>
<line x1="64.0352" y1="140.706" x2="60.5098" y2="140.706" stroke="#535353" stroke-width="0.403357"/>
<line x1="60.565" y1="274.105" x2="60.565" y2="278.258" stroke="#535353" stroke-width="0.403357"/>
<line x1="60.4453" y1="278.047" x2="63.9708" y2="278.047" stroke="#535353" stroke-width="0.403357"/>
<line y1="-0.201678" x2="4.15306" y2="-0.201678" transform="matrix(-4.37114e-08 1 1 4.37114e-08 55.6465 274.015)" stroke="#535353" stroke-width="0.403357"/>
<line y1="-0.201678" x2="3.52546" y2="-0.201678" transform="matrix(-1 -8.74228e-08 -8.74228e-08 1 55.5645 278.158)" stroke="#535353" stroke-width="0.403357"/>
<line y1="-0.201678" x2="4.15458" y2="-0.201678" transform="matrix(4.37114e-08 -1 -1 -4.37114e-08 55.1973 287.873)" stroke="#535353" stroke-width="0.403357"/>
<line y1="-0.201678" x2="3.52534" y2="-0.201678" transform="matrix(1 0 0 -1 52.0391 283.696)" stroke="#535353" stroke-width="0.403357"/>
<line x1="60.6753" y1="287.873" x2="60.6753" y2="283.719" stroke="#535353" stroke-width="0.403357"/>
<line x1="64.0352" y1="283.897" x2="60.5098" y2="283.897" stroke="#535353" stroke-width="0.403357"/>
<line x1="171.084" y1="130.913" x2="171.084" y2="135.066" stroke="#535353" stroke-width="0.403357"/>
<line x1="170.965" y1="134.854" x2="174.49" y2="134.854" stroke="#535353" stroke-width="0.403357"/>
<line y1="-0.201678" x2="4.15306" y2="-0.201678" transform="matrix(-4.37114e-08 1 1 4.37114e-08 166.166 130.822)" stroke="#535353" stroke-width="0.403357"/>
<line y1="-0.201678" x2="3.52546" y2="-0.201678" transform="matrix(-1 -8.74228e-08 -8.74228e-08 1 166.084 134.966)" stroke="#535353" stroke-width="0.403357"/>
<line y1="-0.201678" x2="4.15458" y2="-0.201678" transform="matrix(4.37114e-08 -1 -1 -4.37114e-08 165.717 144.682)" stroke="#535353" stroke-width="0.403357"/>
<line y1="-0.201678" x2="3.52534" y2="-0.201678" transform="matrix(1 0 0 -1 162.559 140.504)" stroke="#535353" stroke-width="0.403357"/>
<line x1="171.194" y1="144.682" x2="171.194" y2="140.527" stroke="#535353" stroke-width="0.403357"/>
<line x1="174.555" y1="140.706" x2="171.029" y2="140.706" stroke="#535353" stroke-width="0.403357"/>
<line x1="282.008" y1="130.913" x2="282.008" y2="135.066" stroke="#535353" stroke-width="0.403357"/>
<line x1="281.889" y1="134.854" x2="285.414" y2="134.854" stroke="#535353" stroke-width="0.403357"/>
<line y1="-0.201678" x2="4.15306" y2="-0.201678" transform="matrix(-4.37114e-08 1 1 4.37114e-08 277.09 130.822)" stroke="#535353" stroke-width="0.403357"/>
<line y1="-0.201678" x2="3.52546" y2="-0.201678" transform="matrix(-1 -8.74228e-08 -8.74228e-08 1 277.008 134.966)" stroke="#535353" stroke-width="0.403357"/>
<line y1="-0.201678" x2="4.15458" y2="-0.201678" transform="matrix(4.37114e-08 -1 -1 -4.37114e-08 276.641 144.682)" stroke="#535353" stroke-width="0.403357"/>
<line y1="-0.201678" x2="3.52534" y2="-0.201678" transform="matrix(1 0 0 -1 273.482 140.504)" stroke="#535353" stroke-width="0.403357"/>
<line x1="282.119" y1="144.682" x2="282.119" y2="140.527" stroke="#535353" stroke-width="0.403357"/>
<line x1="285.479" y1="140.706" x2="281.953" y2="140.706" stroke="#535353" stroke-width="0.403357"/>
<line x1="392.931" y1="130.913" x2="392.931" y2="135.066" stroke="#535353" stroke-width="0.403357"/>
<line x1="392.811" y1="134.854" x2="396.336" y2="134.854" stroke="#535353" stroke-width="0.403357"/>
<line y1="-0.201678" x2="4.15306" y2="-0.201678" transform="matrix(-4.37114e-08 1 1 4.37114e-08 388.013 130.822)" stroke="#535353" stroke-width="0.403357"/>
<line y1="-0.201678" x2="3.52546" y2="-0.201678" transform="matrix(-1 -8.74228e-08 -8.74228e-08 1 387.931 134.966)" stroke="#535353" stroke-width="0.403357"/>
<line y1="-0.201678" x2="4.15458" y2="-0.201678" transform="matrix(4.37114e-08 -1 -1 -4.37114e-08 387.563 144.682)" stroke="#535353" stroke-width="0.403357"/>
<line y1="-0.201678" x2="3.52534" y2="-0.201678" transform="matrix(1 0 0 -1 384.405 140.504)" stroke="#535353" stroke-width="0.403357"/>
<line x1="393.041" y1="144.682" x2="393.041" y2="140.527" stroke="#535353" stroke-width="0.403357"/>
<line x1="396.401" y1="140.706" x2="392.876" y2="140.706" stroke="#535353" stroke-width="0.403357"/>
<line x1="502.644" y1="130.913" x2="502.644" y2="135.066" stroke="#535353" stroke-width="0.403357"/>
<line x1="502.523" y1="134.854" x2="506.049" y2="134.854" stroke="#535353" stroke-width="0.403357"/>
<line y1="-0.201678" x2="4.15306" y2="-0.201678" transform="matrix(-4.37114e-08 1 1 4.37114e-08 497.726 130.822)" stroke="#535353" stroke-width="0.403357"/>
<line y1="-0.201678" x2="3.52546" y2="-0.201678" transform="matrix(-1 -8.74228e-08 -8.74228e-08 1 497.644 134.966)" stroke="#535353" stroke-width="0.403357"/>
<line y1="-0.201678" x2="4.15458" y2="-0.201678" transform="matrix(4.37114e-08 -1 -1 -4.37114e-08 497.276 144.682)" stroke="#535353" stroke-width="0.403357"/>
<line y1="-0.201678" x2="3.52534" y2="-0.201678" transform="matrix(1 0 0 -1 494.118 140.504)" stroke="#535353" stroke-width="0.403357"/>
<line x1="502.754" y1="144.682" x2="502.754" y2="140.527" stroke="#535353" stroke-width="0.403357"/>
<line x1="506.114" y1="140.706" x2="502.589" y2="140.706" stroke="#535353" stroke-width="0.403357"/>
<line x1="613.568" y1="130.913" x2="613.568" y2="135.066" stroke="#535353" stroke-width="0.403357"/>
<line x1="613.448" y1="134.854" x2="616.974" y2="134.854" stroke="#535353" stroke-width="0.403357"/>
<line y1="-0.201678" x2="4.15306" y2="-0.201678" transform="matrix(-4.37114e-08 1 1 4.37114e-08 608.649 130.822)" stroke="#535353" stroke-width="0.403357"/>
<line y1="-0.201678" x2="3.52546" y2="-0.201678" transform="matrix(-1 -8.74228e-08 -8.74228e-08 1 608.567 134.966)" stroke="#535353" stroke-width="0.403357"/>
<line y1="-0.201678" x2="4.15458" y2="-0.201678" transform="matrix(4.37114e-08 -1 -1 -4.37114e-08 608.199 144.682)" stroke="#535353" stroke-width="0.403357"/>
<line y1="-0.201678" x2="3.52534" y2="-0.201678" transform="matrix(1 0 0 -1 605.041 140.504)" stroke="#535353" stroke-width="0.403357"/>
<line x1="613.678" y1="144.682" x2="613.678" y2="140.527" stroke="#535353" stroke-width="0.403357"/>
<line x1="617.038" y1="140.706" x2="613.513" y2="140.706" stroke="#535353" stroke-width="0.403357"/>
<line x1="171.084" y1="274.509" x2="171.084" y2="278.662" stroke="#535353" stroke-width="0.403357"/>
<line x1="170.965" y1="278.45" x2="174.49" y2="278.45" stroke="#535353" stroke-width="0.403357"/>
<line y1="-0.201678" x2="4.15306" y2="-0.201678" transform="matrix(-4.37114e-08 1 1 4.37114e-08 166.166 274.418)" stroke="#535353" stroke-width="0.403357"/>
<line y1="-0.201678" x2="3.52546" y2="-0.201678" transform="matrix(-1 -8.74228e-08 -8.74228e-08 1 166.084 278.561)" stroke="#535353" stroke-width="0.403357"/>
<line y1="-0.201678" x2="4.15458" y2="-0.201678" transform="matrix(4.37114e-08 -1 -1 -4.37114e-08 165.717 288.277)" stroke="#535353" stroke-width="0.403357"/>
<line y1="-0.201678" x2="3.52534" y2="-0.201678" transform="matrix(1 0 0 -1 162.559 284.098)" stroke="#535353" stroke-width="0.403357"/>
<line x1="171.194" y1="288.277" x2="171.194" y2="284.123" stroke="#535353" stroke-width="0.403357"/>
<line x1="174.555" y1="284.3" x2="171.029" y2="284.3" stroke="#535353" stroke-width="0.403357"/>
<line x1="281.604" y1="273.298" x2="281.604" y2="277.451" stroke="#535353" stroke-width="0.403357"/>
<line x1="281.484" y1="277.24" x2="285.01" y2="277.24" stroke="#535353" stroke-width="0.403357"/>
<line y1="-0.201678" x2="4.15306" y2="-0.201678" transform="matrix(-4.37114e-08 1 1 4.37114e-08 276.686 273.208)" stroke="#535353" stroke-width="0.403357"/>
<line y1="-0.201678" x2="3.52546" y2="-0.201678" transform="matrix(-1 -8.74228e-08 -8.74228e-08 1 276.604 277.351)" stroke="#535353" stroke-width="0.403357"/>
<line y1="-0.201678" x2="4.15458" y2="-0.201678" transform="matrix(4.37114e-08 -1 -1 -4.37114e-08 276.236 287.068)" stroke="#535353" stroke-width="0.403357"/>
<line y1="-0.201678" x2="3.52534" y2="-0.201678" transform="matrix(1 0 0 -1 273.078 282.889)" stroke="#535353" stroke-width="0.403357"/>
<line x1="281.714" y1="287.068" x2="281.714" y2="282.913" stroke="#535353" stroke-width="0.403357"/>
<line x1="285.074" y1="283.091" x2="281.549" y2="283.091" stroke="#535353" stroke-width="0.403357"/>
<line x1="392.527" y1="273.298" x2="392.527" y2="277.451" stroke="#535353" stroke-width="0.403357"/>
<line x1="392.406" y1="277.24" x2="395.932" y2="277.24" stroke="#535353" stroke-width="0.403357"/>
<line y1="-0.201678" x2="4.15306" y2="-0.201678" transform="matrix(-4.37114e-08 1 1 4.37114e-08 387.608 273.208)" stroke="#535353" stroke-width="0.403357"/>
<line y1="-0.201678" x2="3.52546" y2="-0.201678" transform="matrix(-1 -8.74228e-08 -8.74228e-08 1 387.526 277.351)" stroke="#535353" stroke-width="0.403357"/>
<line y1="-0.201678" x2="4.15458" y2="-0.201678" transform="matrix(4.37114e-08 -1 -1 -4.37114e-08 387.16 287.068)" stroke="#535353" stroke-width="0.403357"/>
<line y1="-0.201678" x2="3.52534" y2="-0.201678" transform="matrix(1 0 0 -1 384.002 282.889)" stroke="#535353" stroke-width="0.403357"/>
<line x1="392.637" y1="287.068" x2="392.637" y2="282.913" stroke="#535353" stroke-width="0.403357"/>
<line x1="395.998" y1="283.091" x2="392.473" y2="283.091" stroke="#535353" stroke-width="0.403357"/>
<line x1="502.644" y1="273.298" x2="502.644" y2="277.451" stroke="#535353" stroke-width="0.403357"/>
<line x1="502.523" y1="277.24" x2="506.049" y2="277.24" stroke="#535353" stroke-width="0.403357"/>
<line y1="-0.201678" x2="4.15306" y2="-0.201678" transform="matrix(-4.37114e-08 1 1 4.37114e-08 497.726 273.208)" stroke="#535353" stroke-width="0.403357"/>
<line y1="-0.201678" x2="3.52546" y2="-0.201678" transform="matrix(-1 -8.74228e-08 -8.74228e-08 1 497.644 277.351)" stroke="#535353" stroke-width="0.403357"/>
<line y1="-0.201678" x2="4.15458" y2="-0.201678" transform="matrix(4.37114e-08 -1 -1 -4.37114e-08 497.276 287.068)" stroke="#535353" stroke-width="0.403357"/>
<line y1="-0.201678" x2="3.52534" y2="-0.201678" transform="matrix(1 0 0 -1 494.118 282.889)" stroke="#535353" stroke-width="0.403357"/>
<line x1="502.754" y1="287.068" x2="502.754" y2="282.913" stroke="#535353" stroke-width="0.403357"/>
<line x1="506.114" y1="283.091" x2="502.589" y2="283.091" stroke="#535353" stroke-width="0.403357"/>
<line x1="613.568" y1="273.298" x2="613.568" y2="277.451" stroke="#535353" stroke-width="0.403357"/>
<line x1="613.448" y1="277.24" x2="616.974" y2="277.24" stroke="#535353" stroke-width="0.403357"/>
<line y1="-0.201678" x2="4.15306" y2="-0.201678" transform="matrix(-4.37114e-08 1 1 4.37114e-08 608.649 273.208)" stroke="#535353" stroke-width="0.403357"/>
<line y1="-0.201678" x2="3.52546" y2="-0.201678" transform="matrix(-1 -8.74228e-08 -8.74228e-08 1 608.567 277.351)" stroke="#535353" stroke-width="0.403357"/>
<line y1="-0.201678" x2="4.15458" y2="-0.201678" transform="matrix(4.37114e-08 -1 -1 -4.37114e-08 608.199 287.068)" stroke="#535353" stroke-width="0.403357"/>
<line y1="-0.201678" x2="3.52534" y2="-0.201678" transform="matrix(1 0 0 -1 605.041 282.889)" stroke="#535353" stroke-width="0.403357"/>
<line x1="613.678" y1="287.068" x2="613.678" y2="282.913" stroke="#535353" stroke-width="0.403357"/>
<line x1="617.038" y1="283.091" x2="613.513" y2="283.091" stroke="#535353" stroke-width="0.403357"/>
</g>
</g>
<path d="M70.1963 7.97266H226.211L258.135 32.2099H351.478" stroke="#4AFFA4" stroke-width="15.1839" stroke-miterlimit="10"/>
<path d="M589.29 35.0649H650.447L650.41 128.144" stroke="#FF9D00" stroke-width="3"/>
<defs>
<filter id="filter0_f_35_2462" x="27.6982" y="-628.59" width="1077.05" height="1077.05" filterUnits="userSpaceOnUse" color-interpolation-filters="sRGB">
<feFlood flood-opacity="0" result="BackgroundImageFix"/>
<feBlend mode="normal" in="SourceGraphic" in2="BackgroundImageFix" result="shape"/>
<feGaussianBlur stdDeviation="130.614" result="effect1_foregroundBlur_35_2462"/>
</filter>
<filter id="filter1_f_35_2462" x="-429.216" y="-257.115" width="1077.05" height="1077.05" filterUnits="userSpaceOnUse" color-interpolation-filters="sRGB">
<feFlood flood-opacity="0" result="BackgroundImageFix"/>
<feBlend mode="normal" in="SourceGraphic" in2="BackgroundImageFix" result="shape"/>
<feGaussianBlur stdDeviation="130.614" result="effect1_foregroundBlur_35_2462"/>
</filter>
</defs>
</svg>
