<svg xmlns="http://www.w3.org/2000/svg" viewBox="0 0 581.9 962.28"><defs><style>.cls-1{fill:#c49774;}.cls-2{fill:#fff;}.cls-3{fill:none;stroke:#000;stroke-miterlimit:10;}</style></defs><g id="Layer_2" data-name="Layer 2"><g id="Layer_2-2" data-name="Layer 2"><path class="cls-1" d="M178.59,712c.46.75,1,1.56,1.54,2.43s1.22,1.7,1.91,2.63,1.44,1.89,2.29,2.85a84.82,84.82,0,0,0,13.06,12.4,98.15,98.15,0,0,0,18.92,11.5l2.79,1.26c1,.42,2,.8,3,1.21,2.05.86,4.27,1.57,6.55,2.36a118.29,118.29,0,0,0,14.86,3.64A149.53,149.53,0,0,0,275,754c4.67-.21,9.1-.57,13.14-1a20.72,20.72,0,0,0,4.34,1.07,13,13,0,0,0,3.65-1.16c3.4.35,7,.64,10.83.84a147.88,147.88,0,0,0,31.45-1.58,115,115,0,0,0,14.86-3.58c2.29-.78,4.51-1.49,6.56-2.34,1-.42,2-.79,3-1.22l2.79-1.25a98.15,98.15,0,0,0,18.92-11.5,84.82,84.82,0,0,0,13.06-12.4c.85-1,1.59-1.93,2.29-2.85s1.34-1.79,1.91-2.63,1-1.61,1.48-2.34c.87,2.27,1.65,4.84,2.35,7.31,1.44,5.19,2.79,9.8,4.41,9.73.79,0,1.54-1.16,2.2-3a33.47,33.47,0,0,0,1.49-7.46,36.82,36.82,0,0,0-.35-9.66,27.26,27.26,0,0,0-3-8.67,20.8,20.8,0,0,0-4.69-5.68,15.52,15.52,0,0,0-5.38-3,10.31,10.31,0,0,0-2.39-.44,7.07,7.07,0,0,0-1.92.17,2.68,2.68,0,0,0-2,1.61c-.5,1.54.59,3.31,1.82,5.43s2.87,4.56,4.56,7.56c.2.35.41.73.62,1.12-2.26,1.62-5.28,4.07-9,6.95a159.53,159.53,0,0,1-31.19,19.34l-2.51,1.15c-.87.39-1.78.74-2.71,1.14-1.84.81-3.83,1.49-5.87,2.27a128.7,128.7,0,0,1-13.35,3.87,180,180,0,0,1-29.42,3.84c-8.12.44-15.67.56-21.67.75-3.24-.12-6.66-.28-10.19-.5a182.6,182.6,0,0,1-29.44-4A132.41,132.41,0,0,1,232.25,738c-2.05-.79-4-1.48-5.87-2.29-.93-.39-1.84-.75-2.71-1.14l-2.51-1.15A159.53,159.53,0,0,1,190,714c-3.76-2.88-6.78-5.33-9-6.95.21-.4.42-.77.62-1.12,1.69-3,3.27-5.48,4.56-7.56s2.32-3.89,1.82-5.43a2.68,2.68,0,0,0-2-1.61,7.07,7.07,0,0,0-1.92-.17,10.31,10.31,0,0,0-2.39.44,15.52,15.52,0,0,0-5.38,3,20.8,20.8,0,0,0-4.69,5.68,28.41,28.41,0,0,0-3.06,8.65,38.46,38.46,0,0,0-.52,9.66,32.9,32.9,0,0,0,1.32,7.47c.61,1.87,1.33,3,2.12,3,1.62.07,3.1-4.54,4.66-9.74C176.81,716.86,177.66,714.27,178.59,712Zm40.32-319.87L235,398.31l8.45,3.28,2.12.83.53.2.26.1c.07,0,.07,0,0,0l-.07-.12-.55-1q-1.1-2-2.2-3.9l-8.79-15.6-6.15-10.95a45.87,45.87,0,0,0-5.48-8.37,20.82,20.82,0,0,0-4.48-3.76A30.14,30.14,0,0,0,214,356.7c-1.48-.61-2.81-1.08-4.11-1.53s-2.61-.93-3.91-1.34c-5.15-1.72-10.11-3.15-14.79-4.35a217.33,217.33,0,0,0-27.7-5.18,199.46,199.46,0,0,0-26.25-1.46,101.55,101.55,0,0,0-24.09,3.07,62.58,62.58,0,0,0-19.69,8.8,51.2,51.2,0,0,0-12.7,12.49A39.57,39.57,0,0,0,75,379.26c-.22.89-.47,1.72-.61,2.52s-.23,1.55-.33,2.25c0,.4-.07.79-.09,1.15l-.49.52c-.39.46-.78.86-1.09,1.3l-.84,1.21a18.4,18.4,0,0,0-1.08,2c-.44,1.18-.56,1.82-.39,1.9.39.21,1.35-1.59,3.92-3.87.2,1.45.46,2.19.81,2.21.6.05,1-1.6,2.08-4.4a29.81,29.81,0,0,1,4.94-2.58,52.42,52.42,0,0,1,10-2.87c3.8-.78,8.17-1.19,12.79-1.82,4.64-.47,9.59-1,14.83-1.24a256.4,256.4,0,0,1,34,.37l1,.08a114,114,0,0,0-18.57,3,110,110,0,0,0-25.23,9.69,104.62,104.62,0,0,0-42,41.37,96.63,96.63,0,0,0-10.53,29.53,100.36,100.36,0,0,0-.68,31.51A96.53,96.53,0,0,0,66.63,523a98.74,98.74,0,0,0,40.21,42.13,123.91,123.91,0,0,0,24.5,9.91c16,4.83,31.09,6.9,43.78,6.43,1.58-.1,3.13-.12,4.63-.27l4.39-.47c2.82-.46,5.49-.84,7.93-1.5a67.87,67.87,0,0,0,12.21-4.11c1.05-.5,2-1,2.88-1.46a98.18,98.18,0,0,0-1.24,17.47,67.24,67.24,0,0,0,3.4,20.88,45.89,45.89,0,0,0,32.3,29.64,42.13,42.13,0,0,0,20,.08,42.59,42.59,0,0,0,14.6-6.53,34.69,34.69,0,0,0,6.86-6.23q.38.33.75.63a3,3,0,0,0,.28,1.45,5.13,5.13,0,0,0,3.78,2.32.51.51,0,0,0,.07.17c.27.43,1.1.52,2.31.22,1.79.71,3.05.75,3.39.2a.64.64,0,0,0,.11-.31c1.68-.23,3.19-.88,3.8-2.15a3.5,3.5,0,0,0,.25-2.07l1.18-1a33.31,33.31,0,0,0,6.9,6.4,42.4,42.4,0,0,0,34.31,6.57A45.87,45.87,0,0,0,359.82,631a45.08,45.08,0,0,0,7.6-8.74A46.07,46.07,0,0,0,372.5,612,66.93,66.93,0,0,0,376,591.09a97.1,97.1,0,0,0-1.28-17.82c0-.08,0-.17,0-.25.94.5,2,1.06,3.15,1.61a67.82,67.82,0,0,0,12.13,4.12c2.43.66,5.08,1,7.89,1.51l4.36.47c1.5.15,3,.18,4.62.27,12.63.5,27.71-1.53,43.67-6.32a123.85,123.85,0,0,0,24.45-9.84,98.8,98.8,0,0,0,40.18-42,96.07,96.07,0,0,0,9.17-29.74,99.8,99.8,0,0,0-.64-31.47,96.49,96.49,0,0,0-10.47-29.51,104.56,104.56,0,0,0-41.91-41.39,109.86,109.86,0,0,0-25.23-9.7,111.06,111.06,0,0,0-17-2.9,255.63,255.63,0,0,1,33.45-.24c5.23.27,10.17.8,14.8,1.28,4.61.64,9,1.07,12.75,1.85a52.63,52.63,0,0,1,9.94,2.87,29.62,29.62,0,0,1,5.41,2.92c.86,2.34,1.26,3.69,1.8,3.65.3,0,.54-.56.72-1.64,2.31,2.11,3.18,3.73,3.56,3.52.17-.09.06-.71-.36-1.86a17.92,17.92,0,0,0-1-2l-.82-1.19c-.3-.42-.68-.82-1.06-1.27l-.13-.14c0-.57-.05-1.2-.12-1.88s-.21-1.45-.33-2.25-.39-1.63-.61-2.52a39.57,39.57,0,0,0-5.81-12.06,51.2,51.2,0,0,0-12.7-12.49,62.58,62.58,0,0,0-19.69-8.8,101.55,101.55,0,0,0-24.09-3.07,199.46,199.46,0,0,0-26.25,1.46,217.33,217.33,0,0,0-27.7,5.18c-4.68,1.2-9.64,2.63-14.8,4.34-1.29.42-2.59.88-3.9,1.34s-2.64.92-4.12,1.52a30.7,30.7,0,0,0-4.62,2.32,20.54,20.54,0,0,0-4.48,3.76,45.5,45.5,0,0,0-5.5,8.36l-6.18,11-8.86,15.69L336,401.71l-.56,1-.07.12c0,.06,0,.08,0,0l.26-.1.53-.21,2.13-.82,8.49-3.29L363,392.22l.38-.15a114.21,114.21,0,0,0-20.67,14.44c-2.53,2.12-4.82,4.46-7.11,6.7s-4.36,4.67-6.29,7.14-3.76,4.94-5.56,7.38-3.3,5-4.73,7.63a74.81,74.81,0,0,0-6.72,15.88A72.92,72.92,0,0,0,309.82,467a88.12,88.12,0,0,0,.65,14.22c.36,2.2.61,4.35,1.07,6.39.2,1,.41,2,.61,3s.48,1.94.71,2.89A145.8,145.8,0,0,0,319,512.23c2,5,3.79,8.78,5.11,11.29.35.66.67,1.22.95,1.7a8.36,8.36,0,0,0-1.46.41c-1,.36-1.51.74-1.49,1.14s.53.79,1.46,1.17,2.28.82,3.95,1.36a52.33,52.33,0,0,1,12.95,6.36,49.3,49.3,0,0,1,14.23,15.13A60.69,60.69,0,0,1,360,562a79.53,79.53,0,0,1,3.33,13.15A99.16,99.16,0,0,1,364.69,591a59.79,59.79,0,0,1-2.26,17.64,36.47,36.47,0,0,1-3.58,8.25,37,37,0,0,1-5.57,7.19A38.82,38.82,0,0,1,338,633.54,36.57,36.57,0,0,1,321.53,635,42.6,42.6,0,0,1,308.19,631a52.27,52.27,0,0,1-7.22-4.34c2.56-2.41,5.06-5,7.41-7l.93-.8.92-.73c.31-.27.55-.39.82-.59a6,6,0,0,1,.79-.52,26.72,26.72,0,0,1,3.09-1.63,29.34,29.34,0,0,1,5.44-1.81,21.06,21.06,0,0,1,4.3-.53c.29,0,.64,0,.92,0s.58,0,.88.06c.55.07,1.1.16,1.64.2a3.82,3.82,0,0,0,2.63-.22c.67-.42,1-1.3.73-2.74a7.83,7.83,0,0,0-1.06-2.31,12.05,12.05,0,0,0-1-1.24,9,9,0,0,0-1.38-1.18,15,15,0,0,0-8.13-2.63,21.49,21.49,0,0,0-9.62,1.88,24.86,24.86,0,0,0-5,3,14.85,14.85,0,0,0-1.27,1c-.4.37-.88.77-1.21,1.14l-1.08,1.14-1,1.18A75.94,75.94,0,0,0,294.1,622c-.18.31-.37.62-.54.92a4,4,0,0,0-.6-.36,5.79,5.79,0,0,0-4,0,6.8,6.8,0,0,0-.82.49c-.17-.29-.34-.6-.51-.9a75.67,75.67,0,0,0-6.46-9.82l-1-1.19L279.08,610c-.33-.37-.81-.77-1.2-1.14a13.61,13.61,0,0,0-1.26-1.06,24.89,24.89,0,0,0-5-3,21.49,21.49,0,0,0-9.62-1.88,15,15,0,0,0-8.13,2.63,9,9,0,0,0-1.38,1.18,12.05,12.05,0,0,0-1,1.24,7.83,7.83,0,0,0-1.06,2.31c-.24,1.44.06,2.32.73,2.74a3.82,3.82,0,0,0,2.63.22c.54,0,1.09-.13,1.64-.2.3,0,.6,0,.88-.06s.63,0,.92,0a21.06,21.06,0,0,1,4.3.53,29.34,29.34,0,0,1,5.44,1.81,24.61,24.61,0,0,1,3.08,1.64,8.23,8.23,0,0,1,.78.53c.26.21.51.33.81.6l.9.74.92.81c2.42,2.17,5,4.92,7.62,7.45a51.88,51.88,0,0,1-7.16,4.24,43.05,43.05,0,0,1-13.49,4,36.93,36.93,0,0,1-16.6-1.59,38.93,38.93,0,0,1-15.31-9.57,36.5,36.5,0,0,1-9.13-15.54,60.22,60.22,0,0,1-2.2-17.66,100.19,100.19,0,0,1,1.37-15.83A79.53,79.53,0,0,1,221.89,562a60.69,60.69,0,0,1,5.28-11.24,49.3,49.3,0,0,1,14.23-15.13,52.33,52.33,0,0,1,12.95-6.36c1.67-.54,3-1,4-1.36s1.45-.77,1.46-1.17-.48-.78-1.49-1.14a8.36,8.36,0,0,0-1.46-.41c.28-.48.6-1,.95-1.7,1.32-2.51,3.1-6.28,5.11-11.29A145.8,145.8,0,0,0,269,493.47c.23-1,.47-1.91.71-2.89s.41-2,.61-3c.46-2,.71-4.19,1.07-6.39a88.12,88.12,0,0,0,.65-14.22,72.92,72.92,0,0,0-2.48-15.72,74.81,74.81,0,0,0-6.72-15.88c-1.43-2.59-3-5.13-4.73-7.63s-3.52-5-5.56-7.38-4.12-4.76-6.29-7.14-4.58-4.58-7.11-6.7a113.65,113.65,0,0,0-21.31-14.78Zm16.77-264.27c7,1.78,23.3,2.54,42.25,1.72,10.27-.44,25.14-1.47,39.15-2.74,6.74.08,15.43.21,25.67.78l9.93.69c3.45.28,7,.73,10.72,1.09s7.51,1,11.43,1.51c2,.3,4,.5,6,.88l6.09,1.11a339.46,339.46,0,0,1,52.41,14A313,313,0,0,1,502,177.29a171,171,0,0,1,15.87,11.3A101.83,101.83,0,0,1,531.71,202a68.15,68.15,0,0,1,10.13,15.75,82.87,82.87,0,0,1,5.48,17.69c1.25,6.06,2.15,12.2,3.11,18.15s1.88,11.66,2.76,17.11c1.79,10.9,3.44,20.71,4.9,28.93,1.93,10.86,3.51,19,4.6,23.17-1.17,4.8-2.49,9.92-3.94,15.29-2.34,8.53-4.85,17.66-7.44,27.06-5.25,18.88-10,39.13-13.54,57.7A529.8,529.8,0,0,0,530,477.41a.13.13,0,0,0,0,.06,10.91,10.91,0,0,0-.21,2.91v0c-.42,6.45-.34,10.21.19,10.27s1.85-4.66,3.62-12.71c.35-.51.72-1.08,1.11-1.7,1.1-1.76,2.36-3.94,3.75-6.51q1-1.92,2.19-4.13a34,34,0,0,1,2.29-4.06,3.85,3.85,0,0,1,2.32-1.7,4.45,4.45,0,0,1,1.51-.12,7.34,7.34,0,0,1,1.92.37,13.88,13.88,0,0,1,4.27,2.22c.34.25.66.53,1,.81s.69.69,1,1,.72.68,1.06,1.06l1,1.17a33.28,33.28,0,0,1,3.49,5.23,44.06,44.06,0,0,1,2.63,6.25,60.66,60.66,0,0,1,1.87,7c.46,2.47.88,5,1.15,7.61a170.47,170.47,0,0,1,.81,18.06,148.28,148.28,0,0,1-1.12,20.83A75.09,75.09,0,0,1,560.06,552a185.75,185.75,0,0,1-10.26,19.4c-3.68,6.28-7,12.14-10.67,16.75a43.88,43.88,0,0,1-5.69,6,33.28,33.28,0,0,1-5.88,4,27.91,27.91,0,0,1-5.76,2.27c1.89-8.93,3.6-17.22,5.24-24.72a129.67,129.67,0,0,1,5.1-18.62,66.35,66.35,0,0,1,3.13-7.09,45.21,45.21,0,0,1,3.43-5.47c4.64-6.24,8.9-8.26,8.47-9.12-.15-.34-1.36-.24-3.52.55a26.31,26.31,0,0,0-8.3,5.61,39.68,39.68,0,0,0-4.74,5.54,59.32,59.32,0,0,0-4.36,7.39,111.86,111.86,0,0,0-7.09,19.2c-2.44,8.3-4.89,17.57-7.49,27.59-1.86,7.14-3.79,14.67-5.84,22.48-2.45,9.38-5.2,19.13-8.3,29.13a309.13,309.13,0,0,1-11,30.26,200.31,200.31,0,0,1-17.23,32.4c-7.19,11.2-16.8,22-27.14,33s-21.48,22.24-31.26,34.62-18.51,24.88-27.47,36.22c-2.8,3.56-5.63,7-8.48,10.28-2.35,2.69-4.71,5.28-7.11,7.73.13,1.23.26,2.48.41,3.76.19,1.63.39,3.31.61,5,1.17,9,2.82,19.25,4.86,30.32,1.21,6.58,2.56,13.46,4,20.56L380,907.92l.6,2.75.3,1.38a2.62,2.62,0,0,1,.07.38l0,.25.21,1.62c-.1.2-.39.34-.57.5a6.37,6.37,0,0,1-.62.44l-.61.38-.33.2-.47.31-.95.63c-.61.43-1.28.82-2,1.21l-2,1.17c-1.44.71-2.81,1.49-4.3,2.15a133.08,133.08,0,0,1-18.88,6.88,272.92,272.92,0,0,1-40.67,8A378.34,378.34,0,0,1,270.67,939c-3.06.06-6.06.06-8.94,0q-2.18,0-4.23-.15c-.7,0-1.35-.07-2-.11l-1-.07-.23,0-.14,0-.28,0a22.83,22.83,0,0,1-5.39-1.51,50.65,50.65,0,0,1-5.91-2.85,98.83,98.83,0,0,1-12-8.07c-3.91-3-7.66-6.22-11.23-9.51s-7-6.7-10.13-10.11a126.25,126.25,0,0,1-8.57-10.22c-.62-.83-1.18-1.65-1.72-2.45l-.38-.59c-.08-.13-.2-.31-.25-.37s-.09-.07-.13-.1a1.16,1.16,0,0,1-.4-.7c0-.07,0-.11.07-.17a.3.3,0,0,0,0-.1v0a0,0,0,0,0,0,0,.69.69,0,0,1,0-.13l.17-.34a6.83,6.83,0,0,0,.29-.64c.17-.39.36-.83.48-1.19.3-.76.52-1.45.74-2.14a64.69,64.69,0,0,0,1.69-7.35c.8-4.57,1.26-8.8,1.64-12.86s.6-7.91.76-11.58c.28-6.43.36-12.3.3-17.56-.05-4.41-.2-8.38-.42-11.89-1.76-2.13-3.52-4.3-5.26-6.53q-1.46-1.85-2.91-3.75c-7.93-10.36-15.78-21.58-24.49-32.53-9.76-12.39-20.89-23.67-31.2-34.67s-19.92-21.82-27.1-33A202.19,202.19,0,0,1,95.37,683.2a309.13,309.13,0,0,1-11-30.26c-3.1-10-5.85-19.75-8.3-29.13-2-7.62-3.89-15-5.7-22-2.65-10.21-5.15-19.67-7.63-28.11a111.86,111.86,0,0,0-7.09-19.2,59.32,59.32,0,0,0-4.36-7.39,39.68,39.68,0,0,0-4.74-5.54,26.31,26.31,0,0,0-8.3-5.61c-2.16-.79-3.37-.89-3.52-.55-.43.86,3.83,2.88,8.47,9.12A45.21,45.21,0,0,1,46.63,550a66.35,66.35,0,0,1,3.13,7.09,129.67,129.67,0,0,1,5.1,18.62c1.67,7.64,3.41,16.1,5.35,25.22a28.88,28.88,0,0,1-6-2.39,33.35,33.35,0,0,1-6-4.09,44.23,44.23,0,0,1-5.7-6.09c-3.69-4.66-7-10.54-10.63-16.84A188.09,188.09,0,0,1,21.7,552.1,75.21,75.21,0,0,1,16,531.4a151.35,151.35,0,0,1-1.06-20.84,172.75,172.75,0,0,1,.83-18.06c.27-2.62.69-5.14,1.15-7.61a60.66,60.66,0,0,1,1.87-7,44.06,44.06,0,0,1,2.63-6.25,33.28,33.28,0,0,1,3.49-5.23l1-1.17c.34-.38.71-.71,1.06-1.06s.7-.73,1-1,.64-.56,1-.81a13.88,13.88,0,0,1,4.27-2.22,7.34,7.34,0,0,1,1.92-.37,4.45,4.45,0,0,1,1.51.12,3.85,3.85,0,0,1,2.32,1.7,34,34,0,0,1,2.29,4.06q1.14,2.21,2.19,4.13c1.39,2.57,2.65,4.75,3.75,6.51l.42.65c1.88,8.72,3.12,13.91,3.81,13.82.51-.06.62-3.51.27-9.47h0c.73-.31.56-2.69-.37-6.71l-.18-.76v0c-1.09-12.46-3.42-30.69-7.23-50.89C40.45,404.3,35.72,384,30.51,365.15c-2.56-9.4-5.06-18.54-7.38-27.07-1.54-5.75-2.94-11.22-4.17-16.31,1.08-4.41,2.6-12.12,4.43-22.22,1.48-8.22,3.16-18,5-28.91.89-5.46,1.83-11.18,2.81-17.11s1.88-12.08,3.15-18.16a82.91,82.91,0,0,1,5.55-17.72,68.32,68.32,0,0,1,10.19-15.77A101,101,0,0,1,64,188.5a171.11,171.11,0,0,1,15.9-11.27,315.12,315.12,0,0,1,62.7-30.36,339.46,339.46,0,0,1,52.41-14l6.09-1.11c2-.38,4-.58,6-.88,3.92-.53,7.72-1.2,11.43-1.51s7.27-.81,10.72-1.09Z"/><path d="M285.21,746.39c6-.19,13.55-.31,21.67-.75a180,180,0,0,0,29.42-3.84,128.7,128.7,0,0,0,13.35-3.87c2-.78,4-1.46,5.87-2.27.93-.4,1.84-.75,2.71-1.14l2.51-1.15A159.53,159.53,0,0,0,391.93,714c3.76-2.88,6.78-5.33,9-6.95a40.49,40.49,0,0,1,2.16,4.68l.12.32c-.44.73-.94,1.51-1.48,2.34s-1.22,1.7-1.91,2.63-1.44,1.89-2.29,2.85a84.82,84.82,0,0,1-13.06,12.4,98.15,98.15,0,0,1-18.92,11.5l-2.79,1.25c-1,.43-2,.8-3,1.22-2.05.85-4.27,1.56-6.56,2.34a115,115,0,0,1-14.86,3.58,147.88,147.88,0,0,1-31.45,1.58c-3.8-.2-7.43-.49-10.83-.84a18.33,18.33,0,0,1,4-1.54c6.35-1.08,10.22-2.11,10.17-2.9s-4.05-1.27-10.46-1.57C295.78,746.72,290.78,746.6,285.21,746.39Z"/><path d="M245.58,741.88a182.6,182.6,0,0,0,29.44,4c3.53.22,7,.38,10.19.5l-3.11.11c-6.4.25-10.4.69-10.45,1.49s3.82,1.85,10.16,3a48.48,48.48,0,0,1,6.3,2c-4,.43-8.47.79-13.14,1a149.53,149.53,0,0,1-31.46-1.75,118.29,118.29,0,0,1-14.86-3.64c-2.28-.79-4.5-1.5-6.55-2.36-1-.41-2-.79-3-1.21l-2.79-1.26a98.15,98.15,0,0,1-18.92-11.5,84.82,84.82,0,0,1-13.06-12.4c-.85-1-1.59-1.93-2.29-2.85s-1.34-1.79-1.91-2.63-1.08-1.68-1.54-2.43c0-.09.07-.17.1-.25a42.83,42.83,0,0,1,2.24-4.66c2.26,1.62,5.28,4.07,9,6.95a159.53,159.53,0,0,0,31.19,19.34l2.51,1.15c.87.39,1.78.75,2.71,1.14,1.83.81,3.82,1.5,5.87,2.29A132.41,132.41,0,0,0,245.58,741.88Z"/><path d="M292.41,752.52l3.69.41a13,13,0,0,1-3.65,1.16,20.72,20.72,0,0,1-4.34-1.07C289.6,752.86,291,752.69,292.41,752.52Z"/><path d="M292.41,752.52c-1.37.17-2.81.34-4.3.5a48.48,48.48,0,0,0-6.3-2C284.84,751.5,288.41,752,292.41,752.52Z"/><path d="M292.41,752.52c2.85-.36,5.44-.75,7.71-1.13a18.33,18.33,0,0,0-4,1.54Z"/><path d="M579.66,242a153.33,153.33,0,0,1,2.07,34.1,234,234,0,0,1-5.93,41.16c-1.62,7.15-3.72,15.21-6.19,23.78s-5.26,17.67-8.12,27c-5.77,18.59-11.29,38.29-15.78,56.49-2.6,10.39-4.86,20.26-6.81,29.05-.22.19-.43.38-.63.58a13.27,13.27,0,0,0-2.31,3.24,34.48,34.48,0,0,0-2.05,5.4c-.49,1.58-.95,3.07-1.37,4.47-.82,2.8-1.48,5.23-1.94,7.25-.25,1.07-.44,2-.57,2.86a529.8,529.8,0,0,1,7.74-54.58c3.5-18.57,8.29-38.82,13.54-57.7,2.59-9.4,5.1-18.53,7.44-27.06,1.45-5.37,2.77-10.49,3.94-15.29.55,2.17,1,3.31,1.24,3.27.44-.06.44-3.22.09-8.83.2-.84.39-1.66.57-2.47a303.29,303.29,0,0,0,6.57-39.33,201,201,0,0,0,.43-32.35c-.16-2.25-.36-4.38-.58-6.41a8,8,0,0,0,2.51.74,3.32,3.32,0,0,0,2.42-.58,4,4,0,0,0,1.36-2.1,9.49,9.49,0,0,0,.33-1.73C578.37,235.75,579.06,238.78,579.66,242Z"/><path d="M577.59,491.25a151.91,151.91,0,0,1,.65,19.39A143.81,143.81,0,0,1,576.32,533a84,84,0,0,1-2.93,11.77,82.35,82.35,0,0,1-4.69,11.26,169.17,169.17,0,0,1-12,19.7c-4.09,6-8.08,11.88-12.72,16.66a45.66,45.66,0,0,1-7.21,6.14,33.94,33.94,0,0,1-7.41,3.74,25.46,25.46,0,0,1-8.26,1.53c.25-1.13.48-2.25.72-3.36a27.91,27.91,0,0,0,5.76-2.27,33.28,33.28,0,0,0,5.88-4,43.88,43.88,0,0,0,5.69-6c3.68-4.61,7-10.47,10.67-16.75A185.75,185.75,0,0,0,560.06,552a75.09,75.09,0,0,0,5.79-20.64A148.28,148.28,0,0,0,567,510.56a170.47,170.47,0,0,0-.81-18.06c-.27-2.62-.69-5.14-1.15-7.61a60.66,60.66,0,0,0-1.87-7,44.06,44.06,0,0,0-2.63-6.25,33.28,33.28,0,0,0-3.49-5.23l-1-1.17c-.34-.38-.71-.71-1.06-1.06s-.7-.73-1-1-.64-.56-1-.81a13.88,13.88,0,0,0-4.27-2.22,7.34,7.34,0,0,0-1.92-.37,4.45,4.45,0,0,0-1.51.12,3.85,3.85,0,0,0-2.32,1.7,34,34,0,0,0-2.29,4.06q-1.14,2.21-2.19,4.13c-1.39,2.57-2.65,4.75-3.75,6.51-.39.62-.76,1.19-1.11,1.7,1.4-6.32,3.15-14.69,5.28-24.36a11.55,11.55,0,0,1,3.11-2,13,13,0,0,1,4.44-1.08,16.57,16.57,0,0,1,4.36.27,22.42,22.42,0,0,1,7.83,3.16c.61.38,1.21.8,1.8,1.25s1,.87,1.56,1.32,1,.89,1.54,1.37l1.44,1.51a41.45,41.45,0,0,1,5.1,6.83,50.88,50.88,0,0,1,3.68,7.87,64,64,0,0,1,2.45,8.42C576.79,485.41,577.29,488.32,577.59,491.25Z"/><path d="M577.4,222.25c.19,3.66.41,6.75.34,9.23,0,.54-.06,1-.11,1.51a85.29,85.29,0,0,0-4.53-13,33.54,33.54,0,0,0-3-5.53c-.82-1.2-1.43-1.75-1.8-1.61s-.49,1-.38,2.4.49,3.45.89,6c.66,3.91,1.53,9.1,2.19,15.37-.29-.14-.59-.3-.89-.48a24.71,24.71,0,0,1-8-8.49,53.08,53.08,0,0,1-6.13-15.38,114.56,114.56,0,0,1-2.7-18.36c-.52-6.23-.74-13.82-1.92-21a55.32,55.32,0,0,0-2.66-10.39,44.78,44.78,0,0,0-4.88-9.39,62.2,62.2,0,0,0-12.21-13.1,6.62,6.62,0,0,0,2.79-1.76,12.92,12.92,0,0,0,2-2.88,18.79,18.79,0,0,0,1.33-3.37,43.17,43.17,0,0,1,6.79,2.61,49.27,49.27,0,0,1,11.16,7.42,51.87,51.87,0,0,1,9.84,11.57,61,61,0,0,1,6.33,14.06,93.67,93.67,0,0,1,3,13.37c.63,4.13,1,7.86,1.27,11.06.5,6.4.59,12.15.74,17.16S577.19,218.59,577.4,222.25Z"/><path d="M577.63,233a9.49,9.49,0,0,1-.33,1.73,4,4,0,0,1-1.36,2.1,3.32,3.32,0,0,1-2.42.58,8,8,0,0,1-2.51-.74c-.66-6.27-1.53-11.46-2.19-15.37-.4-2.6-.77-4.62-.89-6s0-2.25.38-2.4,1,.41,1.8,1.61a33.54,33.54,0,0,1,3,5.53A85.29,85.29,0,0,1,577.63,233Z"/><path d="M571.59,243.07a201,201,0,0,1-.43,32.35,303.29,303.29,0,0,1-6.57,39.33c-.18.81-.37,1.63-.57,2.47-.28-4.57-.79-10.76-1.49-18.22-.78-8.31-1.79-18.21-3-29.19-.6-5.49-1.23-11.25-1.88-17.23s-1.3-12.19-2.37-18.66A89,89,0,0,0,550,214.2a76.27,76.27,0,0,0-10.9-18.27,108.57,108.57,0,0,0-14.8-15.12,174.15,174.15,0,0,0-16.54-12.39A296.84,296.84,0,0,0,443.14,136a290.74,290.74,0,0,0-54.53-13.6l-6.34-.91c-2.08-.31-4.16-.44-6.19-.66-4.08-.36-8-.86-11.86-1s-7.54-.4-11.1-.45h-.76c-12.24-2-53.58-2.27-74.92-1.36-9.36.41-18.05,1.14-25.27,2.06-1.25-.07-2.54-.14-3.87-.23l-4.52-.26c-1.55-.1-3.14-.18-4.77-.17l-10.23,0c-3.56,0-7.26.29-11.1.45s-7.78.61-11.86,1c-2,.22-4.11.35-6.19.66l-6.34.91A290.74,290.74,0,0,0,138.76,136a298.65,298.65,0,0,0-64.65,32.33,175.31,175.31,0,0,0-16.56,12.36A108.28,108.28,0,0,0,42.7,195.83a76.46,76.46,0,0,0-11,18.29,89.5,89.5,0,0,0-5.39,19.75c-1.08,6.48-1.72,12.71-2.41,18.67S22.61,264.28,22,269.76c-1.21,11-2.25,20.87-3.05,29.18-.64,6.66-1.13,12.31-1.44,16.69-.07-.3-.13-.59-.2-.88a303.29,303.29,0,0,1-6.57-39.33,201,201,0,0,1-.43-32.35c.16-2.25.36-4.38.58-6.41.29-.14.59-.3.89-.48a24.71,24.71,0,0,0,8-8.49A53.08,53.08,0,0,0,26,212.31,114.56,114.56,0,0,0,28.66,194c.51-6.23.8-13.82,2.07-21a54.62,54.62,0,0,1,2.79-10.29,44.33,44.33,0,0,1,5-9.19,62.14,62.14,0,0,1,12.87-13.23l0,0a2.43,2.43,0,0,0,.66,0h.16c3.2-.42,5.52-3.7,8-7.65s4.86-8.82,7.76-13.8c.74-1.23,1.57-2.65,2.58-4.09A40.11,40.11,0,0,1,74,110.25a47.22,47.22,0,0,1,4.47-4.33,53,53,0,0,1,5.18-3.81c1.42-.94,2.87-1.77,4.27-2.53,0,1,.14,1.86.25,2.72.92,6.68,3.22,10.8,6.26,11.4l.14,0c3.16.5,6.53-3,9.61-8.55s6-12.84,9.39-19.33a44.47,44.47,0,0,1,7.28-10.45,25.94,25.94,0,0,1,5.2-4.22c.48-.27,1-.58,1.44-.8a12.15,12.15,0,0,1,1.5-.71,23.22,23.22,0,0,1,3.3-1.1,37.59,37.59,0,0,1,5.21-.92c.13.82.3,1.58.48,2.28a12.77,12.77,0,0,0,1.49,3.25,5.51,5.51,0,0,0,4.27,2.68h.05a7.53,7.53,0,0,0,4.57-1.67,18.13,18.13,0,0,0,2.25-1.84c.81-.67,1.49-1.42,2.31-2.2,3.06-3.14,6.45-6.79,10.28-10.3a42.22,42.22,0,0,1,3.32-2.78,27.58,27.58,0,0,1,4.25-2.67A33.27,33.27,0,0,1,176,52.26,38.55,38.55,0,0,1,181.85,51a51.94,51.94,0,0,1,8.46-.41c.12.82.28,1.59.44,2.3a14.23,14.23,0,0,0,1.37,3.38c1.13,1.87,2.51,2.9,4.09,3.08h.15c3.16.26,6.17-2.67,9.42-6.57s6.78-9.06,10.74-13.56c.47-.59,1-1.13,1.59-1.77s1.17-1.22,1.85-1.79,1.37-1.18,2.08-1.79c.36-.24.71-.5,1.06-.78s.77-.48,1.16-.75a27.59,27.59,0,0,1,5.41-2.56,33,33,0,0,1,6.1-1.36,31.26,31.26,0,0,1,7.49,0,13.12,13.12,0,0,0-.33,2.91,12.56,12.56,0,0,0,.34,2.91,9,9,0,0,0,1,2.42,7.15,7.15,0,0,0,3.57,3l.21.07a10.82,10.82,0,0,0,4.4.59,15.5,15.5,0,0,0,2.27-.31,16.06,16.06,0,0,0,2.25-.54,20.23,20.23,0,0,0,7.81-4.29c1.18-1,2.53-2.47,4.18-4s3.22-2.9,5-4.33c1.95-1,4-1.89,6.13-2.73.72-.29,1.5-.54,2.31-.85s1.68-.55,2.58-.75a29.16,29.16,0,0,1,5.87-1,35.93,35.93,0,0,1,6.67.22,40.7,40.7,0,0,1,6.81,1.55l.21.07c1,.85,2.05,1.7,3.08,2.62,1.9,1.67,3.73,3.41,5.33,5s2.92,3.13,4.1,4.11a20.23,20.23,0,0,0,7.81,4.29,16.06,16.06,0,0,0,2.25.54,15.5,15.5,0,0,0,2.27.31,10.82,10.82,0,0,0,4.4-.59l.21-.07a7.15,7.15,0,0,0,3.57-3,9,9,0,0,0,1.05-2.42,12.56,12.56,0,0,0,.34-2.91,13.52,13.52,0,0,0-.48-3.57,31.34,31.34,0,0,1,7.58.17,34,34,0,0,1,6.21,1.55,28.41,28.41,0,0,1,5.43,2.73c.38.28.8.49,1.15.78s.7.56,1.05.81c.7.63,1.43,1.19,2.06,1.84s1.23,1.25,1.83,1.82,1.11,1.18,1.58,1.77c4,4.5,7.5,9.54,10.74,13.56s6.26,6.83,9.42,6.57h.15c1.58-.18,3-1.21,4.09-3.08a14.23,14.23,0,0,0,1.37-3.38,26,26,0,0,0,.53-3,48.79,48.79,0,0,1,8.31.62,39.28,39.28,0,0,1,5.94,1.44,33.9,33.9,0,0,1,5.27,2.31A28.59,28.59,0,0,1,415.42,57c1.26.94,2.33,1.94,3.3,2.81,3.83,3.51,7.22,7.16,10.28,10.3.82.78,1.5,1.53,2.31,2.2a18.13,18.13,0,0,0,2.25,1.84,7.53,7.53,0,0,0,4.57,1.67h.05a5.51,5.51,0,0,0,4.27-2.68,12.77,12.77,0,0,0,1.49-3.25,21.64,21.64,0,0,0,.56-2.88,36.65,36.65,0,0,1,5.15,1,25.56,25.56,0,0,1,3.36,1.2,15.39,15.39,0,0,1,1.52.76c.5.24,1,.57,1.45.85a26.74,26.74,0,0,1,5.19,4.4,47.58,47.58,0,0,1,7.18,10.57c3.39,6.49,6.28,13.82,9.39,19.33s6.45,9,9.61,8.55l.14,0c3-.6,5.34-4.72,6.26-11.4.14-1.07.24-2.21.29-3.41,1.45.83,2.94,1.74,4.4,2.75a55.28,55.28,0,0,1,5.17,4,49,49,0,0,1,4.41,4.5,42,42,0,0,1,3.4,4.52c1,1.45,1.81,2.88,2.55,4.11,2.9,5,5.39,9.78,7.76,13.8s4.66,7.09,7.76,7.61l.2,0h.16a4.22,4.22,0,0,0,1.72-.18,62.2,62.2,0,0,1,12.21,13.1,44.78,44.78,0,0,1,4.88,9.39,55.32,55.32,0,0,1,2.66,10.39c1.18,7.2,1.4,14.79,1.92,21a114.56,114.56,0,0,0,2.7,18.36,53.08,53.08,0,0,0,6.13,15.38,24.71,24.71,0,0,0,8,8.49c.3.18.6.34.89.48C571.23,238.69,571.43,240.82,571.59,243.07Z"/><path d="M564,317.22c.35,5.61.35,8.77-.09,8.83-.27,0-.69-1.1-1.24-3.27Q563.4,319.92,564,317.22Z"/><path d="M562.53,299c.7,7.46,1.21,13.65,1.49,18.22q-.63,2.7-1.33,5.56c-1.09-4.21-2.67-12.31-4.6-23.17-1.46-8.22-3.11-18-4.9-28.93-.88-5.45-1.8-11.18-2.76-17.11s-1.86-12.09-3.11-18.15a82.87,82.87,0,0,0-5.48-17.69A68.15,68.15,0,0,0,531.71,202a101.83,101.83,0,0,0-13.89-13.39A171,171,0,0,0,502,177.29a313,313,0,0,0-62.66-30.42,339.46,339.46,0,0,0-52.41-14l-6.09-1.11c-2-.38-4-.58-6-.88-3.92-.53-7.72-1.2-11.43-1.51s-7.27-.81-10.72-1.09l-9.93-.69c-10.24-.57-18.93-.7-25.67-.78,20.34-1.85,38.85-4.23,38.77-6.11,0-.49-1.28-.91-3.49-1.28h.76c3.56,0,7.26.29,11.1.45s7.78.61,11.86,1c2,.22,4.11.35,6.19.66l6.34.91A290.74,290.74,0,0,1,443.14,136a296.84,296.84,0,0,1,64.6,32.39,174.15,174.15,0,0,1,16.54,12.39,108.57,108.57,0,0,1,14.8,15.12A76.27,76.27,0,0,1,550,214.2a89,89,0,0,1,5.33,19.72c1.07,6.47,1.69,12.7,2.37,18.66s1.28,11.74,1.88,17.23C560.74,280.79,561.75,290.69,562.53,299Z"/><path d="M547.17,535.45c.43.86-3.83,2.88-8.47,9.12a45.21,45.21,0,0,0-3.43,5.47,66.35,66.35,0,0,0-3.13,7.09,129.67,129.67,0,0,0-5.1,18.62c-1.64,7.5-3.35,15.79-5.24,24.72a24.1,24.1,0,0,1-4.13.77c-2.49.25-4,.18-4.06.6l-1.94-.51c2.6-10,5.05-19.29,7.49-27.59a111.86,111.86,0,0,1,7.09-19.2,59.32,59.32,0,0,1,4.36-7.39,39.68,39.68,0,0,1,4.74-5.54,26.31,26.31,0,0,1,8.3-5.61C545.81,535.21,547,535.11,547.17,535.45Z"/><path d="M538.27,454.19c.2-.2.41-.39.63-.58-2.13,9.67-3.88,18-5.28,24.36-1.62,2.38-2.78,3.56-3.38,3.3-.23-.09-.37-.38-.43-.86v0q.09-1.36.21-2.91a.13.13,0,0,1,0-.06c.13-.83.32-1.79.57-2.86.46-2,1.12-4.45,1.94-7.25.42-1.4.88-2.89,1.37-4.47a34.48,34.48,0,0,1,2.05-5.4A13.27,13.27,0,0,1,538.27,454.19Z"/><path d="M538.41,120.14a28.55,28.55,0,0,1-.47,11.16c-.06.25-.12.5-.2.74-1.18-.34-2.31-.6-3.38-.8l-.43-.07a32.31,32.31,0,0,0-.61-9.56,38.68,38.68,0,0,0-4.46-11.54,42.58,42.58,0,0,0-10.56-12,45.63,45.63,0,0,0-7.63-4.78,44.85,44.85,0,0,0-8.18-3,38.43,38.43,0,0,0-9.13-1.3c-.17-1-.38-2-.63-3a35.7,35.7,0,0,1,11.17.39,44.09,44.09,0,0,1,9.18,2.77A46.21,46.21,0,0,1,521.76,94a42.92,42.92,0,0,1,7.15,6.45,41.52,41.52,0,0,1,4.91,6.71A36.53,36.53,0,0,1,538.41,120.14Z"/><path d="M537.74,132a18.79,18.79,0,0,1-1.33,3.37,12.92,12.92,0,0,1-2,2.88,6.62,6.62,0,0,1-2.79,1.76l-.52-.43a6.22,6.22,0,0,0,1.08-1.47,17.21,17.21,0,0,0,1.07-2.75,24,24,0,0,0,.69-3.78c0-.15,0-.3,0-.45l.43.07C535.43,131.44,536.56,131.7,537.74,132Z"/><path d="M533.32,121.61a32.31,32.31,0,0,1,.61,9.56c-3.92-.65-6.84-.42-8.4.24a73.39,73.39,0,0,0-6.6-15.54,47.41,47.41,0,0,0-3.15-4.76,39.34,39.34,0,0,0-4.35-5,46.56,46.56,0,0,0-5.5-4.56,47.93,47.93,0,0,0-6.17-3.64,48.43,48.43,0,0,0-5.71-2.42,44.77,44.77,0,0,0-.49-5.32c-.06-.4-.13-.81-.2-1.22a38.43,38.43,0,0,1,9.13,1.3,44.85,44.85,0,0,1,8.18,3,45.63,45.63,0,0,1,7.63,4.78,42.58,42.58,0,0,1,10.56,12A38.68,38.68,0,0,1,533.32,121.61Z"/><path d="M533.93,131.17c0,.15,0,.3,0,.45a24,24,0,0,1-.69,3.78,17.21,17.21,0,0,1-1.07,2.75,6.22,6.22,0,0,1-1.08,1.47l-.18-.14c-1.4-1.13-2.68-2.12-3.73-3-.42-1.2-.85-2.64-1.36-4.24-.08-.28-.17-.56-.25-.84C527.09,130.75,530,130.52,533.93,131.17Z"/><path d="M531.05,139.62l.52.43a4.22,4.22,0,0,1-1.72.18A1.76,1.76,0,0,0,531.05,139.62Z"/><path d="M530.87,139.48l.18.14a1.76,1.76,0,0,1-1.2.61h-.16l-.2,0c-1-.28-1.63-1.63-2.35-3.69C528.19,137.36,529.47,138.35,530.87,139.48Z"/><path d="M530.24,481.27c.6.26,1.76-.92,3.38-3.3-1.77,8-3,12.79-3.62,12.71s-.61-3.82-.19-10.27C529.87,480.89,530,481.18,530.24,481.27Z"/><path d="M530,477.47q-.12,1.54-.21,2.91A10.91,10.91,0,0,1,530,477.47Z"/><path d="M527.14,136.49c.72,2.06,1.4,3.41,2.35,3.69-3.1-.52-5.37-3.74-7.76-7.61s-4.86-8.82-7.76-13.8c-.74-1.23-1.55-2.66-2.55-4.11a42,42,0,0,0-3.4-4.52,49,49,0,0,0-4.41-4.5,55.28,55.28,0,0,0-5.17-4c-1.46-1-2.95-1.92-4.4-2.75,0-1.08,0-2.21,0-3.38a48.43,48.43,0,0,1,5.71,2.42,47.93,47.93,0,0,1,6.17,3.64,46.56,46.56,0,0,1,5.5,4.56,39.34,39.34,0,0,1,4.35,5,47.41,47.41,0,0,1,3.15,4.76,73.39,73.39,0,0,1,6.6,15.54c-.73.32-1.17.73-1.26,1.19C524.05,133.64,525.21,134.87,527.14,136.49Z"/><path d="M525.78,132.25c.51,1.6.94,3,1.36,4.24-1.93-1.62-3.09-2.85-2.87-3.89.09-.46.53-.87,1.26-1.19C525.61,131.69,525.7,132,525.78,132.25Z"/><path d="M523.62,461.66a99.8,99.8,0,0,1,.64,31.47,96.07,96.07,0,0,1-9.17,29.74,98.8,98.8,0,0,1-40.18,42,123.85,123.85,0,0,1-24.45,9.84c-16,4.79-31,6.82-43.67,6.32-1.58-.09-3.12-.12-4.62-.27l-4.36-.47c-2.81-.47-5.46-.85-7.89-1.51a67.82,67.82,0,0,1-12.13-4.12c-1.17-.55-2.21-1.11-3.15-1.61-.12-.72-.26-1.45-.4-2.16l.17.06c1.24.43,2.63,1,4.23,1.55a79.91,79.91,0,0,0,12,2.93c2.35.46,4.92.65,7.62.92l4.19.2c1.43.06,2.91,0,4.42,0,12.08-.2,26.44-2.78,41.66-8a120.76,120.76,0,0,0,22.79-10.07A91.87,91.87,0,0,0,507.1,519a87.86,87.86,0,0,0,7.7-27.09,90.91,90.91,0,0,0-1.11-28.37,87,87,0,0,0-9.79-26.22A94.7,94.7,0,0,0,466,400.7a102.75,102.75,0,0,0-44.46-11.48A106.48,106.48,0,0,0,382,395.77a111.44,111.44,0,0,0-32.43,18.8c-2.36,1.87-4.48,3.95-6.63,5.94s-4.09,4.14-5.9,6.34-3.55,4.39-5.28,6.55-3.15,4.48-4.52,6.75a62,62,0,0,0-9.33,27.37,86.78,86.78,0,0,0-.18,13c.33,4.12.74,8,1.4,11.67,1.23,7.3,2.82,13.57,4.14,18.69s2.41,9.13,3,11.89c.2.88.35,1.64.45,2.26a16.94,16.94,0,0,0-1.68.24c-.28-.48-.6-1-.95-1.7-1.32-2.51-3.1-6.28-5.11-11.29a145.8,145.8,0,0,1-6.17-18.76c-.23-1-.47-1.91-.71-2.89s-.41-2-.61-3c-.46-2-.71-4.19-1.07-6.39a88.12,88.12,0,0,1-.65-14.22,72.92,72.92,0,0,1,2.48-15.72A74.81,74.81,0,0,1,319,435.36c1.43-2.59,3-5.13,4.73-7.63s3.52-5,5.56-7.38,4.12-4.76,6.29-7.14,4.58-4.58,7.11-6.7a114.21,114.21,0,0,1,20.67-14.44c2.84-1.11,3.71-1.32,5.27-1.85l4.51-1.48c3-.93,6.09-1.79,9.15-2.68s6.16-1.59,9.25-2.3a252.3,252.3,0,0,1,36.9-5.56l.51,0a111.06,111.06,0,0,1,17,2.9,109.86,109.86,0,0,1,25.23,9.7,104.56,104.56,0,0,1,41.91,41.39A96.49,96.49,0,0,1,523.62,461.66Z"/><path d="M521.8,600.47c-.24,1.11-.47,2.23-.72,3.36a16.7,16.7,0,0,1-3.5-.27c-2.75-.52-4.07-1.38-4-1.72s1.57-.35,4.06-.6A24.1,24.1,0,0,0,521.8,600.47Z"/><path d="M517.58,603.56a16.7,16.7,0,0,0,3.5.27c-1.51,7.14-3.15,14.67-5,22.53-2.18,9.55-4.76,19.56-7.8,29.87a279.63,279.63,0,0,1-11.21,31.48,199.75,199.75,0,0,1-18.44,34.17c-7.87,11.93-18.19,23.13-28.85,34s-21.8,21.66-31.54,33.33-19,24-28.54,35.32c-4.11,4.86-8.3,9.51-12.59,13.84-.8-3.1-1.54-6-2.19-8.7,2.85-3.28,5.68-6.72,8.48-10.28,9-11.34,17.67-23.95,27.47-36.22s20.94-23.64,31.26-34.62,19.95-21.79,27.14-33a200.31,200.31,0,0,0,17.23-32.4,309.13,309.13,0,0,0,11-30.26c3.1-10,5.85-19.75,8.3-29.13,2.05-7.81,4-15.34,5.84-22.48l1.94.51C513.51,602.18,514.83,603,517.58,603.56Z"/><path class="cls-2" d="M513.69,463.55a90.91,90.91,0,0,1,1.11,28.37A87.86,87.86,0,0,1,507.1,519a91.87,91.87,0,0,1-35.82,39.48,120.76,120.76,0,0,1-22.79,10.07c-15.22,5.19-29.58,7.77-41.66,8-1.51,0-3,.05-4.42,0l-4.19-.2c-2.7-.27-5.27-.46-7.62-.92a79.91,79.91,0,0,1-12-2.93c-1.6-.55-3-1.12-4.23-1.55l-.17-.06a75.82,75.82,0,0,0-3.68-12.77,61.6,61.6,0,0,0-7-13.12,49.35,49.35,0,0,0-19.07-16.38,35.68,35.68,0,0,0-16.37-3.72c-.49,0-.94.06-1.37.11-.1-.62-.25-1.38-.45-2.26-.62-2.76-1.71-6.76-3-11.89s-2.91-11.39-4.14-18.69c-.66-3.64-1.07-7.55-1.4-11.67a86.78,86.78,0,0,1,.18-13,62,62,0,0,1,9.33-27.37c1.37-2.27,2.89-4.51,4.52-6.75s3.35-4.45,5.28-6.55,3.88-4.23,5.9-6.34,4.27-4.07,6.63-5.94A111.44,111.44,0,0,1,382,395.77a106.48,106.48,0,0,1,39.48-6.55A102.75,102.75,0,0,1,466,400.7a94.7,94.7,0,0,1,37.94,36.63A87,87,0,0,1,513.69,463.55Zm-76.24,4a23.5,23.5,0,1,0-23.5,23.5A23.5,23.5,0,0,0,437.45,467.59Z"/><path d="M511,390.51c.42,1.15.53,1.77.36,1.86-.38.21-1.25-1.41-3.56-3.52.06-.36.11-.79.16-1.28s0-1,0-1.66l.13.14c.38.45.76.85,1.06,1.27l.82,1.19A17.92,17.92,0,0,1,511,390.51Z"/><path d="M508,385.91c0,.62,0,1.17,0,1.66s-.1.92-.16,1.28c-.39-.36-.83-.74-1.31-1.12s-.78-.59-1.21-.89c-.49-1.32-1.12-3-2-4.84A25,25,0,0,1,508,385.91Z"/><path d="M507.87,384c.07.68.11,1.31.12,1.88a25,25,0,0,0-4.68-3.91c-.17-.37-.36-.76-.56-1.15a44.13,44.13,0,0,0-6.67-9.66,50.52,50.52,0,0,0-12-9.62,59,59,0,0,0-17.53-6.38,100.05,100.05,0,0,0-21.9-1.75,220.26,220.26,0,0,0-24.81,2,239.6,239.6,0,0,0-26.28,5.15c-4.45,1.14-9.16,2.48-14.08,4.07-1.23.39-2.46.82-3.72,1.24s-2.52.86-3.61,1.3a18.54,18.54,0,0,0-2.92,1.39,9,9,0,0,0-2.09,1.71,35.77,35.77,0,0,0-4.17,6.31l-2.27,3.9-.46.77,0,0-.08.09c-.11.14-.25.31-.42.54s0,.2.16.19l.16,0,.61-.18,1.3-.39,8.35-2.51c3.18-.89,6.4-1.69,9.6-2.52s6.46-1.46,9.7-2.09A244.06,244.06,0,0,1,428,370.08a235.71,235.71,0,0,1,35,1.44c5.34.58,10.37,1.44,15.06,2.26,4.67,1,9,1.74,13,2.92a50,50,0,0,1,10.37,4.14c.67.37,1.31.76,1.91,1.16.89,1.88,1.52,3.52,2,4.84a29.62,29.62,0,0,0-5.41-2.92,52.63,52.63,0,0,0-9.94-2.87c-3.78-.78-8.14-1.21-12.75-1.85-4.63-.48-9.57-1-14.8-1.28a255.63,255.63,0,0,0-33.45.24c-2.42-.22-4.81-.36-7.14-.44a114.66,114.66,0,0,0-43.78,7.51,123.69,123.69,0,0,0-14.67,6.84l-.38.15-16.17,6.21-8.49,3.29-2.13.82-.53.21-.26.1c-.07,0-.07,0,0,0l.07-.12.56-1,2.21-3.93,8.86-15.69,6.18-11a45.5,45.5,0,0,1,5.5-8.36,20.54,20.54,0,0,1,4.48-3.76,30.7,30.7,0,0,1,4.62-2.32c1.48-.6,2.81-1.06,4.12-1.52s2.61-.92,3.9-1.34c5.16-1.71,10.12-3.14,14.8-4.34a217.33,217.33,0,0,1,27.7-5.18,199.46,199.46,0,0,1,26.25-1.46,101.55,101.55,0,0,1,24.09,3.07,62.58,62.58,0,0,1,19.69,8.8,51.2,51.2,0,0,1,12.7,12.49,39.57,39.57,0,0,1,5.81,12.06c.22.89.47,1.72.61,2.52S507.77,383.33,507.87,384Z"/><path d="M507.84,388.85c-.18,1.08-.42,1.63-.72,1.64-.54,0-.94-1.31-1.8-3.65.43.3.84.6,1.21.89S507.45,388.49,507.84,388.85Z"/><path d="M502.75,380.85c.2.39.39.78.56,1.15-.6-.4-1.24-.79-1.91-1.16A50,50,0,0,0,491,376.7c-4-1.18-8.32-1.94-13-2.92-4.69-.82-9.72-1.68-15.06-2.26a235.71,235.71,0,0,0-35-1.44,244.06,244.06,0,0,0-38.45,4.36c-3.24.63-6.46,1.39-9.7,2.09s-6.42,1.63-9.6,2.52l-8.35,2.51-1.3.39-.61.18-.16,0c-.17,0-.48.17-.16-.19s.31-.4.42-.54l.08-.09,0,0,.46-.77,2.27-3.9a35.77,35.77,0,0,1,4.17-6.31,9,9,0,0,1,2.09-1.71,18.54,18.54,0,0,1,2.92-1.39c1.09-.44,2.35-.87,3.61-1.3s2.49-.85,3.72-1.24c4.92-1.59,9.63-2.93,14.08-4.07a239.6,239.6,0,0,1,26.28-5.15,220.26,220.26,0,0,1,24.81-2,100.05,100.05,0,0,1,21.9,1.75,59,59,0,0,1,17.53,6.38,50.52,50.52,0,0,1,12,9.62A44.13,44.13,0,0,1,502.75,380.85Z"/><path d="M494.05,95.51c0,1.17,0,2.3,0,3.38-1.69-1-3.32-1.81-4.79-2.59-.1-.78-.22-1.59-.37-2.41C490.42,94.31,492.18,94.83,494.05,95.51Z"/><path d="M494,98.89c-.05,1.2-.15,2.34-.29,3.41-.92,6.68-3.22,10.8-6.26,11.4,1.46-.46,2.33-4.4,2.26-10.68a61.45,61.45,0,0,0-.5-6.72C490.72,97.08,492.35,97.93,494,98.89Z"/><path d="M493.56,90.19a44.77,44.77,0,0,1,.49,5.32c-1.87-.68-3.63-1.2-5.17-1.62-.11-.74-.26-1.5-.42-2.28s-.33-1.51-.53-2.29l.54-.08a30.42,30.42,0,0,1,4.89-.27C493.43,89.38,493.5,89.79,493.56,90.19Z"/><path d="M493.36,89a30.42,30.42,0,0,0-4.89.27l-.54.08c-.17-.69-.36-1.4-.57-2.11.39-.14.8-.29,1.23-.42a24.47,24.47,0,0,1,4.14-.86C493,87,493.19,88,493.36,89Z"/><path d="M489.75,103c.07,6.28-.8,10.22-2.26,10.68l-.14,0c-1.59.25-3.53-3.42-5.61-9.27s-4.41-13.78-8.29-21.28a43.68,43.68,0,0,0-9-12,28.83,28.83,0,0,0-6.8-4.69c-.62-.28-1.24-.59-1.89-.81a16.36,16.36,0,0,0-1.93-.68,27.69,27.69,0,0,0-4-.88,39.19,39.19,0,0,0-5.24-.38,26.38,26.38,0,0,0-1.28-6.92A38.45,38.45,0,0,1,450.2,56a32.33,32.33,0,0,1,5.41.31,26.69,26.69,0,0,1,2.78.53,27.17,27.17,0,0,1,2.77.78,35.13,35.13,0,0,1,10,5.34,44.92,44.92,0,0,1,12.46,14.87,51.16,51.16,0,0,1,3.73,9.37c-3,1.16-4.55,2.69-4.43,4.06a.45.45,0,0,0,0,.16.28.28,0,0,0,0,.09.59.59,0,0,0,.09.24c.49,1.39,2.49,2.58,5.13,4l1.08.57A61.45,61.45,0,0,1,489.75,103Z"/><path d="M492.73,85.93a24.47,24.47,0,0,0-4.14.86c-.43.13-.84.28-1.23.42a51.16,51.16,0,0,0-3.73-9.37A44.92,44.92,0,0,0,471.17,63a35.13,35.13,0,0,0-10-5.34,27.17,27.17,0,0,0-2.77-.78,26.69,26.69,0,0,0-2.78-.53A32.33,32.33,0,0,0,450.2,56a38.45,38.45,0,0,0-6.89.83,25.57,25.57,0,0,0-.91-2.47c-.12-.29-.25-.59-.38-.88a36.93,36.93,0,0,1,8.37-1.66,33.79,33.79,0,0,1,6.11,0,35.22,35.22,0,0,1,6.42,1.25,38.46,38.46,0,0,1,11.61,5.71,46.54,46.54,0,0,1,18.2,27.1Z"/><path d="M489.25,96.3l-1.08-.57c-2.64-1.39-4.64-2.58-5.13-4,.41.69,2.4,1.19,5.22,1.95l.62.18C489,94.71,489.15,95.52,489.25,96.3Z"/><path d="M488.46,91.61c.16.78.31,1.54.42,2.28l-.62-.18c-2.82-.76-4.81-1.26-5.22-1.95a1.32,1.32,0,0,1-.08-.33c.07-.71,1.88-1.59,5-2.11C488.13,90.1,488.3,90.86,488.46,91.61Z"/><path d="M487.36,87.21c.21.71.4,1.42.57,2.11-3.09.52-4.9,1.4-5,2.11a.45.45,0,0,1,0-.16C482.81,89.9,484.37,88.37,487.36,87.21Z"/><path d="M481.74,104.46c2.08,5.85,4,9.52,5.61,9.27-3.16.5-6.53-3-9.61-8.55s-6-12.84-9.39-19.33a47.58,47.58,0,0,0-7.18-10.57,26.74,26.74,0,0,0-5.19-4.4c-.47-.28-1-.61-1.45-.85a15.39,15.39,0,0,0-1.52-.76,25.56,25.56,0,0,0-3.36-1.2,36.65,36.65,0,0,0-5.15-1,14.72,14.72,0,0,0,.1-1.51c0-.57,0-1.17,0-1.78a39.19,39.19,0,0,1,5.24.38,27.69,27.69,0,0,1,4,.88,16.36,16.36,0,0,1,1.93.68c.65.22,1.27.53,1.89.81a28.83,28.83,0,0,1,6.8,4.69,43.68,43.68,0,0,1,9,12C477.33,90.68,479.61,98.65,481.74,104.46Z"/><path d="M483,91.43a1.32,1.32,0,0,0,.08.33.59.59,0,0,1-.09-.24A.28.28,0,0,1,483,91.43Z"/><path d="M444.59,63.76c0,.61,0,1.21,0,1.78a14.72,14.72,0,0,1-.1,1.51c-1.29-.18-2.56-.3-3.8-.4a25.36,25.36,0,0,0-.46-2.77C441.63,63.79,443.09,63.74,444.59,63.76Z"/><path d="M444.59,63.76c-1.5,0-3,0-4.35.12a29.71,29.71,0,0,0-1.87-5.69c.75-.26,1.54-.5,2.37-.73s1.68-.44,2.57-.62A26.38,26.38,0,0,1,444.59,63.76Z"/><path d="M444.5,67.05a21.64,21.64,0,0,1-.56,2.88,12.77,12.77,0,0,1-1.49,3.25,5.51,5.51,0,0,1-4.27,2.68c.8,0,1.49-.85,2.05-2.43a15.5,15.5,0,0,0,.55-2.89,22,22,0,0,0-.08-3.85v0C441.94,66.75,443.21,66.87,444.5,67.05Z"/><path d="M442.4,54.37a25.57,25.57,0,0,1,.91,2.47c-.89.18-1.75.39-2.57.62s-1.62.47-2.37.73c-.17-.37-.34-.75-.53-1.13q-.39-.8-.84-1.59,1.49-.72,3.18-1.35c.59-.22,1.2-.44,1.84-.63C442.15,53.78,442.28,54.08,442.4,54.37Z"/><path d="M442,53.49c-.64.19-1.25.41-1.84.63q-1.69.63-3.18,1.35a34.11,34.11,0,0,0-6.64-8.35,34.59,34.59,0,0,0-6.06-4.45,34.16,34.16,0,0,0-8-3.43,37.68,37.68,0,0,0-8.94-1.45,38.12,38.12,0,0,0-8.71.71,32.92,32.92,0,0,0-7.49,2.42c-.22-1.08-.51-2.18-.86-3.31a32.81,32.81,0,0,1,7.89-3.27A38.5,38.5,0,0,1,407.85,33,39.83,39.83,0,0,1,418,34.18a37.41,37.41,0,0,1,9.25,3.69,36.87,36.87,0,0,1,7,5A33.8,33.8,0,0,1,442,53.49Z"/><path d="M440.7,66.69a22,22,0,0,1,.08,3.85,15.5,15.5,0,0,1-.55,2.89c-.56,1.58-1.25,2.4-2.05,2.43h-.05c-1.64,0-2.95-3-5.23-6.86-.55-1-1.16-2-1.84-3.11a42.68,42.68,0,0,0,4.53.44c1.53.09,3.27.18,5.11.32Z"/><path d="M440.24,63.88a25.36,25.36,0,0,1,.46,2.77c-1.84-.14-3.58-.23-5.11-.32a42.68,42.68,0,0,1-4.53-.44c-.2-.32-.41-.64-.63-1,1.15-.08,2.7-.3,4.56-.53C436.53,64.21,438.31,64,440.24,63.88Z"/><path d="M438.37,58.19a29.71,29.71,0,0,1,1.87,5.69c-1.93.13-3.71.33-5.25.51-1.86.23-3.41.45-4.56.53-.41-.63-.85-1.27-1.33-1.92a21,21,0,0,1,4.55-2.88A38.67,38.67,0,0,1,438.37,58.19Z"/><path d="M438.13,75.86a7.53,7.53,0,0,1-4.57-1.67,18.13,18.13,0,0,1-2.25-1.84c-.81-.67-1.49-1.42-2.31-2.2-3.06-3.14-6.45-6.79-10.28-10.3-1-.87-2-1.87-3.3-2.81a28.59,28.59,0,0,0-4.22-2.79,33.9,33.9,0,0,0-5.27-2.31A39.28,39.28,0,0,0,400,50.5a48.79,48.79,0,0,0-8.31-.62c.06-.47.09-1,.11-1.46s0-.78,0-1.18a39,39,0,0,1,7.74-.66,38,38,0,0,1,6.84.7,34.5,34.5,0,0,1,6.49,2,29.68,29.68,0,0,1,5.48,3,36.54,36.54,0,0,1,4.23,3.35,46.86,46.86,0,0,1,5.83,6.48,2.48,2.48,0,0,0-.38,2.25,1.09,1.09,0,0,0,.08.15.24.24,0,0,0,0,.08.39.39,0,0,0,.19.19,4.9,4.9,0,0,0,2.72,1.14C431.74,67,432.35,68,432.9,69,435.18,72.91,436.49,75.86,438.13,75.86Z"/><path d="M437.84,57.06c.19.38.36.76.53,1.13a38.67,38.67,0,0,0-4.72,1.93A21,21,0,0,0,429.1,63c-.21-.31-.43-.61-.67-.92a14.79,14.79,0,0,1,4.5-4.3A31.56,31.56,0,0,1,437,55.47Q437.45,56.27,437.84,57.06Z"/><path d="M437,55.47a31.56,31.56,0,0,0-4.07,2.31,14.79,14.79,0,0,0-4.5,4.3,46.86,46.86,0,0,0-5.83-6.48,36.54,36.54,0,0,0-4.23-3.35,29.68,29.68,0,0,0-5.48-3,34.5,34.5,0,0,0-6.49-2,38,38,0,0,0-6.84-.7,39,39,0,0,0-7.74.66,30.26,30.26,0,0,0-.66-6.32,32.92,32.92,0,0,1,7.49-2.42,38.12,38.12,0,0,1,8.71-.71,37.68,37.68,0,0,1,8.94,1.45,34.16,34.16,0,0,1,8,3.43,34.59,34.59,0,0,1,6.06,4.45A34.11,34.11,0,0,1,437,55.47Z"/><circle cx="413.95" cy="467.59" r="23.5"/><path d="M430.43,64.92c.22.33.43.65.63,1a4.9,4.9,0,0,1-2.72-1.14A4,4,0,0,0,430.43,64.92Z"/><path d="M430.43,64.92a4,4,0,0,1-2.09-.17,1.39,1.39,0,0,1-.21-.27c-.07-.32.26-.84,1-1.48C429.58,63.65,430,64.29,430.43,64.92Z"/><path d="M429,378.16l-.51,0a252.3,252.3,0,0,0-36.9,5.56c-3.09.71-6.16,1.54-9.25,2.3s-6.12,1.75-9.15,2.68l-4.51,1.48c-1.56.53-2.43.74-5.27,1.85a123.69,123.69,0,0,1,14.67-6.84,114.66,114.66,0,0,1,43.78-7.51C424.16,377.8,426.55,377.94,429,378.16Z"/><path d="M428.43,62.08c.24.31.46.61.67.92-.71.64-1,1.16-1,1.48a1.09,1.09,0,0,1-.08-.15A2.48,2.48,0,0,1,428.43,62.08Z"/><path d="M428.13,64.48a1.39,1.39,0,0,0,.21.27.39.39,0,0,1-.19-.19A.24.24,0,0,1,428.13,64.48Z"/><path d="M413.35,709a36.82,36.82,0,0,1,.35,9.66,33.47,33.47,0,0,1-1.49,7.46c-.66,1.87-1.41,3-2.2,3-1.62.07-3-4.54-4.41-9.73-.7-2.47-1.48-5-2.35-7.31.46-.77.87-1.49,1.19-2.15,1.25-2.62,1.62-4.27,1-4.76s-2.17.26-4.47,1.91c-.21-.39-.42-.77-.62-1.12-1.69-3-3.27-5.48-4.56-7.56s-2.32-3.89-1.82-5.43a2.68,2.68,0,0,1,2-1.61,7.07,7.07,0,0,1,1.92-.17,10.31,10.31,0,0,1,2.39.44,15.52,15.52,0,0,1,5.38,3,20.8,20.8,0,0,1,4.69,5.68A27.26,27.26,0,0,1,413.35,709Z"/><path d="M405.44,705.17c.62.49.25,2.14-1,4.76-.32.66-.73,1.38-1.19,2.15l-.12-.32a40.49,40.49,0,0,0-2.16-4.68C403.27,705.43,404.77,704.65,405.44,705.17Z"/><path d="M397.34,910.07q1.37,4.77,2.75,9.59c-.94,1.08-2.06,2.14-3.09,3.22l-1.59,1.61L393.73,926c-1.12,1-2.23,2.09-3.39,3.11l-2.57,2c-.81.64-1.63,1.19-2.46,1.74l-2.5,1.66c-1.7,1-3.39,2.07-5.12,3a142.37,142.37,0,0,1-21.25,9.17A266.91,266.91,0,0,1,313,957.26a349.46,349.46,0,0,1-41.61,4.32q-5,.21-9.87.2c-1.64,0-3.26,0-4.91-.08-.8,0-1.64-.07-2.47-.11l-1.24-.07-.32,0-.41,0-.82-.08a43.69,43.69,0,0,1-11.2-2.86,70,70,0,0,1-8.75-4.15,112.71,112.71,0,0,1-15-10.15A159.49,159.49,0,0,1,203.74,933q-5.91-5.79-11.06-11.89a127.68,127.68,0,0,1-9.58-12.77c-.73-1.13-1.44-2.31-2.14-3.52-.38-.69-.77-1.38-1.14-2.07-.55-1-1-2-1.46-3-1.75-4-2.62-8.21-1.46-12.14a11.67,11.67,0,0,1,1.11-2.47,14.86,14.86,0,0,1,.82-1.32l.5-.64a1.61,1.61,0,0,1,.71-.63c.25-.14.19-.12.21-.13l0,0a.26.26,0,0,0,.07-.11,2.94,2.94,0,0,0,.19-.33c.13-.26.28-.6.43-.94a50.05,50.05,0,0,0,1.69-5.14c1-3.71,1.9-7.57,2.69-11.3s1.5-7.38,2.17-10.87c2.08-11,3.82-20.44,5.42-27.83,3.61,4.24,7.28,8.33,11,12.16.06,5.26,0,11.13-.3,17.56-.16,3.67-.4,7.53-.76,11.58s-.84,8.29-1.64,12.86a64.69,64.69,0,0,1-1.69,7.35c-.22.69-.44,1.38-.74,2.14-.12.36-.31.8-.48,1.19a6.83,6.83,0,0,1-.29.64l-.17.34a.69.69,0,0,0,0,.13,0,0,0,0,1,0,0v0a.3.3,0,0,1,0,.1c0,.06-.07.1-.07.17a1.16,1.16,0,0,0,.4.7s.1.1.13.1.17.24.25.37l.38.59c.54.8,1.1,1.62,1.72,2.45a126.25,126.25,0,0,0,8.57,10.22c3.16,3.41,6.56,6.81,10.13,10.11s7.32,6.51,11.23,9.51a98.83,98.83,0,0,0,12,8.07,50.65,50.65,0,0,0,5.91,2.85,22.83,22.83,0,0,0,5.39,1.51l.28,0,.14,0,.23,0,1,.07c.66,0,1.31.09,2,.11q2.06.11,4.23.15c2.88.05,5.88.05,8.94,0a378.34,378.34,0,0,0,39.19-2.89,272.92,272.92,0,0,0,40.67-8,133.08,133.08,0,0,0,18.88-6.88c1.49-.66,2.86-1.44,4.3-2.15l2-1.17c.69-.39,1.36-.78,2-1.21l.95-.63.47-.31.33-.2.61-.38a6.37,6.37,0,0,0,.62-.44c.18-.16.47-.3.57-.5l-.21-1.62,0-.25a2.62,2.62,0,0,0-.07-.38l-.3-1.38-.6-2.75-2.28-10.81c-1.47-7.1-2.82-14-4-20.56-2-11.07-3.69-21.29-4.86-30.32,2.09-1.81,4.15-3.73,6.17-5.72.71-.69,1.41-1.39,2.11-2.1.09.35.19.7.28,1.06,2.52,9.72,5.69,21.27,9.3,34,1.84,6.37,3.76,13,5.74,19.94l3.08,10.5c.27.89.53,1.78.79,2.67l.4,1.34Z"/><path d="M391.16,40.92a30.26,30.26,0,0,1,.66,6.32c-1.47.25-2.81.55-4,.84l-.13,0a35.15,35.15,0,0,0-1-4.69A30.15,30.15,0,0,1,391.16,40.92Z"/><path d="M391.82,47.24c0,.4,0,.8,0,1.18s-.05,1-.11,1.46c-1,0-2,0-2.93,0h-.84c0-.13,0-.26,0-.39,0-.45-.1-.92-.17-1.4l.13,0C389,47.79,390.35,47.49,391.82,47.24Z"/><path d="M388.75,49.89c.92,0,1.9,0,2.93,0a26,26,0,0,1-.53,3,14.23,14.23,0,0,1-1.37,3.38c-1.13,1.87-2.51,2.9-4.09,3.08,1.48-.15,2.72-3.68,2.22-9.45Z"/><path d="M390.3,37.61c.35,1.13.64,2.23.86,3.31a30.15,30.15,0,0,0-4.44,2.5c-.23-.86-.51-1.75-.84-2.65A26.45,26.45,0,0,1,390.3,37.61Z"/><path d="M390.07,36.89c.08.24.16.48.23.72a26.45,26.45,0,0,0-4.42,3.16c-.17-.51-.37-1-.58-1.55a40,40,0,0,0-6.94-11.36c-.77-.92-1.72-1.81-2.67-2.77a41.57,41.57,0,0,0-7.16-5.3l-2.19-1.13c-.73-.39-1.52-.66-2.29-1a34.61,34.61,0,0,0-19.42-1.74,29.49,29.49,0,0,0-8.23,2.92l-1.69,1a3.62,3.62,0,0,0-.32.22,19.28,19.28,0,0,0-2.05-2.1l-.07-.06c.34-.31.69-.62,1.06-.91.57-.41,1.17-.84,1.8-1.26a30.69,30.69,0,0,1,9-4A37.89,37.89,0,0,1,355,10.6a38.76,38.76,0,0,1,11.2,2.19c.89.34,1.81.63,2.67,1.05s1.72.83,2.56,1.26a42.2,42.2,0,0,1,4.45,2.81A42.9,42.9,0,0,1,379.65,21a41.67,41.67,0,0,1,3,3.12A38,38,0,0,1,390.07,36.89Z"/><path d="M387.91,49.9c.5,5.77-.74,9.3-2.22,9.45h-.15c-1.59,0-3.17-3.16-5.5-7.67s-5.57-10.81-10.33-16.25c-.57-.7-1.27-1.36-1.95-2.11s-1.47-1.44-2.32-2.12-1.75-1.37-2.67-2.07l-1.43-.91c-.47-.32-1-.55-1.53-.84a30.78,30.78,0,0,0-6.87-2.55A33.5,33.5,0,0,0,345.6,24a29.51,29.51,0,0,0-6.78.8l-1.24.32a19.83,19.83,0,0,0-3.19-5.08,3.62,3.62,0,0,1,.32-.22l1.69-1a29.49,29.49,0,0,1,8.23-2.92,34.61,34.61,0,0,1,19.42,1.74c.77.32,1.56.59,2.29,1l2.19,1.13a41.57,41.57,0,0,1,7.16,5.3c.95,1,1.9,1.85,2.67,2.77a40,40,0,0,1,6.94,11.36c.21.52.41,1,.58,1.55-.43.38-.82.76-1.18,1.14-2.74,2.9-3.52,5.46-2.6,6.7a.81.81,0,0,0,.12.14l0,.06a.65.65,0,0,0,.18.15C383.45,49.83,385.42,49.92,387.91,49.9Z"/><path d="M387.87,49.51c0,.13,0,.26,0,.39-2.49,0-4.46-.07-5.48-.94.69.39,2.57-.16,5.27-.85C387.77,48.59,387.83,49.06,387.87,49.51Z"/><path d="M386.72,43.42a35.15,35.15,0,0,1,1,4.69c-2.7.69-4.58,1.24-5.27.85a1,1,0,0,1-.21-.21c-.35-.65.84-2.53,3.59-4.66Z"/><path d="M385.88,40.77c.33.9.61,1.79.84,2.65l-.91.67c-2.75,2.13-3.94,4-3.59,4.66a.81.81,0,0,1-.12-.14c-.92-1.24-.14-3.8,2.6-6.7C385.06,41.53,385.45,41.15,385.88,40.77Z"/><path d="M385.54,59.36c-3.16.26-6.17-2.67-9.42-6.57s-6.78-9.06-10.74-13.56c-.47-.59-1-1.13-1.58-1.77s-1.17-1.24-1.83-1.82-1.36-1.21-2.06-1.84q-.53-.37-1.05-.81c-.35-.29-.77-.5-1.15-.78a28.41,28.41,0,0,0-5.43-2.73,34,34,0,0,0-6.21-1.55,31.34,31.34,0,0,0-7.58-.17,16.67,16.67,0,0,0-.91-2.62l1.24-.32a29.51,29.51,0,0,1,6.78-.8,33.5,33.5,0,0,1,7.34.82,30.78,30.78,0,0,1,6.87,2.55c.51.29,1.06.52,1.53.84l1.43.91c.92.7,1.86,1.34,2.67,2.07s1.58,1.45,2.32,2.12,1.38,1.41,1.95,2.11c4.76,5.44,8,11.6,10.33,16.25S384,59.35,385.54,59.36Z"/><path d="M382.43,49a.65.65,0,0,1-.18-.15l0-.06A1,1,0,0,0,382.43,49Z"/><path d="M377.14,838.41c-.7.71-1.4,1.41-2.11,2.1-2,2-4.08,3.91-6.17,5.72-.22-1.72-.42-3.4-.61-5-.15-1.28-.28-2.53-.41-3.76,2.4-2.45,4.76-5,7.11-7.73C375.6,832.4,376.34,835.31,377.14,838.41Z"/><path d="M374.68,573.27A97.1,97.1,0,0,1,376,591.09,66.93,66.93,0,0,1,372.5,612a46.07,46.07,0,0,1-5.08,10.33,45.08,45.08,0,0,1-7.6,8.74,45.87,45.87,0,0,1-19.61,10.35,42.4,42.4,0,0,1-34.31-6.57,33.31,33.31,0,0,1-6.9-6.4c.48-.41,1-.84,1.43-1.28l.54-.5a52.27,52.27,0,0,0,7.22,4.34A42.6,42.6,0,0,0,321.53,635,36.57,36.57,0,0,0,338,633.54a38.82,38.82,0,0,0,15.28-9.45,37,37,0,0,0,5.57-7.19,36.47,36.47,0,0,0,3.58-8.25A59.79,59.79,0,0,0,364.69,591a99.16,99.16,0,0,0-1.35-15.83A79.53,79.53,0,0,0,360,562a60.69,60.69,0,0,0-5.28-11.24,49.3,49.3,0,0,0-14.23-15.13,52.33,52.33,0,0,0-12.95-6.36c-1.67-.54-3-1-3.95-1.36s-1.45-.77-1.46-1.17.48-.78,1.49-1.14a8.36,8.36,0,0,1,1.46-.41c.82,1.36,1.37,2,1.64,1.91s.26-.83,0-2.15c.43-.05.88-.08,1.37-.11a35.68,35.68,0,0,1,16.37,3.72A49.35,49.35,0,0,1,363.58,545a61.6,61.6,0,0,1,7,13.12,75.82,75.82,0,0,1,3.68,12.77l-.73-.27-.79-.35-1.39-.6c-1.66-.69-2.6-1-2.7-.81s.63.79,2.14,1.84l1.28.87.75.49.85.47,1,.52C374.65,573.1,374.67,573.19,374.68,573.27Z"/><path d="M374.24,570.86c.14.71.28,1.44.4,2.16l-1-.52-.85-.47-.75-.49-1.28-.87c-1.51-1-2.24-1.67-2.14-1.84s1,.12,2.7.81l1.39.6.79.35Z"/><path d="M355.85,120.72c.08,1.88-18.43,4.26-38.77,6.11-10-.1-15.66-.07-15.79-1.15-.1-.79,3.77-1.94,10.92-3.35,1.79-.38,3.79-.64,6-.92l7.15-.87c2.57-.35,5.33-.43,8.26-.63l4.52-.26c1.55-.1,3.14-.18,4.77-.17l9.47,0C354.57,119.81,355.83,120.23,355.85,120.72Z"/><path d="M352.36,119.44l-9.47,0c-1.63,0-3.22.07-4.77.17l-4.52.26c-2.93.2-5.69.28-8.26.63l-7.15.87c-2.19.28-4.19.54-6,.92-7.15,1.41-11,2.56-10.92,3.35.13,1.08,5.83,1,15.79,1.15-14,1.27-28.88,2.3-39.15,2.74-18.95.82-35.27.06-42.25-1.72l3.47-.24c25.36-1.42,41.25-.12,41.46-1.93.1-.79-3.77-1.94-10.92-3.35-1.79-.38-3.79-.64-6-.92l-7.15-.87c-1.41-.19-2.87-.3-4.39-.4,7.22-.92,15.91-1.65,25.27-2.06C298.78,117.17,340.12,117.41,352.36,119.44Z"/><path d="M338.49,27.76a13.52,13.52,0,0,1,.48,3.57,12.56,12.56,0,0,1-.34,2.91,9,9,0,0,1-1.05,2.42,7.15,7.15,0,0,1-3.57,3,2.74,2.74,0,0,0,1.53-2.07,8.61,8.61,0,0,0,.22-1.89,16.53,16.53,0,0,0-.31-2.32,18.4,18.4,0,0,0-1.88-4.84l1-.2A38.06,38.06,0,0,1,338.49,27.76Z"/><path d="M337.58,25.14a16.67,16.67,0,0,1,.91,2.62,38.06,38.06,0,0,0-3.9.56l-1,.2c-.28-.5-.59-1-.92-1.5l.74-.34a23.05,23.05,0,0,1,2.51-1c.46-.15.91-.34,1.4-.48Z"/><path d="M337.58,25.14l-.28.07c-.49.14-.94.33-1.4.48a23.05,23.05,0,0,0-2.51,1l-.74.34a24.48,24.48,0,0,0-2.58-3.25l.15-.18.51-.51a19.22,19.22,0,0,1,2.47-2.17c.38-.27.77-.58,1.19-.85A19.83,19.83,0,0,1,337.58,25.14Z"/><path d="M335.76,35.68a8.61,8.61,0,0,1-.22,1.89A2.74,2.74,0,0,1,334,39.64l-.21.07a3.6,3.6,0,0,1-2.35-.32,8.57,8.57,0,0,1-1.44-.83,17.11,17.11,0,0,1-1.61-1.14c-2.19-1.72-4.69-4-7.51-6.56a2.49,2.49,0,0,0,1.67-.17l.15-.1.06,0a.29.29,0,0,0,.14-.15,3.46,3.46,0,0,0,.8-2.32,9.24,9.24,0,0,0-.18-2.32,16.94,16.94,0,0,0-.78-2.86,27.55,27.55,0,0,0-3.34-6.26c.44.18.88.37,1.31.57a33.21,33.21,0,0,1,7.78,5l-.11.19c-.26.44-.48.87-.67,1.27a7.56,7.56,0,0,0-.74,2.23c-.22,1.34,0,2.25.6,2.75a.42.42,0,0,0,.14.09l.06.07a.54.54,0,0,0,.23.1c1.2.54,3.14.07,5.56-.43a18.4,18.4,0,0,1,1.88,4.84A16.53,16.53,0,0,1,335.76,35.68Z"/><path d="M334.39,20.06c-.42.27-.81.58-1.19.85a19.22,19.22,0,0,0-2.47,2.17l-.51.51-.15.18c-.48-.52-1-1-1.55-1.51h0l.29-.49c.16-.22.33-.43.49-.66a18.73,18.73,0,0,1,2.48-2.74l.51-.46.07.06A19.28,19.28,0,0,1,334.39,20.06Z"/><path d="M331.45,39.39a3.6,3.6,0,0,0,2.35.32,10.82,10.82,0,0,1-4.4.59,15.5,15.5,0,0,1-2.27-.31,16.06,16.06,0,0,1-2.25-.54,20.23,20.23,0,0,1-7.81-4.29c-1.18-1-2.49-2.52-4.1-4.11s-3.43-3.34-5.33-5c-1-.92-2.08-1.77-3.08-2.62a62,62,0,0,1,11.22,5.11,20.29,20.29,0,0,0,5.11,2.33c2.82,2.52,5.32,4.84,7.51,6.56A17.11,17.11,0,0,0,330,38.56,8.57,8.57,0,0,0,331.45,39.39Z"/><path d="M332.65,27c.33.5.64,1,.92,1.5-2.42.5-4.36,1-5.56.43C328.75,29.11,330.31,28.14,332.65,27Z"/><path d="M332.27,17.9l-.51.46a18.73,18.73,0,0,0-2.48,2.74c-.16.23-.33.44-.49.66l-.29.49a33.21,33.21,0,0,0-7.78-5c-.43-.2-.87-.39-1.31-.57a34.87,34.87,0,0,0-5.57-6.23,32.81,32.81,0,0,1,9.49,2.15A31.15,31.15,0,0,1,332.27,17.9Z"/><path d="M331.47,610.28c.24,1.44-.06,2.32-.73,2.74a3.82,3.82,0,0,1-2.63.22c-.54,0-1.09-.13-1.64-.2-.3,0-.6,0-.88-.06s-.63,0-.92,0a21.06,21.06,0,0,0-4.3.53,29.34,29.34,0,0,0-5.44,1.81,26.72,26.72,0,0,0-3.09,1.63,6,6,0,0,0-.79.52c-.27.2-.51.32-.82.59l-.92.73-.93.8c-2.35,2-4.85,4.63-7.41,7l-1-.74c-1-.67-1.68-1.24-2.24-1.57s-.92-.46-1.07-.33-.09.49.19,1.1a12.17,12.17,0,0,0,1.48,2.43c.2.28.43.58.68.89l-1.18,1a11,11,0,0,0-4.26-6.46c.17-.3.36-.61.54-.92a75.94,75.94,0,0,1,6.59-9.72l1-1.18,1.08-1.14c.33-.37.81-.77,1.21-1.14a14.85,14.85,0,0,1,1.27-1,24.86,24.86,0,0,1,5-3,21.49,21.49,0,0,1,9.62-1.88,15,15,0,0,1,8.13,2.63,9,9,0,0,1,1.38,1.18,12.05,12.05,0,0,1,1,1.24A7.83,7.83,0,0,1,331.47,610.28Z"/><path d="M330.07,23.77A24.48,24.48,0,0,1,332.65,27c-2.34,1.12-3.9,2.09-4.64,1.93a1.69,1.69,0,0,1-.29-.17c-.24-.29-.13-.92.28-1.88a7.62,7.62,0,0,1,1-1.75c.23-.32.48-.66.76-1Z"/><path d="M330.07,23.77l-.29.36c-.28.36-.53.7-.76,1a7.62,7.62,0,0,0-1,1.75c-.41,1-.52,1.59-.28,1.88a.42.42,0,0,1-.14-.09c-.61-.5-.82-1.41-.6-2.75a7.56,7.56,0,0,1,.74-2.23c.19-.4.41-.83.67-1.27l.11-.19h0C329.07,22.75,329.59,23.25,330.07,23.77Z"/><path d="M328,29a.54.54,0,0,1-.23-.1l-.06-.07A1.69,1.69,0,0,0,328,29Z"/><path d="M326.77,525c.22,1.32.21,2,0,2.15s-.82-.55-1.64-1.91A16.94,16.94,0,0,1,326.77,525Z"/><path d="M323.53,25.77a9.24,9.24,0,0,1,.18,2.32,3.46,3.46,0,0,1-.8,2.32c.44-.66,0-3-1.74-6.23a33.81,33.81,0,0,0-7.89-9.39,34,34,0,0,1,6.13,1.86,27.55,27.55,0,0,1,3.34,6.26A16.94,16.94,0,0,1,323.53,25.77Z"/><path d="M321.17,24.18c1.73,3.23,2.18,5.57,1.74,6.23a.84.84,0,0,1-.2.18c-.76.29-2.41-1.35-5-3.6a46.86,46.86,0,0,0-11.25-7.28,40.92,40.92,0,0,0-7.09-2.45h0s0,0,0,0a.08.08,0,0,1,0,0,.59.59,0,0,1,0-.14.34.34,0,0,1,0-.1c0-.76,1.16-1.53,3.2-2.13a23,23,0,0,1,8.31-.43c.82.1,1.65.23,2.49.4A33.81,33.81,0,0,1,321.17,24.18Z"/><path d="M322.91,30.41a.29.29,0,0,1-.14.15l-.06,0A.84.84,0,0,0,322.91,30.41Z"/><path d="M322.71,30.59l-.15.1a2.49,2.49,0,0,1-1.67.17c-1.44-1.21-3.21-2.88-5.35-4.4a56.42,56.42,0,0,0-6.87-4.22c-2.35-1.24-4.66-2.11-6.4-2.95-1.56-.67-2.68-1.32-2.93-2a40.92,40.92,0,0,1,7.09,2.45A46.86,46.86,0,0,1,317.68,27C320.3,29.24,322,30.88,322.71,30.59Z"/><path d="M320.89,30.86a20.29,20.29,0,0,1-5.11-2.33,62,62,0,0,0-11.22-5.11c-.85-.7-1.66-1.4-2.39-2.1a8.43,8.43,0,0,1-2.85-4.06h0c.25.71,1.37,1.36,2.93,2,1.74.84,4.05,1.71,6.4,2.95a56.42,56.42,0,0,1,6.87,4.22C317.68,28,319.45,29.65,320.89,30.86Z"/><path d="M313.84,10.42a34.87,34.87,0,0,1,5.57,6.23,34,34,0,0,0-6.13-1.86,34.73,34.73,0,0,0-2.82-2.14c-1-.66-2-1.3-3-1.9a22.34,22.34,0,0,1,4.44-.41C312.52,10.34,313.18,10.36,313.84,10.42Z"/><path d="M312.42,9.22c.49.39,1,.79,1.42,1.2-.66-.06-1.32-.08-2-.08a22.34,22.34,0,0,0-4.44.41,40.5,40.5,0,0,0-5.67-2.7,41.43,41.43,0,0,0-9.93-2.37,36.35,36.35,0,0,0-9.81.21,37.2,37.2,0,0,0-4.38.91,38.85,38.85,0,0,0-3.82,1.27,37.82,37.82,0,0,0-5.6,2.75,31.88,31.88,0,0,0-9.58,1.88c-.64.22-1.26.47-1.86.74.56-.68,1.16-1.36,1.8-2a37.5,37.5,0,0,1,13.14-8.71,45,45,0,0,1,4.33-1.41,40.35,40.35,0,0,1,5-.95,39.52,39.52,0,0,1,11.12.08,43,43,0,0,1,11,3.14A42.16,42.16,0,0,1,312.42,9.22Z"/><path d="M313.28,14.79c-.84-.17-1.67-.3-2.49-.4a23,23,0,0,0-8.31.43c-2,.6-3.2,1.37-3.2,2.13a1.36,1.36,0,0,1,0-.2c-.08-1.57,1.08-3.1,3.34-4.38a17.15,17.15,0,0,1,4.84-1.62c1.05.6,2.06,1.24,3,1.9A34.73,34.73,0,0,1,313.28,14.79Z"/><path d="M310.29,748.49c0,.79-3.82,1.82-10.17,2.9-2.27.38-4.86.77-7.71,1.13-4-.48-7.57-1-10.6-1.55-6.34-1.13-10.22-2.19-10.16-3s4.05-1.24,10.45-1.49l3.11-.11c5.57.21,10.57.33,14.62.53C306.24,747.22,310.23,747.69,310.29,748.49Z"/><path d="M304.56,23.42l-.21-.07a40.7,40.7,0,0,0-6.81-1.55,35.93,35.93,0,0,0-6.67-.22,29.16,29.16,0,0,0-5.87,1c-.9.2-1.76.52-2.58.75s-1.59.56-2.31.85c-2.13.84-4.18,1.76-6.13,2.73l.41-.34c1.89-1.55,3.82-2.92,5.38-4.36s2.74-2.81,2.82-4.41v-.16h0a.22.22,0,0,0,0-.08,1.21,1.21,0,0,0,0-.19c.46-.13.93-.24,1.42-.33a31.16,31.16,0,0,1,7.18-.73,38,38,0,0,1,7.78.92l.35.09a8.43,8.43,0,0,0,2.85,4.06C302.9,22,303.71,22.72,304.56,23.42Z"/><path d="M301.77,8.05a40.5,40.5,0,0,1,5.67,2.7,17.15,17.15,0,0,0-4.84,1.62c-2.26,1.28-3.42,2.81-3.34,4.38a1.36,1.36,0,0,0,0,.2.34.34,0,0,0,0,.1.59.59,0,0,0,0,.14.08.08,0,0,0,0,0v0l-.35-.09a38,38,0,0,0-7.78-.92A31.16,31.16,0,0,0,284,17c-.49.09-1,.2-1.42.33h0s0,0,0,0v0c-.15-1.4-1.25-2.81-3.23-4a19.88,19.88,0,0,0-9.19-2.4q-.94,0-1.92,0a37.82,37.82,0,0,1,5.6-2.75,38.85,38.85,0,0,1,3.82-1.27A37.2,37.2,0,0,1,282,5.89a36.35,36.35,0,0,1,9.81-.21A41.43,41.43,0,0,1,301.77,8.05Z"/><path d="M301,626.62l-.54.5c-.47.44-.95.87-1.43,1.28-.25-.31-.48-.61-.68-.89a12.17,12.17,0,0,1-1.48-2.43c-.28-.61-.34-1-.19-1.1s.52,0,1.07.33,1.27.9,2.24,1.57Z"/><path d="M299.32,17.23s0,0,0,0h0Z"/><path d="M297.82,629.39a3.5,3.5,0,0,1-.25,2.07c-.61,1.27-2.12,1.92-3.8,2.15a1.53,1.53,0,0,0,0-.59l.21-.09a4.1,4.1,0,0,0,2-2.09C296.53,630.39,297.17,629.91,297.82,629.39Z"/><path d="M297.82,629.39c-.65.52-1.29,1-1.91,1.45a6.24,6.24,0,0,0-.25-5.12,6.71,6.71,0,0,0-2.21-2.61,1.74,1.74,0,0,1,.11-.18A11,11,0,0,1,297.82,629.39Z"/><path d="M295.66,625.72a6.24,6.24,0,0,1,.25,5.12,24.38,24.38,0,0,1-2.41,1.53,23.82,23.82,0,0,0-1.38-2.51l-1.38-2.31c.81-1.3,1.72-2.79,2.71-4.44A6.71,6.71,0,0,1,295.66,625.72Z"/><path d="M295.91,630.84a4.1,4.1,0,0,1-2,2.09l-.21.09a3,3,0,0,0-.23-.65A24.38,24.38,0,0,0,295.91,630.84Z"/><path d="M293.73,633a1.53,1.53,0,0,1,0,.59,11.72,11.72,0,0,1-3.13,0l.18-.06A8.93,8.93,0,0,0,293.73,633Z"/><path d="M293.77,633.61a.64.64,0,0,1-.11.31c-.34.55-1.6.51-3.39-.2l.37-.1A11.72,11.72,0,0,0,293.77,633.61Z"/><path d="M293.5,632.37a3,3,0,0,1,.23.65,8.93,8.93,0,0,1-2.91.54,13.76,13.76,0,0,0,1.63-.65C292.79,632.75,293.14,632.58,293.5,632.37Z"/><path d="M293.56,622.93a1.74,1.74,0,0,0-.11.18,5,5,0,0,0-2.5-.9,3.8,3.8,0,0,1,2,.36A4,4,0,0,1,293.56,622.93Z"/><path d="M293.5,632.37c-.36.21-.71.38-1.05.54a13.76,13.76,0,0,1-1.63.65h-.56l-.51-.08h0c-.18-.07-.35-.15-.53-.24-.4-.2-.83-.43-1.26-.69a14.06,14.06,0,0,1,1.58-3l1.24-2,1.38,2.31A23.82,23.82,0,0,1,293.5,632.37Z"/><path d="M293.45,623.11c-1,1.65-1.9,3.14-2.71,4.44-.76-1.28-1.6-2.72-2.5-4.29a4,4,0,0,1,5.21-.15Z"/><path d="M288.94,622.57a3.8,3.8,0,0,1,2-.36,5,5,0,0,0-2.71,1l-.12-.2A6.8,6.8,0,0,1,288.94,622.57Z"/><path d="M290.82,633.56l-.18.06-.35,0Z"/><path d="M290.64,633.62l-.37.1-.36-.16h.38Z"/><path d="M289.91,633.56l.36.16c-1.21.3-2,.21-2.31-.22a.51.51,0,0,1-.07-.17A11.47,11.47,0,0,0,289.91,633.56Z"/><path d="M290.26,633.57h-.35l-.16-.07Z"/><path d="M289.75,633.49l.16.07a11.47,11.47,0,0,1-2-.23.86.86,0,0,1,0-.46.53.53,0,0,0,.1.06,7.4,7.4,0,0,0,1.75.54h0Z"/><path d="M290.74,627.55l-1.24,2a14.06,14.06,0,0,0-1.58,3c-.5-.3-1-.63-1.54-1a6,6,0,0,1-.14-5.82,6.62,6.62,0,0,1,2-2.46C289.14,624.83,290,626.27,290.74,627.55Z"/><path d="M289.18,633.23c.18.09.35.17.53.24a7.4,7.4,0,0,1-1.75-.54.53.53,0,0,1-.1-.06,1.05,1.05,0,0,1,.06-.33C288.35,632.8,288.78,633,289.18,633.23Z"/><path d="M288.12,623.06l.12.2a6.62,6.62,0,0,0-2,2.46,6,6,0,0,0,.14,5.82,32.17,32.17,0,0,1-2.55-2C283.91,627.19,286.23,624.38,288.12,623.06Z"/><path d="M287.61,622.16c.17.3.34.61.51.9-1.89,1.32-4.21,4.13-4.29,6.5q-.37-.3-.75-.63.46-.57.84-1.08a13.09,13.09,0,0,0,1.52-2.45c.28-.61.35-1,.19-1.11s-.52,0-1.08.34-1.29.91-2.27,1.58l-1.2.87c-2.64-2.53-5.2-5.28-7.62-7.45l-.92-.81-.9-.74c-.3-.27-.55-.39-.81-.6a8.23,8.23,0,0,0-.78-.53,24.61,24.61,0,0,0-3.08-1.64,29.34,29.34,0,0,0-5.44-1.81,21.06,21.06,0,0,0-4.3-.53c-.29,0-.64,0-.92,0s-.58,0-.88.06c-.55.07-1.1.16-1.64.2a3.82,3.82,0,0,1-2.63-.22c-.67-.42-1-1.3-.73-2.74a7.83,7.83,0,0,1,1.06-2.31,12.05,12.05,0,0,1,1-1.24,9,9,0,0,1,1.38-1.18,15,15,0,0,1,8.13-2.63,21.49,21.49,0,0,1,9.62,1.88,24.89,24.89,0,0,1,5,3,13.61,13.61,0,0,1,1.26,1.06c.39.37.87.77,1.2,1.14l1.07,1.15,1,1.19A75.67,75.67,0,0,1,287.61,622.16Z"/><path d="M287.92,632.54a1.05,1.05,0,0,0-.06.33,3.8,3.8,0,0,1-1.48-1.33C286.91,631.91,287.42,632.24,287.92,632.54Z"/><path d="M287.86,632.87a.86.86,0,0,0,0,.46,5.13,5.13,0,0,1-3.78-2.32,3,3,0,0,1-.28-1.45,32.17,32.17,0,0,0,2.55,2A3.8,3.8,0,0,0,287.86,632.87Z"/><path d="M285.63,624.29c.16.13.09.5-.19,1.11a13.09,13.09,0,0,1-1.52,2.45q-.37.51-.84,1.08c-.6-.53-1.21-1.08-1.8-1.66l-.2-.19,1.2-.87c1-.67,1.71-1.24,2.27-1.58S285.48,624.17,285.63,624.29Z"/><path d="M282.59,17.31a1.21,1.21,0,0,1,0,.19.22.22,0,0,1,0,.08,2.53,2.53,0,0,0,0-.27Z"/><path d="M282.59,17.59v.16c-.08,1.6-1.27,3.05-2.82,4.41s-3.49,2.81-5.38,4.36l-.41.34c-3.32,1.62-6.37,3.35-9.09,4.89-1.13.58-2.1,1.2-3.16,1.68a20.63,20.63,0,0,1-2.89,1.28,9.64,9.64,0,0,1-2.89.67c1.56-1.35,3.24-2.89,5.06-4.52a63.84,63.84,0,0,1,5.39-4.33,52.81,52.81,0,0,1,6.9-4.05c2.34-1.18,4.63-2,6.35-2.77S282.47,18.36,282.59,17.59Z"/><path d="M282.59,17.58h0c-.12.77-1.27,1.45-2.94,2.12s-4,1.59-6.35,2.77a52.81,52.81,0,0,0-6.9,4.05A63.84,63.84,0,0,0,261,30.86c-1.82,1.63-3.5,3.17-5.06,4.52a5.09,5.09,0,0,1-2.15-.32c1.57.61,3.89-2.21,7.81-5.71a59.81,59.81,0,0,1,7-5.6,49.33,49.33,0,0,1,9.4-5c.86-.36,1.82-.65,2.81-1,.57-.15,1.15-.33,1.75-.48A2.53,2.53,0,0,1,282.59,17.58Z"/><path d="M282.58,17.3h0c-.6.15-1.18.33-1.75.48-1,.34-1.95.63-2.81,1a49.33,49.33,0,0,0-9.4,5,59.81,59.81,0,0,0-7,5.6c-3.92,3.5-6.24,6.32-7.81,5.71-.74-.29-1.08-1.39-1-3.26a15.52,15.52,0,0,1,.37-2.24,1.73,1.73,0,0,0,.38-.24l.13-.12.07,0a.34.34,0,0,0,.12-.18s0,0,0,0a3.36,3.36,0,0,0,.34-2.35l0-.2a16.87,16.87,0,0,1,.86-1.85,31.06,31.06,0,0,1,4.32-6.37c.6-.32,1.21-.62,1.85-.89a33,33,0,0,1,10-2.66,22.65,22.65,0,0,1,8.26.61c1.83.58,2.94,1.3,3.13,2v0S282.58,17.29,282.58,17.3Z"/><path d="M281.28,627.27c.59.58,1.2,1.13,1.8,1.66a34.69,34.69,0,0,1-6.86,6.23,42.59,42.59,0,0,1-14.6,6.53,42.13,42.13,0,0,1-20-.08A46.2,46.2,0,0,1,222,631.14,45.05,45.05,0,0,1,209.32,612a67.24,67.24,0,0,1-3.4-20.88,98.18,98.18,0,0,1,1.24-17.47l1.3-.68.86-.47.75-.49,1.29-.87c1.53-1.05,2.27-1.68,2.17-1.85s-1.05.12-2.73.82l-1.4.6-.8.35-.9.33-.15,0a77.09,77.09,0,0,1,3.79-13.32,61.6,61.6,0,0,1,7-13.12,49.35,49.35,0,0,1,19.07-16.38,35.68,35.68,0,0,1,16.37-3.72c.49,0,.94.06,1.37.11-.22,1.32-.21,2,0,2.15s.82-.55,1.64-1.91a8.36,8.36,0,0,1,1.46.41c1,.36,1.51.74,1.49,1.14s-.53.79-1.46,1.17-2.28.82-4,1.36a52.33,52.33,0,0,0-12.95,6.36,49.3,49.3,0,0,0-14.23,15.13A60.69,60.69,0,0,0,221.89,562a79.53,79.53,0,0,0-3.33,13.15A100.19,100.19,0,0,0,217.19,591a60.22,60.22,0,0,0,2.2,17.66,36.5,36.5,0,0,0,9.13,15.54,38.93,38.93,0,0,0,15.31,9.57,36.93,36.93,0,0,0,16.6,1.59,43.05,43.05,0,0,0,13.49-4,51.88,51.88,0,0,0,7.16-4.24Z"/><path d="M279.34,13.22c2,1.21,3.08,2.62,3.23,4-.19-.7-1.3-1.42-3.13-2a22.65,22.65,0,0,0-8.26-.61,33,33,0,0,0-10,2.66c-.64.27-1.25.57-1.85.89a35.1,35.1,0,0,1,2.56-2.65,37.2,37.2,0,0,1,6.3-4.71q1,0,1.92,0A19.88,19.88,0,0,1,279.34,13.22Z"/><path d="M269.69,122.33c7.15,1.41,11,2.56,10.92,3.35-.21,1.81-16.1.51-41.46,1.93l-3.47.24c-2.3-.58-3.59-1.28-3.62-2.06-.08-2,7.91-4.09,20.11-5.65,1.52.1,3,.21,4.39.4l7.15.87C265.9,121.69,267.9,122,269.69,122.33Z"/><path d="M272.08,467a88.12,88.12,0,0,1-.65,14.22c-.36,2.2-.61,4.35-1.07,6.39-.2,1-.41,2-.61,3s-.48,1.94-.71,2.89a145.8,145.8,0,0,1-6.17,18.76c-2,5-3.79,8.78-5.11,11.29-.35.66-.67,1.22-.95,1.7a16.94,16.94,0,0,0-1.68-.24c.1-.62.25-1.38.45-2.26.62-2.76,1.71-6.76,3-11.89s2.91-11.39,4.14-18.69c.66-3.64,1.07-7.55,1.4-11.67a86.78,86.78,0,0,0-.18-13,62,62,0,0,0-9.33-27.37c-1.37-2.27-2.89-4.51-4.52-6.75s-3.35-4.45-5.28-6.55-3.88-4.23-5.9-6.34-4.27-4.07-6.63-5.94a111.44,111.44,0,0,0-32.43-18.8,106.48,106.48,0,0,0-39.48-6.55,102.81,102.81,0,0,0-44.47,11.47,94.75,94.75,0,0,0-38,36.6,87.24,87.24,0,0,0-9.83,26.24,91.16,91.16,0,0,0-1.16,28.41,88.06,88.06,0,0,0,7.68,27.16A90.62,90.62,0,0,0,90,542a91.82,91.82,0,0,0,20.48,16.73,120.12,120.12,0,0,0,22.83,10.13c15.24,5.24,29.63,7.84,41.77,8.07,1.51,0,3,.06,4.44,0l4.21-.19c2.71-.27,5.29-.46,7.66-.92a79.77,79.77,0,0,0,12-2.92c1.56-.54,2.91-1.09,4.12-1.51q-.18.93-.33,1.86l-.06.35c-.87.46-1.83,1-2.88,1.46a67.87,67.87,0,0,1-12.21,4.11c-2.44.66-5.11,1-7.93,1.5l-4.39.47c-1.5.15-3.05.17-4.63.27-12.69.47-27.81-1.6-43.78-6.43a123.91,123.91,0,0,1-24.5-9.91A98.74,98.74,0,0,1,66.63,523a96.53,96.53,0,0,1-9.15-29.81,100.36,100.36,0,0,1,.68-31.51,96.63,96.63,0,0,1,10.53-29.53,104.62,104.62,0,0,1,42-41.37,110,110,0,0,1,25.23-9.69,114,114,0,0,1,18.57-3,252.52,252.52,0,0,1,35.92,5.58c3.1.71,6.17,1.55,9.26,2.32s6.11,1.76,9.14,2.69l4.51,1.5c1.43.48,2.28.71,4.56,1.59,0,0,0,0,0,0a113.65,113.65,0,0,1,21.31,14.78c2.53,2.12,4.82,4.46,7.11,6.7s4.36,4.67,6.29,7.14,3.76,4.94,5.56,7.38,3.3,5,4.73,7.63a74.81,74.81,0,0,1,6.72,15.88A72.92,72.92,0,0,1,272.08,467Z"/><path d="M274,26.86c-1.75,1.43-3.46,2.92-5,4.33s-3,3-4.18,4A20.23,20.23,0,0,1,257,39.45a16.06,16.06,0,0,1-2.25.54,15.5,15.5,0,0,1-2.27.31,10.82,10.82,0,0,1-4.4-.59,3.6,3.6,0,0,0,2.35-.32,8.57,8.57,0,0,0,1.44-.83,17.11,17.11,0,0,0,1.61-1.14c.78-.61,1.59-1.3,2.45-2a9.64,9.64,0,0,0,2.89-.67,20.63,20.63,0,0,0,2.89-1.28c1.06-.48,2-1.1,3.16-1.68C267.61,30.21,270.66,28.48,274,26.86Z"/><path class="cls-2" d="M264,467.52a86.78,86.78,0,0,1,.18,13c-.33,4.12-.74,8-1.4,11.67-1.23,7.3-2.82,13.57-4.14,18.69s-2.41,9.13-3,11.89c-.2.88-.35,1.64-.45,2.26-.43-.05-.88-.08-1.37-.11a35.68,35.68,0,0,0-16.37,3.72A49.35,49.35,0,0,0,218.32,545a61.6,61.6,0,0,0-7,13.12,77.09,77.09,0,0,0-3.79,13.32c-1.21.42-2.56,1-4.12,1.51a79.77,79.77,0,0,1-12,2.92c-2.37.46-4.95.65-7.66.92l-4.21.19c-1.44.06-2.93,0-4.44,0-12.14-.23-26.53-2.83-41.77-8.07a120.12,120.12,0,0,1-22.83-10.13A91.82,91.82,0,0,1,90,542,90.62,90.62,0,0,1,74.62,519.1a88.06,88.06,0,0,1-7.68-27.16,91.16,91.16,0,0,1,1.16-28.41,87.24,87.24,0,0,1,9.83-26.24,94.75,94.75,0,0,1,38-36.6,102.81,102.81,0,0,1,44.47-11.47,106.48,106.48,0,0,1,39.48,6.55,111.44,111.44,0,0,1,32.43,18.8c2.36,1.87,4.48,3.95,6.63,5.94s4.09,4.14,5.9,6.34,3.55,4.39,5.28,6.55,3.15,4.48,4.52,6.75A62,62,0,0,1,264,467.52Zm-72.52.07a23.5,23.5,0,1,0-23.5,23.5A23.5,23.5,0,0,0,191.45,467.59Z"/><path d="M268.23,10.82a37.2,37.2,0,0,0-6.3,4.71,35.1,35.1,0,0,0-2.56,2.65,32.14,32.14,0,0,0-6,4.08c-.2.18-.4.36-.59.55-.06-.12-.14-.25-.21-.37s-.31-.43-.46-.66l-.15-.19a29.75,29.75,0,0,1,4.82-8.15c.6-.27,1.22-.52,1.86-.74A31.88,31.88,0,0,1,268.23,10.82Z"/><path d="M253.8,35.06a5.09,5.09,0,0,0,2.15.32c-.86.74-1.67,1.43-2.45,2a17.11,17.11,0,0,1-1.61,1.14,8.57,8.57,0,0,1-1.44.83,3.6,3.6,0,0,1-2.35.32l-.21-.07a2.74,2.74,0,0,1-1.53-2.07,8.61,8.61,0,0,1-.22-1.89,16.53,16.53,0,0,1,.31-2.32,17.82,17.82,0,0,1,1.5-4.13c1,.21,1.88.41,2.67.52a8.79,8.79,0,0,0,.15,1.08C251.28,33.09,252.32,34.48,253.8,35.06Z"/><path d="M255.13,525a16.94,16.94,0,0,1,1.68.24c-.82,1.36-1.37,2-1.64,1.91S254.91,526.3,255.13,525Z"/><path d="M259.37,18.18a31.06,31.06,0,0,0-4.32,6.37,16.87,16.87,0,0,0-.86,1.85,7.35,7.35,0,0,0-.62-2c-.17-.4-.38-.82-.62-1.27,0-.1-.1-.2-.16-.3.19-.19.39-.37.59-.55A32.14,32.14,0,0,1,259.37,18.18Z"/><path d="M254.22,26.6a3.36,3.36,0,0,1-.34,2.35,2.06,2.06,0,0,0-.17-1.28c.15-.41.3-.83.48-1.27Z"/><path d="M254.19,26.4c-.18.44-.33.86-.48,1.27,0-.14-.1-.29-.16-.44a7.83,7.83,0,0,0-1-1.75c-.22-.32-.47-.65-.74-1l-.3-.38c.39-.44.81-.87,1.25-1.28.06.1.11.2.16.3.24.45.45.87.62,1.27A7.35,7.35,0,0,1,254.19,26.4Z"/><path d="M253.71,27.67a2.06,2.06,0,0,1,.17,1.28s0,0,0,0a1.3,1.3,0,0,1-.19.22.67.67,0,0,1-.44.08c.05-.23.11-.47.17-.72Z"/><path d="M253.86,29a.34.34,0,0,1-.12.18l-.07,0A1.3,1.3,0,0,0,253.86,29Z"/><path d="M253.67,29.2l-.13.12a1.73,1.73,0,0,1-.38.24c0-.09,0-.18.07-.28A.67.67,0,0,0,253.67,29.2Z"/><path d="M253.55,27.23c.06.15.12.3.16.44l-.31.89c-.06.25-.12.49-.17.72a9.57,9.57,0,0,1-2.65-1.11c0-.39,0-.8,0-1.23.1-.71.22-1.47.39-2.27.17-.2.34-.39.52-.58l.3.38c.27.36.52.69.74,1A7.83,7.83,0,0,1,253.55,27.23Z"/><path d="M253.23,29.28c0,.1,0,.19-.07.28a4.49,4.49,0,0,1-2.54.19,13.54,13.54,0,0,1,0-1.58A9.57,9.57,0,0,0,253.23,29.28Z"/><path d="M253.16,29.56a15.52,15.52,0,0,0-.37,2.24c-.07,1.87.27,3,1,3.26-1.48-.58-2.52-2-3-4.23a8.79,8.79,0,0,1-.15-1.08A4.49,4.49,0,0,0,253.16,29.56Z"/><path d="M252.58,22.44c.07.12.15.25.21.37-.44.41-.86.84-1.25,1.28a1.83,1.83,0,0,1-.13-.16l-.16-.17a16,16,0,0,1,.52-1.62c.06-.18.13-.36.2-.55l.15.19C252.27,22,252.43,22.22,252.58,22.44Z"/><path d="M256.79,13.44A29.75,29.75,0,0,0,252,21.59,17,17,0,0,0,249.76,19c-.22-.21-.44-.43-.67-.63l.47-.44A29.33,29.33,0,0,1,256.79,13.44Z"/><path d="M252,21.59c-.07.19-.14.37-.2.55a16,16,0,0,0-.52,1.62l-.33-.34a18.5,18.5,0,0,0-2.41-2.17c-.4-.3-.8-.62-1.24-.91a18.43,18.43,0,0,1,1.82-1.94c.23.2.45.42.67.63A17,17,0,0,1,252,21.59Z"/><path d="M251.41,23.93a1.83,1.83,0,0,0,.13.16c-.18.19-.35.38-.52.58.07-.3.14-.6.23-.91Z"/><path d="M250.92,23.42l.33.34c-.09.31-.16.61-.23.91a25.46,25.46,0,0,0-2,2.71l-.76-.36a23.93,23.93,0,0,0-2.45-1c-.45-.15-.89-.34-1.37-.48l-.26-.07a20.08,20.08,0,0,1,3.09-5.13c.44.29.84.61,1.24.91A18.5,18.5,0,0,1,250.92,23.42Z"/><path d="M251,24.67c-.17.8-.29,1.56-.39,2.27,0,.43,0,.84,0,1.23L249,27.38A25.46,25.46,0,0,1,251,24.67Z"/><path d="M250.58,28.17a13.54,13.54,0,0,0,0,1.58c-.79-.11-1.69-.31-2.67-.52.32-.61.67-1.23,1.07-1.85Z"/><path d="M248.3,119.91c1.33.09,2.62.16,3.87.23-12.2,1.56-20.19,3.66-20.11,5.65,0,.78,1.32,1.48,3.62,2.06l-6.46.45c-3.45.28-7,.73-10.72,1.09s-7.51,1-11.43,1.51c-2,.3-4,.5-6,.88L195,132.89a339.46,339.46,0,0,0-52.41,14,315.12,315.12,0,0,0-62.7,30.36A171.11,171.11,0,0,0,64,188.5a101,101,0,0,0-13.94,13.38,68.32,68.32,0,0,0-10.19,15.77,82.91,82.91,0,0,0-5.55,17.72c-1.27,6.08-2.18,12.21-3.15,18.16s-1.92,11.65-2.81,17.11c-1.82,10.89-3.5,20.69-5,28.91C21.56,309.65,20,317.36,19,321.77q-.77-3.16-1.45-6.12v0c.31-4.38.8-10,1.44-16.69.8-8.31,1.84-18.2,3.05-29.18.61-5.48,1.26-11.25,1.93-17.22s1.33-12.19,2.41-18.67a89.5,89.5,0,0,1,5.39-19.75,76.46,76.46,0,0,1,11-18.29,108.28,108.28,0,0,1,14.85-15.11,175.31,175.31,0,0,1,16.56-12.36A298.65,298.65,0,0,1,138.76,136a290.74,290.74,0,0,1,54.53-13.6l6.34-.91c2.08-.31,4.16-.44,6.19-.66,4.08-.36,8-.86,11.86-1s7.54-.4,11.1-.45l10.23,0c1.63,0,3.22.07,4.77.17Z"/><path d="M248.25,17.65c.3.24.57.49.84.75a18.43,18.43,0,0,0-1.82,1.94l-.24-.17-1.66-1a29.05,29.05,0,0,0-8.13-3,35.11,35.11,0,0,0-9.62-.63,35.63,35.63,0,0,0-9.74,2.19c-.77.32-1.56.58-2.29,1l-2.2,1.12a40.84,40.84,0,0,0-3.86,2.53,38.82,38.82,0,0,0-3.31,2.73c-1,1-1.91,1.85-2.68,2.77a40,40,0,0,0-6.94,11.36c-.32.79-.61,1.58-.85,2.35a25.38,25.38,0,0,0-4.35-3.31c.13-.45.28-.91.43-1.37a38,38,0,0,1,7.39-12.81,41.67,41.67,0,0,1,3-3.11,40.25,40.25,0,0,1,3.81-3,40.7,40.7,0,0,1,4.47-2.76c.84-.42,1.7-.83,2.57-1.23s1.78-.69,2.67-1a38.23,38.23,0,0,1,11.19-2,36.7,36.7,0,0,1,10.75,1.36,29.77,29.77,0,0,1,8.8,4.08Q247.43,17,248.25,17.65Z"/><path d="M248.26,27l.76.36c-.4.62-.75,1.24-1.07,1.85L246.81,29c-1.09-.22-2.28-.43-3.55-.58a15.63,15.63,0,0,1,.92-3l.26.07c.48.14.92.33,1.37.48A23.93,23.93,0,0,1,248.26,27Z"/><path d="M246.81,29l1.14.23a17.82,17.82,0,0,0-1.5,4.13,16.53,16.53,0,0,0-.31,2.32,8.61,8.61,0,0,0,.22,1.89,2.74,2.74,0,0,0,1.53,2.07,7.15,7.15,0,0,1-3.57-3,9,9,0,0,1-1-2.42,12.56,12.56,0,0,1-.34-2.91,13.12,13.12,0,0,1,.33-2.91C244.53,28.57,245.72,28.78,246.81,29Z"/><path d="M247,20.17l.24.17a20.08,20.08,0,0,0-3.09,5.13L243,25.14a29.09,29.09,0,0,0-6.69-.88A33,33,0,0,0,229,25a30.21,30.21,0,0,0-6.86,2.46c-.51.29-1.06.51-1.53.83l-1.44.89c-.92.69-1.86,1.32-2.67,2.05s-1.59,1.44-2.34,2.11-1.38,1.4-1.95,2.1c-4.76,5.44-8,11.6-10.33,16.25s-3.91,7.66-5.5,7.67h-.15c-1.41-.14-2.61-3.37-2.27-8.69,2.51.05,4.44-.11,5.27-1.24l.08-.13a.16.16,0,0,0,.07-.07.47.47,0,0,0,.09-.25c.51-1.36-.3-3.68-2.64-6.31-.32-.36-.67-.72-1.06-1.09.24-.77.53-1.56.85-2.35a40,40,0,0,1,6.94-11.36c.77-.92,1.72-1.81,2.68-2.77a38.82,38.82,0,0,1,3.31-2.73,40.84,40.84,0,0,1,3.86-2.53l2.2-1.12c.73-.38,1.52-.64,2.29-1a35.63,35.63,0,0,1,9.74-2.19,35.11,35.11,0,0,1,9.62.63,29.05,29.05,0,0,1,8.13,3Z"/><path d="M246.36,402.68c0,.06,0,.08,0,0l-.26-.1-.53-.2-2.12-.83L235,398.31l-16.06-6.19-1-.39s0,0,0,0a122.2,122.2,0,0,0-14-6.48,114.66,114.66,0,0,0-43.78-7.51c-1.84.06-3.72.16-5.62.31l-1-.08a256.4,256.4,0,0,0-34-.37c-5.24.26-10.19.77-14.83,1.24-4.62.63-9,1-12.79,1.82a52.42,52.42,0,0,0-10,2.87,29.81,29.81,0,0,0-4.94,2.58c.52-1.37,1.19-3,2.11-4.88.43-.27.87-.53,1.33-.78a50.66,50.66,0,0,1,10.47-4.14c4-1.17,8.35-1.92,13-2.89,4.7-.81,9.74-1.65,15.09-2.22a236.94,236.94,0,0,1,35-1.35,244.52,244.52,0,0,1,38.46,4.45c3.24.64,6.46,1.41,9.7,2.12s6.42,1.65,9.61,2.54l8.32,2.52,1.24.38.59.18.14,0c.14,0,.4.15.13-.16l-.35-.45-.07-.07,0,0-.45-.78c-.76-1.3-1.52-2.6-2.26-3.89a37.1,37.1,0,0,0-4.16-6.32,9,9,0,0,0-2.09-1.7,19.31,19.31,0,0,0-2.91-1.4c-1.1-.44-2.36-.87-3.62-1.3s-2.48-.86-3.72-1.24c-4.91-1.6-9.62-2.94-14.07-4.08a239.6,239.6,0,0,0-26.28-5.15,220.26,220.26,0,0,0-24.81-2,100.05,100.05,0,0,0-21.9,1.75,59,59,0,0,0-17.53,6.38,50.52,50.52,0,0,0-12,9.62,44.13,44.13,0,0,0-6.67,9.66l-.18.36a26.41,26.41,0,0,0-5,4c0-.36,0-.75.09-1.15q.15-1,.33-2.25c.14-.8.39-1.63.61-2.52a39.57,39.57,0,0,1,5.81-12.06,51.2,51.2,0,0,1,12.7-12.49,62.58,62.58,0,0,1,19.69-8.8,101.55,101.55,0,0,1,24.09-3.07,199.46,199.46,0,0,1,26.25,1.46,217.33,217.33,0,0,1,27.7,5.18c4.68,1.2,9.64,2.63,14.79,4.35,1.3.41,2.59.88,3.91,1.34s2.63.92,4.11,1.53a30.14,30.14,0,0,1,4.62,2.31,20.82,20.82,0,0,1,4.48,3.76,45.87,45.87,0,0,1,5.48,8.37l6.15,10.95,8.79,15.6q1.11,1.94,2.2,3.9l.55,1Z"/><path d="M243,25.14l1.22.33a15.63,15.63,0,0,0-.92,3,31.26,31.26,0,0,0-7.49,0,33,33,0,0,0-6.1,1.36,27.59,27.59,0,0,0-5.41,2.56c-.39.27-.81.47-1.16.75s-.7.54-1.06.78c-.71.61-1.45,1.16-2.08,1.79s-1.25,1.24-1.85,1.79-1.12,1.18-1.59,1.77c-4,4.5-7.5,9.54-10.74,13.56s-6.26,6.83-9.42,6.57c1.59,0,3.17-3.16,5.5-7.67s5.57-10.81,10.33-16.25c.57-.7,1.27-1.35,1.95-2.1s1.48-1.44,2.34-2.11,1.75-1.36,2.67-2.05l1.44-.89c.47-.32,1-.54,1.53-.83A30.21,30.21,0,0,1,229,25a33,33,0,0,1,7.29-.74A29.09,29.09,0,0,1,243,25.14Z"/><path d="M222.09,381.89c.27.31,0,.17-.13.16l-.14,0-.59-.18-1.24-.38-8.32-2.52c-3.19-.89-6.4-1.71-9.61-2.54s-6.46-1.48-9.7-2.12a244.52,244.52,0,0,0-38.46-4.45,236.94,236.94,0,0,0-35,1.35c-5.35.57-10.39,1.41-15.09,2.22-4.68,1-9,1.72-13,2.89a50.66,50.66,0,0,0-10.47,4.14c-.46.25-.9.51-1.33.78l.18-.36a44.13,44.13,0,0,1,6.67-9.66,50.52,50.52,0,0,1,12-9.62,59,59,0,0,1,17.53-6.38,100.05,100.05,0,0,1,21.9-1.75,220.26,220.26,0,0,1,24.81,2,239.6,239.6,0,0,1,26.28,5.15c4.45,1.14,9.16,2.48,14.07,4.08,1.24.38,2.47.82,3.72,1.24s2.52.86,3.62,1.3a19.31,19.31,0,0,1,2.91,1.4,9,9,0,0,1,2.09,1.7,37.1,37.1,0,0,1,4.16,6.32c.74,1.29,1.5,2.59,2.26,3.89l.45.78,0,0,.07.07Z"/><path d="M217.84,391.71c-2.28-.88-3.13-1.11-4.56-1.59l-4.51-1.5c-3-.93-6.09-1.8-9.14-2.69s-6.16-1.61-9.26-2.32A252.52,252.52,0,0,0,154.45,378c1.9-.15,3.78-.25,5.62-.31a114.66,114.66,0,0,1,43.78,7.51A122.2,122.2,0,0,1,217.84,391.71Z"/><path d="M213.53,569.26c.1.17-.64.8-2.17,1.85l-1.29.87-.75.49-.86.47-1.3.68.06-.35q.15-.93.33-1.86l.15,0,.9-.33.8-.35,1.4-.6C212.48,569.38,213.43,569.09,213.53,569.26Z"/><path d="M203.54,826.12c.22,3.51.37,7.48.42,11.89-3.75-3.83-7.42-7.92-11-12.16.43-2,.85-3.88,1.27-5.57s.79-3.12,1.17-4.44q1.45,1.9,2.91,3.75C200,821.82,201.78,824,203.54,826.12Z"/><path d="M196.81,42.66c2.34,2.63,3.15,5,2.64,6.31.09-.78-1.08-2.52-3.55-4.5-.26-.21-.54-.42-.83-.63.19-.74.41-1.5.68-2.27C196.14,41.94,196.49,42.3,196.81,42.66Z"/><path d="M195.9,44.47c2.47,2,3.64,3.72,3.55,4.5a1.37,1.37,0,0,1-.16.32c-.57.53-2.43,0-5.15-.76a34.94,34.94,0,0,1,.93-4.69C195.36,44.05,195.64,44.26,195.9,44.47Z"/><path d="M199.45,49a.47.47,0,0,1-.09.25.16.16,0,0,1-.07.07A1.37,1.37,0,0,0,199.45,49Z"/><path d="M199.29,49.29l-.08.13c-.83,1.13-2.76,1.29-5.27,1.24,0-.37.05-.76.09-1.15s.07-.65.11-1C196.86,49.25,198.72,49.82,199.29,49.29Z"/><path d="M195.75,41.57c-.27.77-.49,1.53-.68,2.27a30.14,30.14,0,0,0-4.39-2.58c.18-1,.43-2,.72-3A25.38,25.38,0,0,1,195.75,41.57Z"/><path d="M195.37,815.84q-.57,2-1.17,4.44c-.42,1.69-.84,3.56-1.27,5.57l-1-1.12c-9.56-11.31-18.67-23.7-28.48-35.38S142.71,766.93,132,756s-21-22.14-28.81-34.08A200.69,200.69,0,0,1,84.8,687.71a279.63,279.63,0,0,1-11.21-31.48c-3-10.31-5.62-20.32-7.8-29.87-1.78-7.69-3.39-15.06-4.88-22.07a18.42,18.42,0,0,0,3.43-.25c2.71-.49,4.08-1.31,4.08-1.68l2-.51c1.81,7,3.7,14.34,5.7,22,2.45,9.38,5.2,19.13,8.3,29.13a309.13,309.13,0,0,0,11,30.26,202.19,202.19,0,0,0,17.21,32.41c7.18,11.21,16.78,22,27.1,33s21.44,22.28,31.2,34.67C179.59,794.26,187.44,805.48,195.37,815.84Z"/><path d="M195.07,43.84a34.94,34.94,0,0,0-.93,4.69l-.26-.07c-1.13-.29-2.4-.59-3.79-.86a29.58,29.58,0,0,1,.59-6.34A30.14,30.14,0,0,1,195.07,43.84Z"/><path d="M194.14,48.53c0,.33-.08.66-.11,1s-.07.78-.09,1.15l-1.17,0-2.46,0a18.4,18.4,0,0,1-.2-2.17c0-.27,0-.54,0-.82,1.39.27,2.66.57,3.79.86Z"/><path d="M192.77,50.64l1.17,0c-.34,5.32.86,8.55,2.27,8.69-1.58-.18-3-1.21-4.09-3.08a14.23,14.23,0,0,1-1.37-3.38c-.16-.71-.32-1.48-.44-2.3Z"/><path d="M191.4,38.26c-.29,1-.54,2-.72,3a32.65,32.65,0,0,0-7.46-2.51,37,37,0,0,0-8.66-.8,37.48,37.48,0,0,0-8.93,1.36,34.3,34.3,0,0,0-21.08,16.8q-1.38-.69-2.94-1.32-.95-.37-2-.72a33.32,33.32,0,0,1,8-11.2,35.82,35.82,0,0,1,7-5,36.3,36.3,0,0,1,9.28-3.57,39.63,39.63,0,0,1,10.15-1,38.62,38.62,0,0,1,9.57,1.55A31.82,31.82,0,0,1,191.4,38.26Z"/><path d="M190.11,48.42a18.4,18.4,0,0,0,.2,2.17,51.94,51.94,0,0,0-8.46.41A38.55,38.55,0,0,0,176,52.26a33.27,33.27,0,0,0-5.25,2.14,27.58,27.58,0,0,0-4.25,2.67,42.22,42.22,0,0,0-3.32,2.78C159.35,63.36,156,67,152.9,70.15c-.82.78-1.5,1.53-2.31,2.2a18.13,18.13,0,0,1-2.25,1.84,7.53,7.53,0,0,1-4.57,1.67c1.64,0,2.95-3,5.23-6.86.39-.71.82-1.45,1.29-2.21,1.64-.25,2.76-.7,3.15-1.55a.56.56,0,0,0,0-.12l.06-.1a.44.44,0,0,0,0-.26,3.25,3.25,0,0,0-.59-2,47.06,47.06,0,0,1,6.33-7.16,34.83,34.83,0,0,1,4.24-3.33A29.39,29.39,0,0,1,169,49.34a35.6,35.6,0,0,1,6.49-1.91,38.35,38.35,0,0,1,6.8-.6,39.56,39.56,0,0,1,7.77.77C190.09,47.88,190.1,48.15,190.11,48.42Z"/><path d="M190.68,41.26a29.58,29.58,0,0,0-.59,6.34,39.56,39.56,0,0,0-7.77-.77,38.35,38.35,0,0,0-6.8.6A35.6,35.6,0,0,0,169,49.34a29.39,29.39,0,0,0-5.49,2.93,34.83,34.83,0,0,0-4.24,3.33A47.06,47.06,0,0,0,153,62.76a15.39,15.39,0,0,0-4.25-4.17,31.68,31.68,0,0,0-4.17-2.48,33.89,33.89,0,0,1,7-9,35.28,35.28,0,0,1,14.09-7.81A37.48,37.48,0,0,1,174.56,38a37,37,0,0,1,8.66.8A32.65,32.65,0,0,1,190.68,41.26Z"/><path d="M187.93,693c.5,1.54-.59,3.31-1.82,5.43s-2.87,4.56-4.56,7.56c-.2.35-.41.72-.62,1.12-2.3-1.65-3.8-2.43-4.47-1.91s-.25,2.14,1,4.76c.31.64.69,1.32,1.13,2.06-.93,2.28-1.78,4.87-2.54,7.38-1.56,5.2-3,9.81-4.66,9.74-.79,0-1.51-1.16-2.12-3a32.9,32.9,0,0,1-1.32-7.47,38.46,38.46,0,0,1,.52-9.66,28.41,28.41,0,0,1,3.06-8.65,20.8,20.8,0,0,1,4.69-5.68,15.52,15.52,0,0,1,5.38-3,10.31,10.31,0,0,1,2.39-.44,7.07,7.07,0,0,1,1.92.17A2.68,2.68,0,0,1,187.93,693Z"/><circle cx="167.95" cy="467.59" r="23.5"/><path d="M180.93,707.08a42.83,42.83,0,0,0-2.24,4.66c0,.08-.07.16-.1.25-.44-.74-.82-1.42-1.13-2.06-1.25-2.62-1.62-4.27-1-4.76S178.63,705.43,180.93,707.08Z"/><path d="M153,62.76a3.25,3.25,0,0,1,.59,2,2.94,2.94,0,0,0-1-1.39C152.67,63.17,152.81,63,153,62.76Z"/><path d="M153.56,64.76a.44.44,0,0,1,0,.26l-.06.1A1.05,1.05,0,0,0,153.56,64.76Z"/><path d="M153.56,64.76a1.05,1.05,0,0,1-.08.36c-.27.31-1.07.35-2.29.23.42-.65.86-1.31,1.34-2A2.94,2.94,0,0,1,153.56,64.76Z"/><path d="M153.48,65.12a.56.56,0,0,1,0,.12c-.39.85-1.51,1.3-3.15,1.55q.42-.71.9-1.44C152.41,65.47,153.21,65.43,153.48,65.12Z"/><path d="M153,62.76c-.16.2-.3.41-.44.61a21.45,21.45,0,0,0-4.41-2.85,36.78,36.78,0,0,0-4.74-2c.21-.48.44-1,.68-1.46.15-.32.32-.63.49-1a31.68,31.68,0,0,1,4.17,2.48A15.39,15.39,0,0,1,153,62.76Z"/><path d="M152.53,63.37c-.48.67-.92,1.33-1.34,2-1.13-.09-2.62-.32-4.4-.56-1.53-.2-3.3-.42-5.21-.56a29.63,29.63,0,0,1,1.8-5.71,36.78,36.78,0,0,1,4.74,2A21.45,21.45,0,0,1,152.53,63.37Z"/><path d="M151.19,65.35q-.48.74-.9,1.44a38.36,38.36,0,0,1-4.23.34c-1.47.07-3.15.12-4.93.23,0-.22,0-.45.07-.67a23.43,23.43,0,0,1,.38-2.46c1.91.14,3.68.36,5.21.56C148.57,65,150.06,65.26,151.19,65.35Z"/><path d="M146.06,67.13a38.36,38.36,0,0,0,4.23-.34c-.47.76-.9,1.5-1.29,2.21-2.28,3.91-3.59,6.86-5.23,6.86h-.05c-.8,0-1.49-.85-2.05-2.43a15.5,15.5,0,0,1-.55-2.89,26,26,0,0,1,0-3.18C142.91,67.25,144.59,67.2,146.06,67.13Z"/><path d="M144.55,56.11c-.17.32-.34.63-.49,1-.24.49-.47,1-.68,1.46-.72-.25-1.49-.5-2.28-.73s-1.7-.46-2.61-.65c.28-.91.62-1.84,1-2.77,0-.1.08-.2.13-.3q1,.34,2,.72Q143.17,55.42,144.55,56.11Z"/><path d="M141.1,57.79c.79.23,1.56.48,2.28.73a29.63,29.63,0,0,0-1.8,5.71c-1.37-.11-2.8-.17-4.28-.17a26.53,26.53,0,0,1,1.19-6.92C139.4,57.33,140.27,57.55,141.1,57.79Z"/><path d="M143.72,75.86a5.51,5.51,0,0,1-4.27-2.68A12.77,12.77,0,0,1,138,69.93c-.18-.7-.35-1.46-.48-2.28,1.24-.13,2.47-.23,3.65-.29a26,26,0,0,0,0,3.18,15.5,15.5,0,0,0,.55,2.89C142.23,75,142.92,75.83,143.72,75.86Z"/><path d="M141.58,64.23a23.43,23.43,0,0,0-.38,2.46c0,.22-.06.45-.07.67-1.18.06-2.41.16-3.65.29a15.78,15.78,0,0,1-.18-2.11c0-.48,0-1,0-1.48C138.78,64.06,140.21,64.12,141.58,64.23Z"/><path d="M139.63,54.07c0,.1-.09.2-.13.3-.39.93-.73,1.86-1,2.77a37.2,37.2,0,0,0-6.78-.88,34,34,0,0,0-5.38.25c-.92.12-1.85.3-2.77.51s-1.84.48-2.76.76a34.59,34.59,0,0,0-10,5.25A44.25,44.25,0,0,0,98.27,77.84a51.59,51.59,0,0,0-4,10.15l-1-.36a25.74,25.74,0,0,0-4.34-1,47.38,47.38,0,0,1,4.17-11.45A46.18,46.18,0,0,1,107.46,59a38.53,38.53,0,0,1,11.63-5.54,37.22,37.22,0,0,1,6.39-1.15,33.74,33.74,0,0,1,6,.07A37.39,37.39,0,0,1,139.63,54.07Z"/><path d="M138.49,57.14a26.53,26.53,0,0,0-1.19,6.92,38.62,38.62,0,0,0-5.22.33,27.44,27.44,0,0,0-4,.83,16.68,16.68,0,0,0-1.92.65c-.64.21-1.26.52-1.88.79a28.14,28.14,0,0,0-6.81,4.6,42.61,42.61,0,0,0-9,11.92c-3.88,7.5-6.16,15.47-8.29,21.28s-4,9.52-5.61,9.27l-.14,0c-1.46-.46-2.33-4.4-2.26-10.68,0-1.76.15-3.72.39-5.83l1.23-.61c2.87-1.46,5-2.71,5.11-4.32a1,1,0,0,0,0-.17.19.19,0,0,0,0-.08.47.47,0,0,0,0-.25c-.24-1.28-1.8-2.67-4.54-3.77a51.59,51.59,0,0,1,4-10.15A44.25,44.25,0,0,1,110.78,63a34.59,34.59,0,0,1,10-5.25c.92-.28,1.82-.57,2.76-.76s1.85-.39,2.77-.51a34,34,0,0,1,5.38-.25A37.2,37.2,0,0,1,138.49,57.14Z"/><path d="M137.3,65.54a15.78,15.78,0,0,0,.18,2.11,37.59,37.59,0,0,0-5.21.92,23.22,23.22,0,0,0-3.3,1.1,12.15,12.15,0,0,0-1.5.71c-.49.22-1,.53-1.44.8a25.94,25.94,0,0,0-5.2,4.22,44.47,44.47,0,0,0-7.28,10.45c-3.39,6.49-6.28,13.82-9.39,19.33s-6.45,9-9.61,8.55c1.59.25,3.53-3.42,5.61-9.27s4.41-13.78,8.29-21.28a42.61,42.61,0,0,1,9-11.92,28.14,28.14,0,0,1,6.81-4.6c.62-.27,1.24-.58,1.88-.79a16.68,16.68,0,0,1,1.92-.65,27.44,27.44,0,0,1,4-.83,38.62,38.62,0,0,1,5.22-.33C137.28,64.57,137.28,65.06,137.3,65.54Z"/><path d="M98.86,91.76a.47.47,0,0,1,0,.25.19.19,0,0,1,0,.08A1.84,1.84,0,0,0,98.86,91.76Z"/><path d="M98.86,91.76a1.84,1.84,0,0,1,0,.33c-.2.78-2.23,1.27-5.23,2l-.72.19c.14-.88.31-1.79.5-2.71.13-.62.27-1.25.42-1.88C96.76,90.25,98.55,91.08,98.86,91.76Z"/><path d="M98.89,92.09a1,1,0,0,1,0,.17c-.14,1.61-2.24,2.86-5.11,4.32l-1.23.61c.1-.93.24-1.88.4-2.87l.72-.19C96.66,93.36,98.69,92.87,98.89,92.09Z"/><path d="M94.32,88c2.74,1.1,4.3,2.49,4.54,3.77-.31-.68-2.1-1.51-5-2C94,89.16,94.15,88.58,94.32,88Z"/><path d="M94.32,88c-.17.59-.32,1.17-.46,1.74l-.41-.07a29.7,29.7,0,0,0-5-.32c.14-.89.32-1.8.53-2.72a25.74,25.74,0,0,1,4.34,1Z"/><path d="M93.86,89.73c-.15.63-.29,1.26-.42,1.88-.19.92-.36,1.83-.5,2.71-1.52.41-3.26.91-5.1,1.54a44.9,44.9,0,0,1,.5-5.67c0-.28.09-.56.14-.85a29.7,29.7,0,0,1,5,.32Z"/><path d="M92.94,94.32c-.16,1-.3,1.94-.4,2.87-1.43.73-3,1.51-4.64,2.39-.08-1.17-.1-2.42-.06-3.72C89.68,95.23,91.42,94.73,92.94,94.32Z"/><path d="M92.54,97.19c-.24,2.11-.36,4.07-.39,5.83-.07,6.28.8,10.22,2.26,10.68-3-.6-5.34-4.72-6.26-11.4-.11-.86-.2-1.77-.25-2.72C89.53,98.7,91.11,97.92,92.54,97.19Z"/><path d="M89,86.62c-.21.92-.39,1.83-.53,2.72a37.66,37.66,0,0,0-9,1.16,44.17,44.17,0,0,0-8.18,2.93,45.42,45.42,0,0,0-7.66,4.69A41.62,41.62,0,0,0,53,110.07a38.68,38.68,0,0,0-4.46,11.54,32.33,32.33,0,0,0-.57,10c0,.12,0,.25,0,.37l-.18,0a35.12,35.12,0,0,0-3.49.76c-.16-.47-.3-1-.42-1.48a28.55,28.55,0,0,1-.47-11.16,36.53,36.53,0,0,1,4.59-13A39.73,39.73,0,0,1,53,100.47a42.13,42.13,0,0,1,7.22-6.35A45.45,45.45,0,0,1,69,89.36a43.1,43.1,0,0,1,9.19-2.57A35.17,35.17,0,0,1,89,86.62Z"/><path d="M88.48,89.34c0,.29-.1.57-.14.85a44.9,44.9,0,0,0-.5,5.67,49.37,49.37,0,0,0-5.62,2.3A48.67,48.67,0,0,0,76,101.71a46.88,46.88,0,0,0-5.52,4.48,39.46,39.46,0,0,0-4.39,4.93A47.55,47.55,0,0,0,63,115.87a74,74,0,0,0-6.83,16.32c-1.65-.57-4.43-.75-8.09-.2,0-.12,0-.25,0-.37a32.33,32.33,0,0,1,.57-10A38.68,38.68,0,0,1,53,110.07,41.62,41.62,0,0,1,63.65,98.12a45.42,45.42,0,0,1,7.66-4.69,44.17,44.17,0,0,1,8.18-2.93A37.66,37.66,0,0,1,88.48,89.34Z"/><path d="M87.84,95.86c0,1.3,0,2.55.06,3.72-1.4.76-2.85,1.59-4.27,2.53a53,53,0,0,0-5.18,3.81A47.22,47.22,0,0,0,74,110.25a40.11,40.11,0,0,0-3.47,4.43c-1,1.44-1.84,2.86-2.58,4.09-2.9,5-5.39,9.78-7.76,13.8s-4.76,7.23-8,7.65c.77-.1,1.37-.87,1.93-2.13,2.42-1.91,4-3.31,3.7-4.51-.11-.56-.7-1.05-1.7-1.39A74,74,0,0,1,63,115.87a47.55,47.55,0,0,1,3.16-4.75,39.46,39.46,0,0,1,4.39-4.93A46.88,46.88,0,0,1,76,101.71a48.67,48.67,0,0,1,6.18-3.55A49.37,49.37,0,0,1,87.84,95.86Z"/><path d="M79,381.21c-.92,1.86-1.59,3.51-2.11,4.88-.67.43-1.27.87-1.82,1.3-.38.3-.74.6-1.07.89,0-.22,0-.46-.07-.71,0-.68,0-1.48,0-2.39A26.41,26.41,0,0,1,79,381.21Z"/><path d="M75,387.39c.55-.43,1.15-.87,1.82-1.3-1.06,2.8-1.48,4.45-2.08,4.4-.35,0-.61-.76-.81-2.21C74.3,388,74.66,387.69,75,387.39Z"/><path d="M73.45,385.7l.49-.52c0,.91,0,1.71,0,2.39,0,.25,0,.49.07.71-2.57,2.28-3.53,4.08-3.92,3.87-.17-.08,0-.72.39-1.9a18.4,18.4,0,0,1,1.08-2l.84-1.21C72.67,386.56,73.06,386.16,73.45,385.7Z"/><path d="M70.37,601.85l-2,.51s0,0,0,0c-.1-.42-1.61-.34-4.16-.6a25.76,25.76,0,0,1-4-.75c-1.94-9.12-3.68-17.58-5.35-25.22a129.67,129.67,0,0,0-5.1-18.62A66.35,66.35,0,0,0,46.63,550a45.21,45.21,0,0,0-3.43-5.47c-4.64-6.24-8.9-8.26-8.47-9.12.15-.34,1.36-.24,3.52.55a26.31,26.31,0,0,1,8.3,5.61,39.68,39.68,0,0,1,4.74,5.54,59.32,59.32,0,0,1,4.36,7.39,111.86,111.86,0,0,1,7.09,19.2C65.22,582.18,67.72,591.64,70.37,601.85Z"/><path d="M68.41,602.32s0,0,0,0c0,.37-1.37,1.19-4.08,1.68a18.42,18.42,0,0,1-3.43.25c-.24-1.12-.47-2.22-.7-3.32a25.76,25.76,0,0,0,4,.75C66.8,602,68.31,601.9,68.41,602.32Z"/><path d="M60.21,601c.23,1.1.46,2.2.7,3.32a26,26,0,0,1-8.52-1.6,34.8,34.8,0,0,1-7.47-3.82,46.1,46.1,0,0,1-7.24-6.23C33,587.82,29.07,581.86,25,575.9a170.86,170.86,0,0,1-12-19.77,83.26,83.26,0,0,1-4.66-11.3A84.1,84.1,0,0,1,5.5,533a146,146,0,0,1-1.86-22.4,153.58,153.58,0,0,1,.67-19.39c.3-2.93.8-5.84,1.38-8.71a64,64,0,0,1,2.45-8.42,50.88,50.88,0,0,1,3.68-7.87,41.45,41.45,0,0,1,5.1-6.83l1.44-1.51c.49-.48,1-.92,1.54-1.37s1-.88,1.56-1.32,1.19-.87,1.8-1.25a22.42,22.42,0,0,1,7.83-3.16,16.57,16.57,0,0,1,4.36-.27,13,13,0,0,1,4.44,1.08,11.2,11.2,0,0,1,2.66,1.62c2,9.29,3.69,17.4,5,23.68l-.42-.65c-1.1-1.76-2.36-3.94-3.75-6.51q-1.05-1.92-2.19-4.13a34,34,0,0,0-2.29-4.06,3.85,3.85,0,0,0-2.32-1.7,4.45,4.45,0,0,0-1.51-.12,7.34,7.34,0,0,0-1.92.37,13.88,13.88,0,0,0-4.27,2.22c-.34.25-.66.53-1,.81s-.69.69-1,1-.72.68-1.06,1.06l-1,1.17a33.28,33.28,0,0,0-3.49,5.23,44.06,44.06,0,0,0-2.63,6.25,60.66,60.66,0,0,0-1.87,7c-.46,2.47-.88,5-1.15,7.61a172.75,172.75,0,0,0-.83,18.06A151.35,151.35,0,0,0,16,531.4a75.21,75.21,0,0,0,5.73,20.7,188.09,188.09,0,0,0,10.19,19.46c3.65,6.3,6.94,12.18,10.63,16.84a44.23,44.23,0,0,0,5.7,6.09,33.35,33.35,0,0,0,6,4.09A28.88,28.88,0,0,0,60.21,601Z"/><path d="M57.84,133.58c.25,1.2-1.28,2.6-3.7,4.51.63-1.41,1.22-3.44,2-5.84l0-.06C57.14,132.53,57.73,133,57.84,133.58Z"/><path d="M56.14,132.19l0,.06c-.76,2.4-1.35,4.43-2,5.84-.78.62-1.66,1.29-2.6,2a4.47,4.47,0,0,1-1.77-2,17.21,17.21,0,0,1-1.07-2.75,25.28,25.28,0,0,1-.65-3.41C51.71,131.44,54.49,131.62,56.14,132.19Z"/><path d="M54.14,138.09c-.56,1.26-1.16,2-1.93,2.13h-.16a1.34,1.34,0,0,1-.51-.11C52.48,139.38,53.36,138.71,54.14,138.09Z"/><path d="M52.05,140.23a2.43,2.43,0,0,1-.66,0l.15-.11A1.34,1.34,0,0,0,52.05,140.23Z"/><path d="M51.3,474.55c.93,4,1.1,6.4.37,6.71-.12-2.17-.3-4.67-.55-7.47Z"/><path d="M51.67,481.27c.35,6,.24,9.41-.27,9.47-.69.09-1.93-5.1-3.81-13.82,2,3.08,3.39,4.64,4.07,4.35Z"/><path d="M51.67,481.26h0c-.68.29-2.09-1.27-4.07-4.35-1.35-6.28-3-14.39-5-23.68a14.1,14.1,0,0,1,1.08.95,13.27,13.27,0,0,1,2.31,3.24,34.48,34.48,0,0,1,2.05,5.4c.49,1.58.95,3.07,1.37,4.47.72,2.45,1.31,4.62,1.76,6.47v0C51.37,476.59,51.55,479.09,51.67,481.26Z"/><path d="M51.54,140.12l-.15.11a6,6,0,0,1-3.85-1.94,12.92,12.92,0,0,1-2-2.88,22.37,22.37,0,0,1-1.11-2.63,35.12,35.12,0,0,1,3.49-.76l.18,0a25.28,25.28,0,0,0,.65,3.41,17.21,17.21,0,0,0,1.07,2.75A4.47,4.47,0,0,0,51.54,140.12Z"/><path d="M51.39,140.23l0,0a62.14,62.14,0,0,0-12.87,13.23,44.33,44.33,0,0,0-5,9.19A54.62,54.62,0,0,0,30.73,173c-1.27,7.16-1.56,14.75-2.07,21A114.56,114.56,0,0,1,26,212.31a53.08,53.08,0,0,1-6.13,15.38,24.71,24.71,0,0,1-8,8.49c-.3.18-.6.34-.89.48.66-6.27,1.53-11.46,2.19-15.37.4-2.6.77-4.62.89-6s0-2.25-.38-2.4-1,.41-1.8,1.61a33.54,33.54,0,0,0-3,5.53,85.29,85.29,0,0,0-4.53,13c0-.47-.08-1-.11-1.51-.07-2.48.15-5.57.34-9.23s.36-7.94.49-13,.24-10.76.74-17.16c.26-3.2.65-6.93,1.32-11a90.8,90.8,0,0,1,3.14-13.34,60.47,60.47,0,0,1,6.46-14,51.36,51.36,0,0,1,9.92-11.38,49.41,49.41,0,0,1,11.18-7.2,44,44,0,0,1,6.63-2.43,22.37,22.37,0,0,0,1.11,2.63,12.92,12.92,0,0,0,2,2.88A6,6,0,0,0,51.39,140.23Z"/><path d="M51.12,473.77c-.45-1.85-1-4-1.76-6.47-.42-1.4-.88-2.89-1.37-4.47a34.48,34.48,0,0,0-2.05-5.4,13.27,13.27,0,0,0-2.31-3.24,14.1,14.1,0,0,0-1.08-.95c-1.89-8.68-4.09-18.4-6.61-28.63-4.43-18.2-9.88-37.92-15.61-56.52-2.83-9.32-5.61-18.43-8.06-27S7.72,324.45,6.1,317.3A234,234,0,0,1,.17,276.14,153.33,153.33,0,0,1,2.24,242c.6-3.26,1.29-6.29,2-9a9.49,9.49,0,0,0,.33,1.73A4,4,0,0,0,6,236.82a3.32,3.32,0,0,0,2.42.58,8,8,0,0,0,2.51-.74c-.22,2-.42,4.16-.58,6.41a201,201,0,0,0,.43,32.35,303.29,303.29,0,0,0,6.57,39.33c.07.29.13.58.2.88v0c-.46,6.55-.5,10.27,0,10.34.3,0,.81-1.44,1.48-4.22,1.23,5.09,2.63,10.56,4.17,16.31,2.32,8.53,4.82,17.67,7.38,27.07,5.21,18.89,9.94,39.15,13.38,57.73C47.7,443.08,50,461.31,51.12,473.77Z"/><path d="M17.51,315.65q.69,3,1.45,6.12c-.67,2.78-1.18,4.26-1.48,4.22C17,325.92,17.05,322.2,17.51,315.65Z"/><path d="M13.59,212.84c.37.15.49,1,.38,2.4s-.49,3.45-.89,6c-.66,3.91-1.53,9.1-2.19,15.37a8,8,0,0,1-2.51.74A3.32,3.32,0,0,1,6,236.82a4,4,0,0,1-1.36-2.1A9.49,9.49,0,0,1,4.27,233,85.29,85.29,0,0,1,8.8,220a33.54,33.54,0,0,1,3-5.53C12.61,213.25,13.22,212.7,13.59,212.84Z"/><path class="cls-3" d="M204,838c.06,5.26,0,11.13-.3,17.56-.16,3.67-.4,7.53-.76,11.58s-.84,8.29-1.64,12.86a64.69,64.69,0,0,1-1.69,7.35c-.22.69-.44,1.38-.74,2.14-.12.36-.31.8-.48,1.19a6.83,6.83,0,0,1-.29.64l-.17.34a.69.69,0,0,0,0,.13,0,0,0,0,1,0,0v0a.3.3,0,0,1,0,.1c0,.06-.07.1-.07.17a1.16,1.16,0,0,0,.4.7s.1.1.13.1.17.24.25.37l.38.59c.54.8,1.1,1.62,1.72,2.45a126.25,126.25,0,0,0,8.57,10.22c3.16,3.41,6.56,6.81,10.13,10.11s7.32,6.51,11.23,9.51a98.83,98.83,0,0,0,12,8.07,50.65,50.65,0,0,0,5.91,2.85,22.83,22.83,0,0,0,5.39,1.51l.28,0,.14,0,.23,0,1,.07c.66,0,1.31.09,2,.11q2.06.11,4.23.15c2.88.05,5.88.05,8.94,0a378.34,378.34,0,0,0,39.19-2.89,272.92,272.92,0,0,0,40.67-8,133.08,133.08,0,0,0,18.88-6.88c1.49-.66,2.86-1.44,4.3-2.15l2-1.17c.69-.39,1.36-.78,2-1.21l.95-.63.47-.31.33-.2.61-.38a6.37,6.37,0,0,0,.62-.44c.18-.16.47-.3.57-.5l-.21-1.62,0-.25a2.62,2.62,0,0,0-.07-.38l-.3-1.38-.6-2.75-2.28-10.81c-1.47-7.1-2.82-14-4-20.56-2-11.07-3.69-21.29-4.86-30.32,2.09-1.81,4.15-3.73,6.17-5.72.71-.69,1.41-1.39,2.11-2.1.09.35.19.7.28,1.06,2.52,9.72,5.69,21.27,9.3,34,1.84,6.37,3.76,13,5.74,19.94l3.08,10.5c.27.89.53,1.78.79,2.67l.4,1.34.61,2.14q1.37,4.77,2.75,9.59c-.94,1.08-2.06,2.14-3.09,3.22l-1.59,1.61L393.73,926c-1.12,1-2.23,2.09-3.39,3.11l-2.57,2c-.81.64-1.63,1.19-2.46,1.74l-2.5,1.66c-1.7,1-3.39,2.07-5.12,3a142.37,142.37,0,0,1-21.25,9.17A266.91,266.91,0,0,1,313,957.26a349.46,349.46,0,0,1-41.61,4.32q-5,.21-9.87.2c-1.64,0-3.26,0-4.91-.08-.8,0-1.64-.07-2.47-.11l-1.24-.07-.32,0-.41,0-.82-.08a43.69,43.69,0,0,1-11.2-2.86,70,70,0,0,1-8.75-4.15,112.71,112.71,0,0,1-15-10.15A159.49,159.49,0,0,1,203.74,933q-5.91-5.79-11.06-11.89a127.68,127.68,0,0,1-9.58-12.77c-.73-1.13-1.44-2.31-2.14-3.52-.38-.69-.77-1.38-1.14-2.07-.55-1-1-2-1.46-3-1.75-4-2.62-8.21-1.46-12.14a11.67,11.67,0,0,1,1.11-2.47,14.86,14.86,0,0,1,.82-1.32l.5-.64a1.61,1.61,0,0,1,.71-.63c.25-.14.19-.12.21-.13l0,0a.26.26,0,0,0,.07-.11,2.94,2.94,0,0,0,.19-.33c.13-.26.28-.6.43-.94a50.05,50.05,0,0,0,1.69-5.14c1-3.71,1.9-7.57,2.69-11.3s1.5-7.38,2.17-10.87c2.08-11,3.82-20.44,5.42-27.83C196.54,830.09,200.21,834.18,204,838Z"/><circle class="cls-3" cx="167.95" cy="467.59" r="23.5"/><circle class="cls-3" cx="413.95" cy="467.59" r="23.5"/><path d="M554.75,659.56a1.5,1.5,0,0,0,0-3,1.5,1.5,0,0,0,0,3Z"/></g></g></svg>