<svg xmlns="http://www.w3.org/2000/svg" viewBox="0 0 202 202"><defs><style>.cls-1{fill:none;}.cls-1,.cls-2{stroke:#fff;stroke-miterlimit:10;stroke-width:2px;}.cls-2{fill:#f6f6f6;}.cls-3{fill:#fff;}</style></defs><g id="Layer_2" data-name="Layer 2"><g id="Layer_1-2" data-name="Layer 1"><circle class="cls-1" cx="101" cy="101" r="100"/><rect class="cls-1" x="29.9" y="51.52" width="142.2" height="105.15" rx="9.71"/><rect class="cls-1" x="39.8" y="58.41" width="122.4" height="85.17" rx="9.71"/><rect class="cls-1" x="81.61" y="163.28" width="38.79" height="12.8"/><rect class="cls-2" x="76.6" y="178.88" width="48.8" height="2.8"/><path class="cls-3" d="M106.35,86.3a7.63,7.63,0,0,0,3-9.39c-1.54-3.88-5.6-5.86-9.54-6.36a9,9,0,0,0-9.64,5.16c-1.89,4.11-1,8.56.58,12.61,3.07,7.86,7.61,15.17,9.72,23.38.81,3.16,1.6,7,.22,10.17a5.78,5.78,0,0,1-3.38,3,23.56,23.56,0,0,1-6.23,1.63,7.19,7.19,0,0,1-5.24-1.23c-1.51-1.21-1.61-3.19-1.68-5-.06-1.4-.48-4.25,1.08-5,.53-.27.43.11.25-.27-.08-.17.06.21,0,.22s.14-.55,0-.11c0,.12-.26.23,0,.09-2.76,1.64-.25,6,2.53,4.32,3.85-2.3,3-8.63-1.66-9.3a6.15,6.15,0,0,0-5.72,2.62c-1.39,1.91-1.57,4.37-1.51,6.66a16.45,16.45,0,0,0,1.17,6.67,9,9,0,0,0,4.3,4.22c4.35,2.08,9.29,1,13.64-.51a10.84,10.84,0,0,0,8-9.5c.59-4.33-.42-8.8-1.77-12.9a111.54,111.54,0,0,0-5.36-12.65c-1.88-4-4.37-8.33-4.94-12.77A6.8,6.8,0,0,1,95.4,76.7c1.29-1.52,3.22-1.43,5-1,1.61.4,3.5,1.27,4.21,2.81a2.68,2.68,0,0,1-.8,3.45c-2.8,1.59-.28,5.91,2.52,4.32Z"/></g></g></svg>